<?xml version="1.0" encoding="UTF-8" standalone="no"?><svg xmlns="http://www.w3.org/2000/svg" xmlns:xlink="http://www.w3.org/1999/xlink" contentStyleType="text/css" height="893px" preserveAspectRatio="none" style="width:1063px;height:893px;background:#000000;" version="1.1" viewBox="0 0 1063 893" width="1063px" zoomAndPan="magnify"><defs/><g><!--MD5=[807bc46d8103c809ff053af9e140e1f5]
cluster tictactoe--><g id="cluster_tictactoe"><path d="M8.5,6 L70.5,6 A3.75,3.75 0 0 1 73,8.5 L80,29.6094 L1047.5,29.6094 A2.5,2.5 0 0 1 1050,32.1094 L1050,883.5 A2.5,2.5 0 0 1 1047.5,886 L8.5,886 A2.5,2.5 0 0 1 6,883.5 L6,8.5 A2.5,2.5 0 0 1 8.5,6 " fill="none" style="stroke:#FFFFFF;stroke-width:1.5;"/><line style="stroke:#FFFFFF;stroke-width:1.5;" x1="6" x2="80" y1="29.6094" y2="29.6094"/><text fill="#FFFFFF" font-family="sans-serif" font-size="14" font-weight="bold" lengthAdjust="spacing" textLength="61" x="10" y="22.5332">tictactoe</text></g><!--MD5=[2f74336157ef17ab5547a5f506e0d64b]
cluster board--><g id="cluster_board"><path d="M719.5,50 L761.5,50 A3.75,3.75 0 0 1 764,52.5 L771,73.6094 L1010.5,73.6094 A2.5,2.5 0 0 1 1013,76.1094 L1013,672 A2.5,2.5 0 0 1 1010.5,674.5 L719.5,674.5 A2.5,2.5 0 0 1 717,672 L717,52.5 A2.5,2.5 0 0 1 719.5,50 " fill="none" style="stroke:#FFFFFF;stroke-width:1.5;"/><line style="stroke:#FFFFFF;stroke-width:1.5;" x1="717" x2="771" y1="73.6094" y2="73.6094"/><text fill="#FFFFFF" font-family="sans-serif" font-size="14" font-weight="bold" lengthAdjust="spacing" textLength="41" x="721" y="66.5332">board</text></g><!--MD5=[c52f45833d539af9e29a9d34b8b7302b]
cluster utils--><g id="cluster_utils"><path d="M501.5,709 L532.5,709 A3.75,3.75 0 0 1 535,711.5 L542,732.6094 L592.5,732.6094 A2.5,2.5 0 0 1 595,735.1094 L595,859.5 A2.5,2.5 0 0 1 592.5,862 L501.5,862 A2.5,2.5 0 0 1 499,859.5 L499,711.5 A2.5,2.5 0 0 1 501.5,709 " fill="none" style="stroke:#FFFFFF;stroke-width:1.5;"/><line style="stroke:#FFFFFF;stroke-width:1.5;" x1="499" x2="542" y1="732.6094" y2="732.6094"/><text fill="#FFFFFF" font-family="sans-serif" font-size="14" font-weight="bold" lengthAdjust="spacing" textLength="30" x="503" y="725.5332">utils</text></g><!--MD5=[b0e855d727d302fa2279e2e841d3d1a8]
class TTTGame--><g id="elem_TTTGame"><rect codeLine="5" fill="#0E0E0E" height="259.3125" id="TTTGame" rx="2.5" ry="2.5" style="stroke:#E7E7E7;stroke-width:0.5;" width="210" x="349" y="51"/><ellipse cx="417.25" cy="67" fill="#3D3D3D" rx="11" ry="11" style="stroke:#E7E7E7;stroke-width:1.0;"/><path d="M420.0156,62.875 Q420.1719,62.6563 420.3594,62.5469 Q420.5469,62.4375 420.7656,62.4375 Q421.1406,62.4375 421.375,62.6953 Q421.6094,62.9531 421.6094,63.5625 L421.6094,65.0156 Q421.6094,65.625 421.375,65.8906 Q421.1406,66.1563 420.7656,66.1563 Q420.4219,66.1563 420.2188,65.9531 Q420.0156,65.7656 419.9063,65.25 Q419.8594,64.8906 419.6719,64.7031 Q419.3438,64.3281 418.7344,64.1094 Q418.125,63.8906 417.5,63.8906 Q416.7344,63.8906 416.1016,64.2188 Q415.4688,64.5469 414.9766,65.2969 Q414.4844,66.0469 414.4844,67.0781 L414.4844,68.1719 Q414.4844,69.4063 415.375,70.2266 Q416.2656,71.0469 417.8594,71.0469 Q418.7969,71.0469 419.4531,70.7969 Q419.8438,70.6406 420.2656,70.2031 Q420.5313,69.9375 420.6797,69.8594 Q420.8281,69.7813 421.0313,69.7813 Q421.3594,69.7813 421.6172,70.0391 Q421.875,70.2969 421.875,70.6406 Q421.875,70.9844 421.5313,71.3906 Q421.0313,71.9688 420.2344,72.2969 Q419.1563,72.75 417.8594,72.75 Q416.3438,72.75 415.1406,72.125 Q414.1563,71.625 413.4688,70.5547 Q412.7813,69.4844 412.7813,68.2031 L412.7813,67.0469 Q412.7813,65.7188 413.3984,64.5703 Q414.0156,63.4219 415.1094,62.8047 Q416.2031,62.1875 417.4375,62.1875 Q418.1719,62.1875 418.8203,62.3516 Q419.4688,62.5156 420.0156,62.875 Z " fill="#FFFFFF"/><text fill="#FFFFFF" font-family="sans-serif" font-size="14" lengthAdjust="spacing" textLength="65" x="437.75" y="72.7285">TTTGame</text><line style="stroke:#E7E7E7;stroke-width:0.5;" x1="350" x2="558" y1="83" y2="83"/><rect fill="none" height="6" style="stroke:#A6A6A6;stroke-width:1.0;" width="6" x="357" y="94.3047"/><text fill="#FFFFFF" font-family="sans-serif" font-size="14" lengthAdjust="spacing" textLength="79" x="369" y="101.5332">Board board</text><rect fill="none" height="6" style="stroke:#A6A6A6;stroke-width:1.0;" width="6" x="357" y="111.9141"/><text fill="#FFFFFF" font-family="sans-serif" font-size="14" lengthAdjust="spacing" textLength="83" x="369" y="119.1426">Round round</text><rect fill="none" height="6" style="stroke:#A6A6A6;stroke-width:1.0;" width="6" x="357" y="129.5234"/><text fill="#FFFFFF" font-family="sans-serif" font-size="14" lengthAdjust="spacing" textLength="100" x="369" y="136.752">Statistic statistic</text><rect fill="none" height="6" style="stroke:#A6A6A6;stroke-width:1.0;" width="6" x="357" y="147.1328"/><text fill="#FFFFFF" font-family="sans-serif" font-size="14" lengthAdjust="spacing" textLength="91" x="369" y="154.3613">Player player1</text><rect fill="none" height="6" style="stroke:#A6A6A6;stroke-width:1.0;" width="6" x="357" y="164.7422"/><text fill="#FFFFFF" font-family="sans-serif" font-size="14" lengthAdjust="spacing" textLength="91" x="369" y="171.9707">Player player2</text><rect fill="none" height="6" style="stroke:#A6A6A6;stroke-width:1.0;" width="6" x="357" y="182.3516"/><text fill="#FFFFFF" font-family="sans-serif" font-size="14" lengthAdjust="spacing" textLength="184" x="369" y="189.5801">ArrayList&lt;Player&gt; playersList</text><line style="stroke:#E7E7E7;stroke-width:0.5;" x1="350" x2="558" y1="196.6563" y2="196.6563"/><ellipse cx="360" cy="210.9609" fill="#595959" rx="3" ry="3" style="stroke:#ABABAB;stroke-width:1.0;"/><text fill="#FFFFFF" font-family="sans-serif" font-size="14" lengthAdjust="spacing" textLength="75" x="369" y="215.1895">void setup()</text><ellipse cx="360" cy="228.5703" fill="#595959" rx="3" ry="3" style="stroke:#ABABAB;stroke-width:1.0;"/><text fill="#FFFFFF" font-family="sans-serif" font-size="14" lengthAdjust="spacing" textLength="89" x="369" y="232.7988">void execute()</text><ellipse cx="360" cy="246.1797" fill="#595959" rx="3" ry="3" style="stroke:#ABABAB;stroke-width:1.0;"/><text fill="#FFFFFF" font-family="sans-serif" font-size="14" lengthAdjust="spacing" textLength="94" x="369" y="250.4082">void statistics()</text><rect fill="#7F7F7F" height="6" style="stroke:#A6A6A6;stroke-width:1.0;" width="6" x="357" y="260.7891"/><text fill="#FFFFFF" font-family="sans-serif" font-size="14" lengthAdjust="spacing" textLength="104" x="369" y="268.0176">void addPlayer()</text><rect fill="#7F7F7F" height="6" style="stroke:#A6A6A6;stroke-width:1.0;" width="6" x="357" y="278.3984"/><text fill="#FFFFFF" font-family="sans-serif" font-size="14" lengthAdjust="spacing" textLength="117" x="369" y="285.627">void selectPlayer()</text><rect fill="#7F7F7F" height="6" style="stroke:#A6A6A6;stroke-width:1.0;" width="6" x="357" y="296.0078"/><text fill="#FFFFFF" font-family="sans-serif" font-size="14" lengthAdjust="spacing" textLength="137" x="369" y="303.2363">Player searchPlayer()</text></g><!--MD5=[2cb47ba637a0d19583e6199456f6ad0b]
class Player--><g id="elem_Player"><rect codeLine="21" fill="#0E0E0E" height="136.0469" id="Player" rx="2.5" ry="2.5" style="stroke:#E7E7E7;stroke-width:0.5;" width="190" x="22" y="540"/><ellipse cx="92.75" cy="556" fill="#3D3D3D" rx="11" ry="11" style="stroke:#E7E7E7;stroke-width:1.0;"/><path d="M95.5156,551.875 Q95.6719,551.6563 95.8594,551.5469 Q96.0469,551.4375 96.2656,551.4375 Q96.6406,551.4375 96.875,551.6953 Q97.1094,551.9531 97.1094,552.5625 L97.1094,554.0156 Q97.1094,554.625 96.875,554.8906 Q96.6406,555.1563 96.2656,555.1563 Q95.9219,555.1563 95.7188,554.9531 Q95.5156,554.7656 95.4063,554.25 Q95.3594,553.8906 95.1719,553.7031 Q94.8438,553.3281 94.2344,553.1094 Q93.625,552.8906 93,552.8906 Q92.2344,552.8906 91.6016,553.2188 Q90.9688,553.5469 90.4766,554.2969 Q89.9844,555.0469 89.9844,556.0781 L89.9844,557.1719 Q89.9844,558.4063 90.875,559.2266 Q91.7656,560.0469 93.3594,560.0469 Q94.2969,560.0469 94.9531,559.7969 Q95.3438,559.6406 95.7656,559.2031 Q96.0313,558.9375 96.1797,558.8594 Q96.3281,558.7813 96.5313,558.7813 Q96.8594,558.7813 97.1172,559.0391 Q97.375,559.2969 97.375,559.6406 Q97.375,559.9844 97.0313,560.3906 Q96.5313,560.9688 95.7344,561.2969 Q94.6563,561.75 93.3594,561.75 Q91.8438,561.75 90.6406,561.125 Q89.6563,560.625 88.9688,559.5547 Q88.2813,558.4844 88.2813,557.2031 L88.2813,556.0469 Q88.2813,554.7188 88.8984,553.5703 Q89.5156,552.4219 90.6094,551.8047 Q91.7031,551.1875 92.9375,551.1875 Q93.6719,551.1875 94.3203,551.3516 Q94.9688,551.5156 95.5156,551.875 Z " fill="#FFFFFF"/><text fill="#FFFFFF" font-family="sans-serif" font-size="14" lengthAdjust="spacing" textLength="40" x="113.25" y="561.7285">Player</text><line style="stroke:#E7E7E7;stroke-width:0.5;" x1="23" x2="211" y1="572" y2="572"/><rect fill="none" height="6" style="stroke:#A6A6A6;stroke-width:1.0;" width="6" x="30" y="583.3047"/><text fill="#FFFFFF" font-family="sans-serif" font-size="14" lengthAdjust="spacing" textLength="30" x="42" y="590.5332">int id</text><rect fill="none" height="6" style="stroke:#A6A6A6;stroke-width:1.0;" width="6" x="30" y="600.9141"/><text fill="#FFFFFF" font-family="sans-serif" font-size="14" lengthAdjust="spacing" textLength="76" x="42" y="608.1426">String name</text><rect fill="none" height="6" style="stroke:#A6A6A6;stroke-width:1.0;" width="6" x="30" y="618.5234"/><text fill="#FFFFFF" font-family="sans-serif" font-size="14" lengthAdjust="spacing" textLength="66" x="42" y="625.752">Mark mark</text><line style="stroke:#E7E7E7;stroke-width:0.5;" x1="23" x2="211" y1="632.8281" y2="632.8281"/><ellipse cx="33" cy="647.1328" fill="#595959" rx="3" ry="3" style="stroke:#ABABAB;stroke-width:1.0;"/><text fill="#FFFFFF" font-family="sans-serif" font-size="14" lengthAdjust="spacing" textLength="164" x="42" y="651.3613">Player(int id, String name)</text><ellipse cx="33" cy="664.7422" fill="#595959" rx="3" ry="3" style="stroke:#ABABAB;stroke-width:1.0;"/><text fill="#FFFFFF" font-family="sans-serif" font-size="14" lengthAdjust="spacing" textLength="95" x="42" y="668.9707">void putPiece()</text></g><!--MD5=[d75b0a238b734941260681f0026bbb88]
class Round--><g id="elem_Round"><rect codeLine="30" fill="#0E0E0E" height="153.6563" id="Round" rx="2.5" ry="2.5" style="stroke:#E7E7E7;stroke-width:0.5;" width="451" x="247.5" y="531"/><ellipse cx="447.75" cy="547" fill="#3D3D3D" rx="11" ry="11" style="stroke:#E7E7E7;stroke-width:1.0;"/><path d="M450.5156,542.875 Q450.6719,542.6563 450.8594,542.5469 Q451.0469,542.4375 451.2656,542.4375 Q451.6406,542.4375 451.875,542.6953 Q452.1094,542.9531 452.1094,543.5625 L452.1094,545.0156 Q452.1094,545.625 451.875,545.8906 Q451.6406,546.1563 451.2656,546.1563 Q450.9219,546.1563 450.7188,545.9531 Q450.5156,545.7656 450.4063,545.25 Q450.3594,544.8906 450.1719,544.7031 Q449.8438,544.3281 449.2344,544.1094 Q448.625,543.8906 448,543.8906 Q447.2344,543.8906 446.6016,544.2188 Q445.9688,544.5469 445.4766,545.2969 Q444.9844,546.0469 444.9844,547.0781 L444.9844,548.1719 Q444.9844,549.4063 445.875,550.2266 Q446.7656,551.0469 448.3594,551.0469 Q449.2969,551.0469 449.9531,550.7969 Q450.3438,550.6406 450.7656,550.2031 Q451.0313,549.9375 451.1797,549.8594 Q451.3281,549.7813 451.5313,549.7813 Q451.8594,549.7813 452.1172,550.0391 Q452.375,550.2969 452.375,550.6406 Q452.375,550.9844 452.0313,551.3906 Q451.5313,551.9688 450.7344,552.2969 Q449.6563,552.75 448.3594,552.75 Q446.8438,552.75 445.6406,552.125 Q444.6563,551.625 443.9688,550.5547 Q443.2813,549.4844 443.2813,548.2031 L443.2813,547.0469 Q443.2813,545.7188 443.8984,544.5703 Q444.5156,543.4219 445.6094,542.8047 Q446.7031,542.1875 447.9375,542.1875 Q448.6719,542.1875 449.3203,542.3516 Q449.9688,542.5156 450.5156,542.875 Z " fill="#FFFFFF"/><text fill="#FFFFFF" font-family="sans-serif" font-size="14" lengthAdjust="spacing" textLength="42" x="468.25" y="552.7285">Round</text><line style="stroke:#E7E7E7;stroke-width:0.5;" x1="248.5" x2="697.5" y1="563" y2="563"/><rect fill="none" height="6" style="stroke:#A6A6A6;stroke-width:1.0;" width="6" x="255.5" y="574.3047"/><text fill="#FFFFFF" font-family="sans-serif" font-size="14" lengthAdjust="spacing" textLength="79" x="267.5" y="581.5332">Board board</text><rect fill="none" height="6" style="stroke:#A6A6A6;stroke-width:1.0;" width="6" x="255.5" y="591.9141"/><text fill="#FFFFFF" font-family="sans-serif" font-size="14" lengthAdjust="spacing" textLength="91" x="267.5" y="599.1426">Player player1</text><rect fill="none" height="6" style="stroke:#A6A6A6;stroke-width:1.0;" width="6" x="255.5" y="609.5234"/><text fill="#FFFFFF" font-family="sans-serif" font-size="14" lengthAdjust="spacing" textLength="91" x="267.5" y="616.752">Player player2</text><rect fill="none" height="6" style="stroke:#A6A6A6;stroke-width:1.0;" width="6" x="255.5" y="627.1328"/><text fill="#FFFFFF" font-family="sans-serif" font-size="14" lengthAdjust="spacing" textLength="100" x="267.5" y="634.3613">Statistic statistic</text><line style="stroke:#E7E7E7;stroke-width:0.5;" x1="248.5" x2="697.5" y1="641.4375" y2="641.4375"/><ellipse cx="258.5" cy="655.7422" fill="#595959" rx="3" ry="3" style="stroke:#ABABAB;stroke-width:1.0;"/><text fill="#FFFFFF" font-family="sans-serif" font-size="14" lengthAdjust="spacing" textLength="425" x="267.5" y="659.9707">Round(Board board,Player player1,Player player2,Statistic statistic)</text><ellipse cx="258.5" cy="673.3516" fill="#595959" rx="3" ry="3" style="stroke:#ABABAB;stroke-width:1.0;"/><text fill="#FFFFFF" font-family="sans-serif" font-size="14" lengthAdjust="spacing" textLength="138" x="267.5" y="677.5801">void executeRounds()</text></g><!--MD5=[2e75c5381830ed69fc62cd395939a1b2]
class Statistic--><g id="elem_Statistic"><rect codeLine="40" fill="#0E0E0E" height="83.2188" id="Statistic" rx="2.5" ry="2.5" style="stroke:#E7E7E7;stroke-width:0.5;" width="237" x="258.5" y="379"/><ellipse cx="348.25" cy="395" fill="#3D3D3D" rx="11" ry="11" style="stroke:#E7E7E7;stroke-width:1.0;"/><path d="M351.0156,390.875 Q351.1719,390.6563 351.3594,390.5469 Q351.5469,390.4375 351.7656,390.4375 Q352.1406,390.4375 352.375,390.6953 Q352.6094,390.9531 352.6094,391.5625 L352.6094,393.0156 Q352.6094,393.625 352.375,393.8906 Q352.1406,394.1563 351.7656,394.1563 Q351.4219,394.1563 351.2188,393.9531 Q351.0156,393.7656 350.9063,393.25 Q350.8594,392.8906 350.6719,392.7031 Q350.3438,392.3281 349.7344,392.1094 Q349.125,391.8906 348.5,391.8906 Q347.7344,391.8906 347.1016,392.2188 Q346.4688,392.5469 345.9766,393.2969 Q345.4844,394.0469 345.4844,395.0781 L345.4844,396.1719 Q345.4844,397.4063 346.375,398.2266 Q347.2656,399.0469 348.8594,399.0469 Q349.7969,399.0469 350.4531,398.7969 Q350.8438,398.6406 351.2656,398.2031 Q351.5313,397.9375 351.6797,397.8594 Q351.8281,397.7813 352.0313,397.7813 Q352.3594,397.7813 352.6172,398.0391 Q352.875,398.2969 352.875,398.6406 Q352.875,398.9844 352.5313,399.3906 Q352.0313,399.9688 351.2344,400.2969 Q350.1563,400.75 348.8594,400.75 Q347.3438,400.75 346.1406,400.125 Q345.1563,399.625 344.4688,398.5547 Q343.7813,397.4844 343.7813,396.2031 L343.7813,395.0469 Q343.7813,393.7188 344.3984,392.5703 Q345.0156,391.4219 346.1094,390.8047 Q347.2031,390.1875 348.4375,390.1875 Q349.1719,390.1875 349.8203,390.3516 Q350.4688,390.5156 351.0156,390.875 Z " fill="#FFFFFF"/><text fill="#FFFFFF" font-family="sans-serif" font-size="14" lengthAdjust="spacing" textLength="49" x="368.75" y="400.7285">Statistic</text><line style="stroke:#E7E7E7;stroke-width:0.5;" x1="259.5" x2="494.5" y1="411" y2="411"/><rect fill="none" height="6" style="stroke:#A6A6A6;stroke-width:1.0;" width="6" x="266.5" y="422.3047"/><text fill="#FFFFFF" font-family="sans-serif" font-size="14" lengthAdjust="spacing" textLength="167" x="278.5" y="429.5332">ArrayList&lt;String&gt; statistics</text><line style="stroke:#E7E7E7;stroke-width:0.5;" x1="259.5" x2="494.5" y1="436.6094" y2="436.6094"/><ellipse cx="269.5" cy="450.9141" fill="#595959" rx="3" ry="3" style="stroke:#ABABAB;stroke-width:1.0;"/><text fill="#FFFFFF" font-family="sans-serif" font-size="14" lengthAdjust="spacing" textLength="211" x="278.5" y="455.1426">void addStatistic(String message)</text></g><!--MD5=[9563755d011c5cec7ec66dc53565a59e]
class Board--><g id="elem_Board"><rect codeLine="47" fill="#0E0E0E" height="188.875" id="Board" rx="2.5" ry="2.5" style="stroke:#E7E7E7;stroke-width:0.5;" width="258" x="733" y="86"/><ellipse cx="838.75" cy="102" fill="#3D3D3D" rx="11" ry="11" style="stroke:#E7E7E7;stroke-width:1.0;"/><path d="M841.5156,97.875 Q841.6719,97.6563 841.8594,97.5469 Q842.0469,97.4375 842.2656,97.4375 Q842.6406,97.4375 842.875,97.6953 Q843.1094,97.9531 843.1094,98.5625 L843.1094,100.0156 Q843.1094,100.625 842.875,100.8906 Q842.6406,101.1563 842.2656,101.1563 Q841.9219,101.1563 841.7188,100.9531 Q841.5156,100.7656 841.4063,100.25 Q841.3594,99.8906 841.1719,99.7031 Q840.8438,99.3281 840.2344,99.1094 Q839.625,98.8906 839,98.8906 Q838.2344,98.8906 837.6016,99.2188 Q836.9688,99.5469 836.4766,100.2969 Q835.9844,101.0469 835.9844,102.0781 L835.9844,103.1719 Q835.9844,104.4063 836.875,105.2266 Q837.7656,106.0469 839.3594,106.0469 Q840.2969,106.0469 840.9531,105.7969 Q841.3438,105.6406 841.7656,105.2031 Q842.0313,104.9375 842.1797,104.8594 Q842.3281,104.7813 842.5313,104.7813 Q842.8594,104.7813 843.1172,105.0391 Q843.375,105.2969 843.375,105.6406 Q843.375,105.9844 843.0313,106.3906 Q842.5313,106.9688 841.7344,107.2969 Q840.6563,107.75 839.3594,107.75 Q837.8438,107.75 836.6406,107.125 Q835.6563,106.625 834.9688,105.5547 Q834.2813,104.4844 834.2813,103.2031 L834.2813,102.0469 Q834.2813,100.7188 834.8984,99.5703 Q835.5156,98.4219 836.6094,97.8047 Q837.7031,97.1875 838.9375,97.1875 Q839.6719,97.1875 840.3203,97.3516 Q840.9688,97.5156 841.5156,97.875 Z " fill="#FFFFFF"/><text fill="#FFFFFF" font-family="sans-serif" font-size="14" lengthAdjust="spacing" textLength="38" x="859.25" y="107.7285">Board</text><line style="stroke:#E7E7E7;stroke-width:0.5;" x1="734" x2="990" y1="118" y2="118"/><rect fill="none" height="6" style="stroke:#A6A6A6;stroke-width:1.0;" width="6" x="741" y="129.3047"/><text fill="#FFFFFF" font-family="sans-serif" font-size="14" lengthAdjust="spacing" textLength="90" x="753" y="136.5332">int dimensions</text><rect fill="none" height="6" style="stroke:#A6A6A6;stroke-width:1.0;" width="6" x="741" y="146.9141"/><text fill="#FFFFFF" font-family="sans-serif" font-size="14" lengthAdjust="spacing" textLength="90" x="753" y="154.1426">Space[] space</text><text fill="#FFFFFF" font-family="sans-serif" font-size="14" lengthAdjust="spacing" textLength="4" x="753" y="171.752"> </text><ellipse cx="744" cy="185.1328" fill="none" rx="3" ry="3" style="stroke:#ABABAB;stroke-width:1.0;"/><text fill="#FFFFFF" font-family="sans-serif" font-size="14" lengthAdjust="spacing" textLength="61" x="753" y="189.3613">void paint</text><ellipse cx="744" cy="202.7422" fill="none" rx="3" ry="3" style="stroke:#ABABAB;stroke-width:1.0;"/><text fill="#FFFFFF" font-family="sans-serif" font-size="14" lengthAdjust="spacing" textLength="123" x="753" y="206.9707">void validateChoice</text><ellipse cx="744" cy="220.3516" fill="none" rx="3" ry="3" style="stroke:#ABABAB;stroke-width:1.0;"/><text fill="#FFFFFF" font-family="sans-serif" font-size="14" lengthAdjust="spacing" textLength="168" x="753" y="224.5801">void verifyChoiceExistence</text><ellipse cx="744" cy="237.9609" fill="none" rx="3" ry="3" style="stroke:#ABABAB;stroke-width:1.0;"/><text fill="#FFFFFF" font-family="sans-serif" font-size="14" lengthAdjust="spacing" textLength="138" x="753" y="242.1895">void determineWinner</text><line style="stroke:#E7E7E7;stroke-width:0.5;" x1="734" x2="990" y1="249.2656" y2="249.2656"/><ellipse cx="744" cy="263.5703" fill="#595959" rx="3" ry="3" style="stroke:#ABABAB;stroke-width:1.0;"/><text fill="#FFFFFF" font-family="sans-serif" font-size="14" lengthAdjust="spacing" textLength="232" x="753" y="267.7988">Board(int dimensions,Space[] space)</text></g><!--MD5=[e4951a412b0edb2e6f8e49ce06f9a46d]
class Space--><g id="elem_Space"><rect codeLine="58" fill="#0E0E0E" height="100.8281" id="Space" rx="2.5" ry="2.5" style="stroke:#E7E7E7;stroke-width:0.5;" width="167" x="781.5" y="370"/><ellipse cx="840.75" cy="386" fill="#3D3D3D" rx="11" ry="11" style="stroke:#E7E7E7;stroke-width:1.0;"/><path d="M843.5156,381.875 Q843.6719,381.6563 843.8594,381.5469 Q844.0469,381.4375 844.2656,381.4375 Q844.6406,381.4375 844.875,381.6953 Q845.1094,381.9531 845.1094,382.5625 L845.1094,384.0156 Q845.1094,384.625 844.875,384.8906 Q844.6406,385.1563 844.2656,385.1563 Q843.9219,385.1563 843.7188,384.9531 Q843.5156,384.7656 843.4063,384.25 Q843.3594,383.8906 843.1719,383.7031 Q842.8438,383.3281 842.2344,383.1094 Q841.625,382.8906 841,382.8906 Q840.2344,382.8906 839.6016,383.2188 Q838.9688,383.5469 838.4766,384.2969 Q837.9844,385.0469 837.9844,386.0781 L837.9844,387.1719 Q837.9844,388.4063 838.875,389.2266 Q839.7656,390.0469 841.3594,390.0469 Q842.2969,390.0469 842.9531,389.7969 Q843.3438,389.6406 843.7656,389.2031 Q844.0313,388.9375 844.1797,388.8594 Q844.3281,388.7813 844.5313,388.7813 Q844.8594,388.7813 845.1172,389.0391 Q845.375,389.2969 845.375,389.6406 Q845.375,389.9844 845.0313,390.3906 Q844.5313,390.9688 843.7344,391.2969 Q842.6563,391.75 841.3594,391.75 Q839.8438,391.75 838.6406,391.125 Q837.6563,390.625 836.9688,389.5547 Q836.2813,388.4844 836.2813,387.2031 L836.2813,386.0469 Q836.2813,384.7188 836.8984,383.5703 Q837.5156,382.4219 838.6094,381.8047 Q839.7031,381.1875 840.9375,381.1875 Q841.6719,381.1875 842.3203,381.3516 Q842.9688,381.5156 843.5156,381.875 Z " fill="#FFFFFF"/><text fill="#FFFFFF" font-family="sans-serif" font-size="14" lengthAdjust="spacing" textLength="40" x="861.25" y="391.7285">Space</text><line style="stroke:#E7E7E7;stroke-width:0.5;" x1="782.5" x2="947.5" y1="402" y2="402"/><rect fill="none" height="6" style="stroke:#A6A6A6;stroke-width:1.0;" width="6" x="789.5" y="413.3047"/><text fill="#FFFFFF" font-family="sans-serif" font-size="14" lengthAdjust="spacing" textLength="120" x="801.5" y="420.5332">boolean availability</text><rect fill="none" height="6" style="stroke:#A6A6A6;stroke-width:1.0;" width="6" x="789.5" y="430.9141"/><text fill="#FFFFFF" font-family="sans-serif" font-size="14" lengthAdjust="spacing" textLength="66" x="801.5" y="438.1426">Mark mark</text><rect fill="none" height="6" style="stroke:#A6A6A6;stroke-width:1.0;" width="6" x="789.5" y="448.5234"/><text fill="#FFFFFF" font-family="sans-serif" font-size="14" lengthAdjust="spacing" textLength="141" x="801.5" y="455.752">Coordinate coordinate</text><line style="stroke:#E7E7E7;stroke-width:0.5;" x1="782.5" x2="947.5" y1="462.8281" y2="462.8281"/></g><!--MD5=[8c7d7abc12e214c3cc12c9ab70edee11]
class Coordinate--><g id="elem_Coordinate"><rect codeLine="64" fill="#0E0E0E" height="100.8281" id="Coordinate" rx="2.5" ry="2.5" style="stroke:#E7E7E7;stroke-width:0.5;" width="263" x="733.5" y="557.5"/><ellipse cx="825.75" cy="573.5" fill="#3D3D3D" rx="11" ry="11" style="stroke:#E7E7E7;stroke-width:1.0;"/><path d="M828.5156,569.375 Q828.6719,569.1563 828.8594,569.0469 Q829.0469,568.9375 829.2656,568.9375 Q829.6406,568.9375 829.875,569.1953 Q830.1094,569.4531 830.1094,570.0625 L830.1094,571.5156 Q830.1094,572.125 829.875,572.3906 Q829.6406,572.6563 829.2656,572.6563 Q828.9219,572.6563 828.7188,572.4531 Q828.5156,572.2656 828.4063,571.75 Q828.3594,571.3906 828.1719,571.2031 Q827.8438,570.8281 827.2344,570.6094 Q826.625,570.3906 826,570.3906 Q825.2344,570.3906 824.6016,570.7188 Q823.9688,571.0469 823.4766,571.7969 Q822.9844,572.5469 822.9844,573.5781 L822.9844,574.6719 Q822.9844,575.9063 823.875,576.7266 Q824.7656,577.5469 826.3594,577.5469 Q827.2969,577.5469 827.9531,577.2969 Q828.3438,577.1406 828.7656,576.7031 Q829.0313,576.4375 829.1797,576.3594 Q829.3281,576.2813 829.5313,576.2813 Q829.8594,576.2813 830.1172,576.5391 Q830.375,576.7969 830.375,577.1406 Q830.375,577.4844 830.0313,577.8906 Q829.5313,578.4688 828.7344,578.7969 Q827.6563,579.25 826.3594,579.25 Q824.8438,579.25 823.6406,578.625 Q822.6563,578.125 821.9688,577.0547 Q821.2813,575.9844 821.2813,574.7031 L821.2813,573.5469 Q821.2813,572.2188 821.8984,571.0703 Q822.5156,569.9219 823.6094,569.3047 Q824.7031,568.6875 825.9375,568.6875 Q826.6719,568.6875 827.3203,568.8516 Q827.9688,569.0156 828.5156,569.375 Z " fill="#FFFFFF"/><text fill="#FFFFFF" font-family="sans-serif" font-size="14" lengthAdjust="spacing" textLength="70" x="846.25" y="579.2285">Coordinate</text><line style="stroke:#E7E7E7;stroke-width:0.5;" x1="734.5" x2="995.5" y1="589.5" y2="589.5"/><rect fill="none" height="6" style="stroke:#A6A6A6;stroke-width:1.0;" width="6" x="741.5" y="600.8047"/><text fill="#FFFFFF" font-family="sans-serif" font-size="14" lengthAdjust="spacing" textLength="76" x="753.5" y="608.0332">int positionX</text><rect fill="none" height="6" style="stroke:#A6A6A6;stroke-width:1.0;" width="6" x="741.5" y="618.4141"/><text fill="#FFFFFF" font-family="sans-serif" font-size="14" lengthAdjust="spacing" textLength="77" x="753.5" y="625.6426">int positionY</text><line style="stroke:#E7E7E7;stroke-width:0.5;" x1="734.5" x2="995.5" y1="632.7188" y2="632.7188"/><ellipse cx="744.5" cy="647.0234" fill="#595959" rx="3" ry="3" style="stroke:#ABABAB;stroke-width:1.0;"/><text fill="#FFFFFF" font-family="sans-serif" font-size="14" lengthAdjust="spacing" textLength="237" x="753.5" y="651.252">Coordinate(int positionX,int positionY)</text></g><!--MD5=[140f0262991170c14649b45d1408dce7]
class Mark--><g id="elem_Mark"><rect codeLine="73" fill="#0E0E0E" height="100.8281" id="Mark" rx="2.5" ry="2.5" style="stroke:#E7E7E7;stroke-width:0.5;" width="63" x="515.5" y="745"/><ellipse cx="530.5" cy="761" fill="#545454" rx="11" ry="11" style="stroke:#E7E7E7;stroke-width:1.0;"/><path d="M529.3594,761.7969 L529.3594,764.2969 L533.6875,764.2969 L533.6875,763.375 Q533.6875,762.7656 533.9297,762.5 Q534.1719,762.2344 534.5469,762.2344 Q534.9219,762.2344 535.1563,762.5 Q535.3906,762.7656 535.3906,763.375 L535.3906,766 L527.3906,766 Q526.7656,766 526.5078,765.7656 Q526.25,765.5313 526.25,765.1406 Q526.25,764.7656 526.5156,764.5313 Q526.7813,764.2969 527.3906,764.2969 L527.6563,764.2969 L527.6563,757.6406 L527.3906,757.6406 Q526.7656,757.6406 526.5078,757.4063 Q526.25,757.1719 526.25,756.7813 Q526.25,756.4063 526.5078,756.1719 Q526.7656,755.9375 527.3906,755.9375 L535.0156,755.9375 L535.0156,758.5313 Q535.0156,759.1406 534.7891,759.3984 Q534.5625,759.6563 534.1719,759.6563 Q533.7969,759.6563 533.5625,759.3984 Q533.3281,759.1406 533.3281,758.5313 L533.3281,757.6406 L529.3594,757.6406 L529.3594,760.0938 L530.8438,760.0938 Q530.8438,759.4375 530.9688,759.25 Q531.2344,758.8438 531.7031,758.8438 Q532.0781,758.8438 532.3125,759.1016 Q532.5469,759.3594 532.5469,759.9688 L532.5469,761.9375 Q532.5469,762.4844 532.4219,762.6719 Q532.1563,763.0625 531.7031,763.0625 Q531.2344,763.0625 530.9688,762.6563 Q530.8438,762.4688 530.8438,761.7969 L529.3594,761.7969 Z " fill="#FFFFFF"/><text fill="#FFFFFF" font-family="sans-serif" font-size="14" lengthAdjust="spacing" textLength="31" x="544.5" y="766.7285">Mark</text><line style="stroke:#E7E7E7;stroke-width:0.5;" x1="516.5" x2="577.5" y1="777" y2="777"/><text fill="#FFFFFF" font-family="sans-serif" font-size="14" lengthAdjust="spacing" textLength="8" x="521.5" y="795.5332">0</text><text fill="#FFFFFF" font-family="sans-serif" font-size="14" lengthAdjust="spacing" textLength="8" x="521.5" y="813.1426">X</text><text fill="#FFFFFF" font-family="sans-serif" font-size="14" lengthAdjust="spacing" textLength="47" x="521.5" y="830.752">EMPTY</text><line style="stroke:#E7E7E7;stroke-width:0.5;" x1="516.5" x2="577.5" y1="837.8281" y2="837.8281"/></g><!--MD5=[cf5572f1e9ebe5a1625b5a168303c174]
link Board to TTTGame--><g id="link_Board_TTTGame"><path codeLine="81" d="M732.77,180.5 C679.32,180.5 625.86,180.5 572.41,180.5 " fill="none" id="Board-to-TTTGame" style="stroke:#E7E7E7;stroke-width:1.0;"/><polygon fill="#E7E7E7" points="559.19,180.5,565.19,184.5,571.19,180.5,565.19,176.5,559.19,180.5" style="stroke:#E7E7E7;stroke-width:1.0;"/></g><!--MD5=[e842eb6168da7c3d23d4a58737904d12]
reverse link TTTGame to Player--><g id="link_TTTGame_Player"><path codeLine="82" d="M338.9,269.84 C304.86,299.37 269.19,333.99 241,370 C200.07,422.29 166.17,490.11 144.22,539.8 " fill="none" id="TTTGame-backto-Player" style="stroke:#E7E7E7;stroke-width:1.0;"/><polygon fill="#E7E7E7" points="348.93,261.25,341.7711,262.116,339.8171,269.0573,346.976,268.1913,348.93,261.25" style="stroke:#E7E7E7;stroke-width:1.0;"/></g><!--MD5=[5ba8528c163db85703f2f96d9a8c8ad7]
reverse link TTTGame to Round--><g id="link_TTTGame_Round"><path codeLine="83" d="M503.22,322.69 C507.22,338.5 510.63,354.49 513,370 C519.78,414.37 519.4,426.57 513,471 C510.16,490.73 505.11,511.59 499.54,530.89 " fill="none" id="TTTGame-backto-Round" style="stroke:#E7E7E7;stroke-width:1.0;"/><polygon fill="#E7E7E7" points="499.89,310.07,497.5517,316.8915,502.9491,321.6735,505.2874,314.8521,499.89,310.07" style="stroke:#E7E7E7;stroke-width:1.0;"/></g><!--MD5=[cddd1e96249049c7fae7104dde718151]
reverse link TTTGame to Statistic--><g id="link_TTTGame_Statistic"><path codeLine="84" d="M408.31,322.71 C401.71,343.14 395.39,362.65 390.19,378.74 " fill="none" id="TTTGame-backto-Statistic" style="stroke:#E7E7E7;stroke-width:1.0;"/><polygon fill="#E7E7E7" points="412.34,310.25,406.6881,314.7284,408.6483,321.668,414.3001,317.1896,412.34,310.25" style="stroke:#E7E7E7;stroke-width:1.0;"/></g><!--MD5=[4992af0640bfca5d575383a64fee00a3]
reverse link Board to Space--><g id="link_Board_Space"><path codeLine="86" d="M863.35,288.57 C863.71,316.87 864.07,346.08 864.37,369.71 " fill="none" id="Board-backto-Space" style="stroke:#E7E7E7;stroke-width:1.0;"/><polygon fill="#E7E7E7" points="863.18,275.22,859.2595,281.2723,863.3384,287.219,867.2589,281.1667,863.18,275.22" style="stroke:#E7E7E7;stroke-width:1.0;"/></g><!--MD5=[f1909494aa7f1c858573c50b3713f78d]
reverse link Space to Coordinate--><g id="link_Space_Coordinate"><path codeLine="88" d="M865,484.47 C865,508.3 865,535.06 865,557.47 " fill="none" id="Space-backto-Coordinate" style="stroke:#E7E7E7;stroke-width:1.0;"/><polygon fill="#E7E7E7" points="865,471.21,861,477.21,865,483.21,869,477.21,865,471.21" style="stroke:#E7E7E7;stroke-width:1.0;"/></g><!--MD5=[e15543f5ff9aff0daf07ed30621afcbc]
reverse link Board to Round--><g id="link_Board_Round"><path codeLine="90" d="M772.66,279.22 C702.71,355.74 606.8,460.64 542.51,530.97 " fill="none" id="Board-backto-Round" style="stroke:#E7E7E7;stroke-width:1.0;"/><polygon fill="#E7E7E7" points="776.39,275.14,767.364,279.081,773.0153,278.8293,773.2669,284.4806,776.39,275.14" style="stroke:#E7E7E7;stroke-width:1.0;"/></g><!--MD5=[015547f7ddbd9564a38749abc8e7406b]
link Round to Player--><g id="link_Round_Player"><path codeLine="91" d="M247.4,608 C237.42,608 227.45,608 217.47,608 " fill="none" id="Round-to-Player" style="stroke:#E7E7E7;stroke-width:1.0;"/><polygon fill="#E7E7E7" points="212.26,608,221.26,612,217.26,608,221.26,604,212.26,608" style="stroke:#E7E7E7;stroke-width:1.0;"/></g><!--MD5=[debfab0a067a91381be9588d32e751d3]
link Statistic to Round--><g id="link_Statistic_Round"><path codeLine="93" d="M398.07,462.21 C407.81,481.03 419.73,504.07 431.18,526.19 " fill="none" id="Statistic-to-Round" style="stroke:#E7E7E7;stroke-width:1.0;"/><polygon fill="#E7E7E7" points="433.62,530.9,433.0346,521.0686,431.3213,526.4597,425.9302,524.7464,433.62,530.9" style="stroke:#E7E7E7;stroke-width:1.0;"/></g><!--MD5=[da1c7d234e4a1b3c4e4869a83f583945]
link Player to Mark--><g id="link_Player_Mark"><path codeLine="95" d="M212.14,675.44 C218.09,678.83 224.08,682.05 230,685 C326.81,733.25 450.06,769.14 510.38,785.19 " fill="none" id="Player-to-Mark" style="stroke:#E7E7E7;stroke-width:1.0;"/><polygon fill="#E7E7E7" points="515.32,786.5,507.6352,780.3401,510.4848,785.2268,505.5981,788.0764,515.32,786.5" style="stroke:#E7E7E7;stroke-width:1.0;"/></g><!--MD5=[e8809bb5d78cb3454f9368284c31c969]
link Space to Mark--><g id="link_Space_Mark"><path codeLine="96" d="M948.58,462.8 C974.37,480.07 999.72,502.79 1014,531 C1044.91,592.07 1056.52,631.36 1014,685 C960.13,752.96 684.81,782.82 584.03,791.59 " fill="none" id="Space-to-Mark" style="stroke:#E7E7E7;stroke-width:1.0;"/><polygon fill="#E7E7E7" points="578.79,792.04,588.1003,795.2522,583.7715,791.6106,587.4132,787.2818,578.79,792.04" style="stroke:#E7E7E7;stroke-width:1.0;"/></g><!--MD5=[d8b76425d8a911db10aae01b6d3c4c65]
@startuml ClassModel

skinparam monochrome reverse

package tictactoe{
    class TTTGame{
        -Board board
        -Round round
        -Statistic statistic
        -Player player1
        -Player player2
        -ArrayList<Player> playersList

        +void setup()
        +void execute()
        +void statistics()
        -void addPlayer()
        -void selectPlayer()
        -Player searchPlayer()
    }

    class Player{
        -int id
        -String name
        -Mark mark

        +Player(int id, String name)
        +void putPiece()
    }

    class Round{
        -Board board
        -Player player1
        -Player player2
        -Statistic statistic

        +Round(Board board,Player player1,Player player2,Statistic statistic)
        +void executeRounds()
    }

    class Statistic{
        -ArrayList<String> statistics

        +void addStatistic(String message)
    }

    package board{
        class Board{
            -int dimensions
            -Space[] space

            +Board(int dimensions,Space[] space)
            +void paint
            +void validateChoice
            +void verifyChoiceExistence
            +void determineWinner
        }

        class Space{
            -boolean availability
            -Mark mark
            -Coordinate coordinate
        }

        class Coordinate{
            -int positionX
            -int positionY

            +Coordinate(int positionX,int positionY)
        }
    }

    package utils{
        enum Mark{
            0
            X
            EMPTY
        }
    }
}

TTTGame *-left- Board
TTTGame *- - Player
TTTGame *- - Round
TTTGame *- - Statistic

Board *- - Space

Space *- - Coordinate

Round -left-> Board
Round -right-> Player

Statistic - -> Round

Player - -> Mark
Space - -> Mark

@enduml

PlantUML version 1.2022.7(Mon Aug 22 11:01:30 CST 2022)
(GPL source distribution)
Java Runtime: Java(TM) SE Runtime Environment
JVM: Java HotSpot(TM) 64-Bit Server VM
Default Encoding: Cp1252
Language: en
Country: US
--></g></svg>