<?xml version="1.0" encoding="UTF-8" standalone="no"?><svg xmlns="http://www.w3.org/2000/svg" xmlns:xlink="http://www.w3.org/1999/xlink" contentStyleType="text/css" height="808px" preserveAspectRatio="none" style="width:1060px;height:808px;background:#000000;" version="1.1" viewBox="0 0 1060 808" width="1060px" zoomAndPan="magnify"><defs/><g><!--MD5=[b0e855d727d302fa2279e2e841d3d1a8]
class TTTGame--><g id="elem_TTTGame"><rect codeLine="4" fill="#0E0E0E" height="259.3125" id="TTTGame" rx="2.5" ry="2.5" style="stroke:#E7E7E7;stroke-width:0.5;" width="210" x="669.5" y="7"/><ellipse cx="737.75" cy="23" fill="#3D3D3D" rx="11" ry="11" style="stroke:#E7E7E7;stroke-width:1.0;"/><path d="M740.5156,18.875 Q740.6719,18.6563 740.8594,18.5469 Q741.0469,18.4375 741.2656,18.4375 Q741.6406,18.4375 741.875,18.6953 Q742.1094,18.9531 742.1094,19.5625 L742.1094,21.0156 Q742.1094,21.625 741.875,21.8906 Q741.6406,22.1563 741.2656,22.1563 Q740.9219,22.1563 740.7188,21.9531 Q740.5156,21.7656 740.4063,21.25 Q740.3594,20.8906 740.1719,20.7031 Q739.8438,20.3281 739.2344,20.1094 Q738.625,19.8906 738,19.8906 Q737.2344,19.8906 736.6016,20.2188 Q735.9688,20.5469 735.4766,21.2969 Q734.9844,22.0469 734.9844,23.0781 L734.9844,24.1719 Q734.9844,25.4063 735.875,26.2266 Q736.7656,27.0469 738.3594,27.0469 Q739.2969,27.0469 739.9531,26.7969 Q740.3438,26.6406 740.7656,26.2031 Q741.0313,25.9375 741.1797,25.8594 Q741.3281,25.7813 741.5313,25.7813 Q741.8594,25.7813 742.1172,26.0391 Q742.375,26.2969 742.375,26.6406 Q742.375,26.9844 742.0313,27.3906 Q741.5313,27.9688 740.7344,28.2969 Q739.6563,28.75 738.3594,28.75 Q736.8438,28.75 735.6406,28.125 Q734.6563,27.625 733.9688,26.5547 Q733.2813,25.4844 733.2813,24.2031 L733.2813,23.0469 Q733.2813,21.7188 733.8984,20.5703 Q734.5156,19.4219 735.6094,18.8047 Q736.7031,18.1875 737.9375,18.1875 Q738.6719,18.1875 739.3203,18.3516 Q739.9688,18.5156 740.5156,18.875 Z " fill="#FFFFFF"/><text fill="#FFFFFF" font-family="sans-serif" font-size="14" lengthAdjust="spacing" textLength="65" x="758.25" y="28.7285">TTTGame</text><line style="stroke:#E7E7E7;stroke-width:0.5;" x1="670.5" x2="878.5" y1="39" y2="39"/><rect fill="none" height="6" style="stroke:#A6A6A6;stroke-width:1.0;" width="6" x="677.5" y="50.3047"/><text fill="#FFFFFF" font-family="sans-serif" font-size="14" lengthAdjust="spacing" textLength="79" x="689.5" y="57.5332">Board board</text><rect fill="none" height="6" style="stroke:#A6A6A6;stroke-width:1.0;" width="6" x="677.5" y="67.9141"/><text fill="#FFFFFF" font-family="sans-serif" font-size="14" lengthAdjust="spacing" textLength="83" x="689.5" y="75.1426">Round round</text><rect fill="none" height="6" style="stroke:#A6A6A6;stroke-width:1.0;" width="6" x="677.5" y="85.5234"/><text fill="#FFFFFF" font-family="sans-serif" font-size="14" lengthAdjust="spacing" textLength="100" x="689.5" y="92.752">Statistic statistic</text><rect fill="none" height="6" style="stroke:#A6A6A6;stroke-width:1.0;" width="6" x="677.5" y="103.1328"/><text fill="#FFFFFF" font-family="sans-serif" font-size="14" lengthAdjust="spacing" textLength="91" x="689.5" y="110.3613">Player player1</text><rect fill="none" height="6" style="stroke:#A6A6A6;stroke-width:1.0;" width="6" x="677.5" y="120.7422"/><text fill="#FFFFFF" font-family="sans-serif" font-size="14" lengthAdjust="spacing" textLength="91" x="689.5" y="127.9707">Player player2</text><rect fill="none" height="6" style="stroke:#A6A6A6;stroke-width:1.0;" width="6" x="677.5" y="138.3516"/><text fill="#FFFFFF" font-family="sans-serif" font-size="14" lengthAdjust="spacing" textLength="184" x="689.5" y="145.5801">ArrayList&lt;Player&gt; playersList</text><line style="stroke:#E7E7E7;stroke-width:0.5;" x1="670.5" x2="878.5" y1="152.6563" y2="152.6563"/><ellipse cx="680.5" cy="166.9609" fill="#595959" rx="3" ry="3" style="stroke:#ABABAB;stroke-width:1.0;"/><text fill="#FFFFFF" font-family="sans-serif" font-size="14" lengthAdjust="spacing" textLength="75" x="689.5" y="171.1895">void setup()</text><ellipse cx="680.5" cy="184.5703" fill="#595959" rx="3" ry="3" style="stroke:#ABABAB;stroke-width:1.0;"/><text fill="#FFFFFF" font-family="sans-serif" font-size="14" lengthAdjust="spacing" textLength="89" x="689.5" y="188.7988">void execute()</text><ellipse cx="680.5" cy="202.1797" fill="#595959" rx="3" ry="3" style="stroke:#ABABAB;stroke-width:1.0;"/><text fill="#FFFFFF" font-family="sans-serif" font-size="14" lengthAdjust="spacing" textLength="94" x="689.5" y="206.4082">void statistics()</text><rect fill="#7F7F7F" height="6" style="stroke:#A6A6A6;stroke-width:1.0;" width="6" x="677.5" y="216.7891"/><text fill="#FFFFFF" font-family="sans-serif" font-size="14" lengthAdjust="spacing" textLength="104" x="689.5" y="224.0176">void addPlayer()</text><rect fill="#7F7F7F" height="6" style="stroke:#A6A6A6;stroke-width:1.0;" width="6" x="677.5" y="234.3984"/><text fill="#FFFFFF" font-family="sans-serif" font-size="14" lengthAdjust="spacing" textLength="117" x="689.5" y="241.627">void selectPlayer()</text><rect fill="#7F7F7F" height="6" style="stroke:#A6A6A6;stroke-width:1.0;" width="6" x="677.5" y="252.0078"/><text fill="#FFFFFF" font-family="sans-serif" font-size="14" lengthAdjust="spacing" textLength="137" x="689.5" y="259.2363">Player searchPlayer()</text></g><!--MD5=[9563755d011c5cec7ec66dc53565a59e]
class Board--><g id="elem_Board"><rect codeLine="20" fill="#0E0E0E" height="188.875" id="Board" rx="2.5" ry="2.5" style="stroke:#E7E7E7;stroke-width:0.5;" width="258" x="376.5" y="42"/><ellipse cx="482.25" cy="58" fill="#3D3D3D" rx="11" ry="11" style="stroke:#E7E7E7;stroke-width:1.0;"/><path d="M485.0156,53.875 Q485.1719,53.6563 485.3594,53.5469 Q485.5469,53.4375 485.7656,53.4375 Q486.1406,53.4375 486.375,53.6953 Q486.6094,53.9531 486.6094,54.5625 L486.6094,56.0156 Q486.6094,56.625 486.375,56.8906 Q486.1406,57.1563 485.7656,57.1563 Q485.4219,57.1563 485.2188,56.9531 Q485.0156,56.7656 484.9063,56.25 Q484.8594,55.8906 484.6719,55.7031 Q484.3438,55.3281 483.7344,55.1094 Q483.125,54.8906 482.5,54.8906 Q481.7344,54.8906 481.1016,55.2188 Q480.4688,55.5469 479.9766,56.2969 Q479.4844,57.0469 479.4844,58.0781 L479.4844,59.1719 Q479.4844,60.4063 480.375,61.2266 Q481.2656,62.0469 482.8594,62.0469 Q483.7969,62.0469 484.4531,61.7969 Q484.8438,61.6406 485.2656,61.2031 Q485.5313,60.9375 485.6797,60.8594 Q485.8281,60.7813 486.0313,60.7813 Q486.3594,60.7813 486.6172,61.0391 Q486.875,61.2969 486.875,61.6406 Q486.875,61.9844 486.5313,62.3906 Q486.0313,62.9688 485.2344,63.2969 Q484.1563,63.75 482.8594,63.75 Q481.3438,63.75 480.1406,63.125 Q479.1563,62.625 478.4688,61.5547 Q477.7813,60.4844 477.7813,59.2031 L477.7813,58.0469 Q477.7813,56.7188 478.3984,55.5703 Q479.0156,54.4219 480.1094,53.8047 Q481.2031,53.1875 482.4375,53.1875 Q483.1719,53.1875 483.8203,53.3516 Q484.4688,53.5156 485.0156,53.875 Z " fill="#FFFFFF"/><text fill="#FFFFFF" font-family="sans-serif" font-size="14" lengthAdjust="spacing" textLength="38" x="502.75" y="63.7285">Board</text><line style="stroke:#E7E7E7;stroke-width:0.5;" x1="377.5" x2="633.5" y1="74" y2="74"/><rect fill="none" height="6" style="stroke:#A6A6A6;stroke-width:1.0;" width="6" x="384.5" y="85.3047"/><text fill="#FFFFFF" font-family="sans-serif" font-size="14" lengthAdjust="spacing" textLength="90" x="396.5" y="92.5332">int dimensions</text><rect fill="none" height="6" style="stroke:#A6A6A6;stroke-width:1.0;" width="6" x="384.5" y="102.9141"/><text fill="#FFFFFF" font-family="sans-serif" font-size="14" lengthAdjust="spacing" textLength="90" x="396.5" y="110.1426">Space[] space</text><text fill="#FFFFFF" font-family="sans-serif" font-size="14" lengthAdjust="spacing" textLength="4" x="396.5" y="127.752"> </text><ellipse cx="387.5" cy="141.1328" fill="none" rx="3" ry="3" style="stroke:#ABABAB;stroke-width:1.0;"/><text fill="#FFFFFF" font-family="sans-serif" font-size="14" lengthAdjust="spacing" textLength="61" x="396.5" y="145.3613">void paint</text><ellipse cx="387.5" cy="158.7422" fill="none" rx="3" ry="3" style="stroke:#ABABAB;stroke-width:1.0;"/><text fill="#FFFFFF" font-family="sans-serif" font-size="14" lengthAdjust="spacing" textLength="123" x="396.5" y="162.9707">void validateChoice</text><ellipse cx="387.5" cy="176.3516" fill="none" rx="3" ry="3" style="stroke:#ABABAB;stroke-width:1.0;"/><text fill="#FFFFFF" font-family="sans-serif" font-size="14" lengthAdjust="spacing" textLength="168" x="396.5" y="180.5801">void verifyChoiceExistence</text><ellipse cx="387.5" cy="193.9609" fill="none" rx="3" ry="3" style="stroke:#ABABAB;stroke-width:1.0;"/><text fill="#FFFFFF" font-family="sans-serif" font-size="14" lengthAdjust="spacing" textLength="138" x="396.5" y="198.1895">void determineWinner</text><line style="stroke:#E7E7E7;stroke-width:0.5;" x1="377.5" x2="633.5" y1="205.2656" y2="205.2656"/><ellipse cx="387.5" cy="219.5703" fill="#595959" rx="3" ry="3" style="stroke:#ABABAB;stroke-width:1.0;"/><text fill="#FFFFFF" font-family="sans-serif" font-size="14" lengthAdjust="spacing" textLength="232" x="396.5" y="223.7988">Board(int dimensions,Space[] space)</text></g><!--MD5=[e4951a412b0edb2e6f8e49ce06f9a46d]
class Space--><g id="elem_Space"><rect codeLine="31" fill="#0E0E0E" height="100.8281" id="Space" rx="2.5" ry="2.5" style="stroke:#E7E7E7;stroke-width:0.5;" width="167" x="240" y="326"/><ellipse cx="299.25" cy="342" fill="#3D3D3D" rx="11" ry="11" style="stroke:#E7E7E7;stroke-width:1.0;"/><path d="M302.0156,337.875 Q302.1719,337.6563 302.3594,337.5469 Q302.5469,337.4375 302.7656,337.4375 Q303.1406,337.4375 303.375,337.6953 Q303.6094,337.9531 303.6094,338.5625 L303.6094,340.0156 Q303.6094,340.625 303.375,340.8906 Q303.1406,341.1563 302.7656,341.1563 Q302.4219,341.1563 302.2188,340.9531 Q302.0156,340.7656 301.9063,340.25 Q301.8594,339.8906 301.6719,339.7031 Q301.3438,339.3281 300.7344,339.1094 Q300.125,338.8906 299.5,338.8906 Q298.7344,338.8906 298.1016,339.2188 Q297.4688,339.5469 296.9766,340.2969 Q296.4844,341.0469 296.4844,342.0781 L296.4844,343.1719 Q296.4844,344.4063 297.375,345.2266 Q298.2656,346.0469 299.8594,346.0469 Q300.7969,346.0469 301.4531,345.7969 Q301.8438,345.6406 302.2656,345.2031 Q302.5313,344.9375 302.6797,344.8594 Q302.8281,344.7813 303.0313,344.7813 Q303.3594,344.7813 303.6172,345.0391 Q303.875,345.2969 303.875,345.6406 Q303.875,345.9844 303.5313,346.3906 Q303.0313,346.9688 302.2344,347.2969 Q301.1563,347.75 299.8594,347.75 Q298.3438,347.75 297.1406,347.125 Q296.1563,346.625 295.4688,345.5547 Q294.7813,344.4844 294.7813,343.2031 L294.7813,342.0469 Q294.7813,340.7188 295.3984,339.5703 Q296.0156,338.4219 297.1094,337.8047 Q298.2031,337.1875 299.4375,337.1875 Q300.1719,337.1875 300.8203,337.3516 Q301.4688,337.5156 302.0156,337.875 Z " fill="#FFFFFF"/><text fill="#FFFFFF" font-family="sans-serif" font-size="14" lengthAdjust="spacing" textLength="40" x="319.75" y="347.7285">Space</text><line style="stroke:#E7E7E7;stroke-width:0.5;" x1="241" x2="406" y1="358" y2="358"/><rect fill="none" height="6" style="stroke:#A6A6A6;stroke-width:1.0;" width="6" x="248" y="369.3047"/><text fill="#FFFFFF" font-family="sans-serif" font-size="14" lengthAdjust="spacing" textLength="120" x="260" y="376.5332">boolean availability</text><rect fill="none" height="6" style="stroke:#A6A6A6;stroke-width:1.0;" width="6" x="248" y="386.9141"/><text fill="#FFFFFF" font-family="sans-serif" font-size="14" lengthAdjust="spacing" textLength="66" x="260" y="394.1426">Mark mark</text><rect fill="none" height="6" style="stroke:#A6A6A6;stroke-width:1.0;" width="6" x="248" y="404.5234"/><text fill="#FFFFFF" font-family="sans-serif" font-size="14" lengthAdjust="spacing" textLength="141" x="260" y="411.752">Coordinate coordinate</text><line style="stroke:#E7E7E7;stroke-width:0.5;" x1="241" x2="406" y1="418.8281" y2="418.8281"/></g><!--MD5=[8c7d7abc12e214c3cc12c9ab70edee11]
class Coordinate--><g id="elem_Coordinate"><rect codeLine="37" fill="#0E0E0E" height="100.8281" id="Coordinate" rx="2.5" ry="2.5" style="stroke:#E7E7E7;stroke-width:0.5;" width="263" x="7" y="513.5"/><ellipse cx="99.25" cy="529.5" fill="#3D3D3D" rx="11" ry="11" style="stroke:#E7E7E7;stroke-width:1.0;"/><path d="M102.0156,525.375 Q102.1719,525.1563 102.3594,525.0469 Q102.5469,524.9375 102.7656,524.9375 Q103.1406,524.9375 103.375,525.1953 Q103.6094,525.4531 103.6094,526.0625 L103.6094,527.5156 Q103.6094,528.125 103.375,528.3906 Q103.1406,528.6563 102.7656,528.6563 Q102.4219,528.6563 102.2188,528.4531 Q102.0156,528.2656 101.9063,527.75 Q101.8594,527.3906 101.6719,527.2031 Q101.3438,526.8281 100.7344,526.6094 Q100.125,526.3906 99.5,526.3906 Q98.7344,526.3906 98.1016,526.7188 Q97.4688,527.0469 96.9766,527.7969 Q96.4844,528.5469 96.4844,529.5781 L96.4844,530.6719 Q96.4844,531.9063 97.375,532.7266 Q98.2656,533.5469 99.8594,533.5469 Q100.7969,533.5469 101.4531,533.2969 Q101.8438,533.1406 102.2656,532.7031 Q102.5313,532.4375 102.6797,532.3594 Q102.8281,532.2813 103.0313,532.2813 Q103.3594,532.2813 103.6172,532.5391 Q103.875,532.7969 103.875,533.1406 Q103.875,533.4844 103.5313,533.8906 Q103.0313,534.4688 102.2344,534.7969 Q101.1563,535.25 99.8594,535.25 Q98.3438,535.25 97.1406,534.625 Q96.1563,534.125 95.4688,533.0547 Q94.7813,531.9844 94.7813,530.7031 L94.7813,529.5469 Q94.7813,528.2188 95.3984,527.0703 Q96.0156,525.9219 97.1094,525.3047 Q98.2031,524.6875 99.4375,524.6875 Q100.1719,524.6875 100.8203,524.8516 Q101.4688,525.0156 102.0156,525.375 Z " fill="#FFFFFF"/><text fill="#FFFFFF" font-family="sans-serif" font-size="14" lengthAdjust="spacing" textLength="70" x="119.75" y="535.2285">Coordinate</text><line style="stroke:#E7E7E7;stroke-width:0.5;" x1="8" x2="269" y1="545.5" y2="545.5"/><rect fill="none" height="6" style="stroke:#A6A6A6;stroke-width:1.0;" width="6" x="15" y="556.8047"/><text fill="#FFFFFF" font-family="sans-serif" font-size="14" lengthAdjust="spacing" textLength="76" x="27" y="564.0332">int positionX</text><rect fill="none" height="6" style="stroke:#A6A6A6;stroke-width:1.0;" width="6" x="15" y="574.4141"/><text fill="#FFFFFF" font-family="sans-serif" font-size="14" lengthAdjust="spacing" textLength="77" x="27" y="581.6426">int positionY</text><line style="stroke:#E7E7E7;stroke-width:0.5;" x1="8" x2="269" y1="588.7188" y2="588.7188"/><ellipse cx="18" cy="603.0234" fill="#595959" rx="3" ry="3" style="stroke:#ABABAB;stroke-width:1.0;"/><text fill="#FFFFFF" font-family="sans-serif" font-size="14" lengthAdjust="spacing" textLength="237" x="27" y="607.252">Coordinate(int positionX,int positionY)</text></g><!--MD5=[140f0262991170c14649b45d1408dce7]
class Mark--><g id="elem_Mark"><rect codeLine="44" fill="#0E0E0E" height="100.8281" id="Mark" rx="2.5" ry="2.5" style="stroke:#E7E7E7;stroke-width:0.5;" width="63" x="609" y="701"/><ellipse cx="624" cy="717" fill="#545454" rx="11" ry="11" style="stroke:#E7E7E7;stroke-width:1.0;"/><path d="M622.8594,717.7969 L622.8594,720.2969 L627.1875,720.2969 L627.1875,719.375 Q627.1875,718.7656 627.4297,718.5 Q627.6719,718.2344 628.0469,718.2344 Q628.4219,718.2344 628.6563,718.5 Q628.8906,718.7656 628.8906,719.375 L628.8906,722 L620.8906,722 Q620.2656,722 620.0078,721.7656 Q619.75,721.5313 619.75,721.1406 Q619.75,720.7656 620.0156,720.5313 Q620.2813,720.2969 620.8906,720.2969 L621.1563,720.2969 L621.1563,713.6406 L620.8906,713.6406 Q620.2656,713.6406 620.0078,713.4063 Q619.75,713.1719 619.75,712.7813 Q619.75,712.4063 620.0078,712.1719 Q620.2656,711.9375 620.8906,711.9375 L628.5156,711.9375 L628.5156,714.5313 Q628.5156,715.1406 628.2891,715.3984 Q628.0625,715.6563 627.6719,715.6563 Q627.2969,715.6563 627.0625,715.3984 Q626.8281,715.1406 626.8281,714.5313 L626.8281,713.6406 L622.8594,713.6406 L622.8594,716.0938 L624.3438,716.0938 Q624.3438,715.4375 624.4688,715.25 Q624.7344,714.8438 625.2031,714.8438 Q625.5781,714.8438 625.8125,715.1016 Q626.0469,715.3594 626.0469,715.9688 L626.0469,717.9375 Q626.0469,718.4844 625.9219,718.6719 Q625.6563,719.0625 625.2031,719.0625 Q624.7344,719.0625 624.4688,718.6563 Q624.3438,718.4688 624.3438,717.7969 L622.8594,717.7969 Z " fill="#FFFFFF"/><text fill="#FFFFFF" font-family="sans-serif" font-size="14" lengthAdjust="spacing" textLength="31" x="638" y="722.7285">Mark</text><line style="stroke:#E7E7E7;stroke-width:0.5;" x1="610" x2="671" y1="733" y2="733"/><text fill="#FFFFFF" font-family="sans-serif" font-size="14" lengthAdjust="spacing" textLength="8" x="615" y="751.5332">0</text><text fill="#FFFFFF" font-family="sans-serif" font-size="14" lengthAdjust="spacing" textLength="8" x="615" y="769.1426">X</text><text fill="#FFFFFF" font-family="sans-serif" font-size="14" lengthAdjust="spacing" textLength="47" x="615" y="786.752">EMPTY</text><line style="stroke:#E7E7E7;stroke-width:0.5;" x1="610" x2="671" y1="793.8281" y2="793.8281"/></g><!--MD5=[2cb47ba637a0d19583e6199456f6ad0b]
class Player--><g id="elem_Player"><rect codeLine="50" fill="#0E0E0E" height="136.0469" id="Player" rx="2.5" ry="2.5" style="stroke:#E7E7E7;stroke-width:0.5;" width="190" x="863.5" y="496"/><ellipse cx="934.25" cy="512" fill="#3D3D3D" rx="11" ry="11" style="stroke:#E7E7E7;stroke-width:1.0;"/><path d="M937.0156,507.875 Q937.1719,507.6563 937.3594,507.5469 Q937.5469,507.4375 937.7656,507.4375 Q938.1406,507.4375 938.375,507.6953 Q938.6094,507.9531 938.6094,508.5625 L938.6094,510.0156 Q938.6094,510.625 938.375,510.8906 Q938.1406,511.1563 937.7656,511.1563 Q937.4219,511.1563 937.2188,510.9531 Q937.0156,510.7656 936.9063,510.25 Q936.8594,509.8906 936.6719,509.7031 Q936.3438,509.3281 935.7344,509.1094 Q935.125,508.8906 934.5,508.8906 Q933.7344,508.8906 933.1016,509.2188 Q932.4688,509.5469 931.9766,510.2969 Q931.4844,511.0469 931.4844,512.0781 L931.4844,513.1719 Q931.4844,514.4063 932.375,515.2266 Q933.2656,516.0469 934.8594,516.0469 Q935.7969,516.0469 936.4531,515.7969 Q936.8438,515.6406 937.2656,515.2031 Q937.5313,514.9375 937.6797,514.8594 Q937.8281,514.7813 938.0313,514.7813 Q938.3594,514.7813 938.6172,515.0391 Q938.875,515.2969 938.875,515.6406 Q938.875,515.9844 938.5313,516.3906 Q938.0313,516.9688 937.2344,517.2969 Q936.1563,517.75 934.8594,517.75 Q933.3438,517.75 932.1406,517.125 Q931.1563,516.625 930.4688,515.5547 Q929.7813,514.4844 929.7813,513.2031 L929.7813,512.0469 Q929.7813,510.7188 930.3984,509.5703 Q931.0156,508.4219 932.1094,507.8047 Q933.2031,507.1875 934.4375,507.1875 Q935.1719,507.1875 935.8203,507.3516 Q936.4688,507.5156 937.0156,507.875 Z " fill="#FFFFFF"/><text fill="#FFFFFF" font-family="sans-serif" font-size="14" lengthAdjust="spacing" textLength="40" x="954.75" y="517.7285">Player</text><line style="stroke:#E7E7E7;stroke-width:0.5;" x1="864.5" x2="1052.5" y1="528" y2="528"/><rect fill="none" height="6" style="stroke:#A6A6A6;stroke-width:1.0;" width="6" x="871.5" y="539.3047"/><text fill="#FFFFFF" font-family="sans-serif" font-size="14" lengthAdjust="spacing" textLength="30" x="883.5" y="546.5332">int id</text><rect fill="none" height="6" style="stroke:#A6A6A6;stroke-width:1.0;" width="6" x="871.5" y="556.9141"/><text fill="#FFFFFF" font-family="sans-serif" font-size="14" lengthAdjust="spacing" textLength="76" x="883.5" y="564.1426">String name</text><rect fill="none" height="6" style="stroke:#A6A6A6;stroke-width:1.0;" width="6" x="871.5" y="574.5234"/><text fill="#FFFFFF" font-family="sans-serif" font-size="14" lengthAdjust="spacing" textLength="66" x="883.5" y="581.752">Mark mark</text><line style="stroke:#E7E7E7;stroke-width:0.5;" x1="864.5" x2="1052.5" y1="588.8281" y2="588.8281"/><ellipse cx="874.5" cy="603.1328" fill="#595959" rx="3" ry="3" style="stroke:#ABABAB;stroke-width:1.0;"/><text fill="#FFFFFF" font-family="sans-serif" font-size="14" lengthAdjust="spacing" textLength="164" x="883.5" y="607.3613">Player(int id, String name)</text><ellipse cx="874.5" cy="620.7422" fill="#595959" rx="3" ry="3" style="stroke:#ABABAB;stroke-width:1.0;"/><text fill="#FFFFFF" font-family="sans-serif" font-size="14" lengthAdjust="spacing" textLength="95" x="883.5" y="624.9707">void putPiece()</text></g><!--MD5=[d75b0a238b734941260681f0026bbb88]
class Round--><g id="elem_Round"><rect codeLine="59" fill="#0E0E0E" height="153.6563" id="Round" rx="2.5" ry="2.5" style="stroke:#E7E7E7;stroke-width:0.5;" width="451" x="377" y="487"/><ellipse cx="577.25" cy="503" fill="#3D3D3D" rx="11" ry="11" style="stroke:#E7E7E7;stroke-width:1.0;"/><path d="M580.0156,498.875 Q580.1719,498.6563 580.3594,498.5469 Q580.5469,498.4375 580.7656,498.4375 Q581.1406,498.4375 581.375,498.6953 Q581.6094,498.9531 581.6094,499.5625 L581.6094,501.0156 Q581.6094,501.625 581.375,501.8906 Q581.1406,502.1563 580.7656,502.1563 Q580.4219,502.1563 580.2188,501.9531 Q580.0156,501.7656 579.9063,501.25 Q579.8594,500.8906 579.6719,500.7031 Q579.3438,500.3281 578.7344,500.1094 Q578.125,499.8906 577.5,499.8906 Q576.7344,499.8906 576.1016,500.2188 Q575.4688,500.5469 574.9766,501.2969 Q574.4844,502.0469 574.4844,503.0781 L574.4844,504.1719 Q574.4844,505.4063 575.375,506.2266 Q576.2656,507.0469 577.8594,507.0469 Q578.7969,507.0469 579.4531,506.7969 Q579.8438,506.6406 580.2656,506.2031 Q580.5313,505.9375 580.6797,505.8594 Q580.8281,505.7813 581.0313,505.7813 Q581.3594,505.7813 581.6172,506.0391 Q581.875,506.2969 581.875,506.6406 Q581.875,506.9844 581.5313,507.3906 Q581.0313,507.9688 580.2344,508.2969 Q579.1563,508.75 577.8594,508.75 Q576.3438,508.75 575.1406,508.125 Q574.1563,507.625 573.4688,506.5547 Q572.7813,505.4844 572.7813,504.2031 L572.7813,503.0469 Q572.7813,501.7188 573.3984,500.5703 Q574.0156,499.4219 575.1094,498.8047 Q576.2031,498.1875 577.4375,498.1875 Q578.1719,498.1875 578.8203,498.3516 Q579.4688,498.5156 580.0156,498.875 Z " fill="#FFFFFF"/><text fill="#FFFFFF" font-family="sans-serif" font-size="14" lengthAdjust="spacing" textLength="42" x="597.75" y="508.7285">Round</text><line style="stroke:#E7E7E7;stroke-width:0.5;" x1="378" x2="827" y1="519" y2="519"/><rect fill="none" height="6" style="stroke:#A6A6A6;stroke-width:1.0;" width="6" x="385" y="530.3047"/><text fill="#FFFFFF" font-family="sans-serif" font-size="14" lengthAdjust="spacing" textLength="79" x="397" y="537.5332">Board board</text><rect fill="none" height="6" style="stroke:#A6A6A6;stroke-width:1.0;" width="6" x="385" y="547.9141"/><text fill="#FFFFFF" font-family="sans-serif" font-size="14" lengthAdjust="spacing" textLength="91" x="397" y="555.1426">Player player1</text><rect fill="none" height="6" style="stroke:#A6A6A6;stroke-width:1.0;" width="6" x="385" y="565.5234"/><text fill="#FFFFFF" font-family="sans-serif" font-size="14" lengthAdjust="spacing" textLength="91" x="397" y="572.752">Player player2</text><rect fill="none" height="6" style="stroke:#A6A6A6;stroke-width:1.0;" width="6" x="385" y="583.1328"/><text fill="#FFFFFF" font-family="sans-serif" font-size="14" lengthAdjust="spacing" textLength="100" x="397" y="590.3613">Statistic statistic</text><line style="stroke:#E7E7E7;stroke-width:0.5;" x1="378" x2="827" y1="597.4375" y2="597.4375"/><ellipse cx="388" cy="611.7422" fill="#595959" rx="3" ry="3" style="stroke:#ABABAB;stroke-width:1.0;"/><text fill="#FFFFFF" font-family="sans-serif" font-size="14" lengthAdjust="spacing" textLength="425" x="397" y="615.9707">Round(Board board,Player player1,Player player2,Statistic statistic)</text><ellipse cx="388" cy="629.3516" fill="#595959" rx="3" ry="3" style="stroke:#ABABAB;stroke-width:1.0;"/><text fill="#FFFFFF" font-family="sans-serif" font-size="14" lengthAdjust="spacing" textLength="138" x="397" y="633.5801">void executeRounds()</text></g><!--MD5=[2e75c5381830ed69fc62cd395939a1b2]
class Statistic--><g id="elem_Statistic"><rect codeLine="69" fill="#0E0E0E" height="83.2188" id="Statistic" rx="2.5" ry="2.5" style="stroke:#E7E7E7;stroke-width:0.5;" width="237" x="656" y="335"/><ellipse cx="745.75" cy="351" fill="#3D3D3D" rx="11" ry="11" style="stroke:#E7E7E7;stroke-width:1.0;"/><path d="M748.5156,346.875 Q748.6719,346.6563 748.8594,346.5469 Q749.0469,346.4375 749.2656,346.4375 Q749.6406,346.4375 749.875,346.6953 Q750.1094,346.9531 750.1094,347.5625 L750.1094,349.0156 Q750.1094,349.625 749.875,349.8906 Q749.6406,350.1563 749.2656,350.1563 Q748.9219,350.1563 748.7188,349.9531 Q748.5156,349.7656 748.4063,349.25 Q748.3594,348.8906 748.1719,348.7031 Q747.8438,348.3281 747.2344,348.1094 Q746.625,347.8906 746,347.8906 Q745.2344,347.8906 744.6016,348.2188 Q743.9688,348.5469 743.4766,349.2969 Q742.9844,350.0469 742.9844,351.0781 L742.9844,352.1719 Q742.9844,353.4063 743.875,354.2266 Q744.7656,355.0469 746.3594,355.0469 Q747.2969,355.0469 747.9531,354.7969 Q748.3438,354.6406 748.7656,354.2031 Q749.0313,353.9375 749.1797,353.8594 Q749.3281,353.7813 749.5313,353.7813 Q749.8594,353.7813 750.1172,354.0391 Q750.375,354.2969 750.375,354.6406 Q750.375,354.9844 750.0313,355.3906 Q749.5313,355.9688 748.7344,356.2969 Q747.6563,356.75 746.3594,356.75 Q744.8438,356.75 743.6406,356.125 Q742.6563,355.625 741.9688,354.5547 Q741.2813,353.4844 741.2813,352.2031 L741.2813,351.0469 Q741.2813,349.7188 741.8984,348.5703 Q742.5156,347.4219 743.6094,346.8047 Q744.7031,346.1875 745.9375,346.1875 Q746.6719,346.1875 747.3203,346.3516 Q747.9688,346.5156 748.5156,346.875 Z " fill="#FFFFFF"/><text fill="#FFFFFF" font-family="sans-serif" font-size="14" lengthAdjust="spacing" textLength="49" x="766.25" y="356.7285">Statistic</text><line style="stroke:#E7E7E7;stroke-width:0.5;" x1="657" x2="892" y1="367" y2="367"/><rect fill="none" height="6" style="stroke:#A6A6A6;stroke-width:1.0;" width="6" x="664" y="378.3047"/><text fill="#FFFFFF" font-family="sans-serif" font-size="14" lengthAdjust="spacing" textLength="167" x="676" y="385.5332">ArrayList&lt;String&gt; statistics</text><line style="stroke:#E7E7E7;stroke-width:0.5;" x1="657" x2="892" y1="392.6094" y2="392.6094"/><ellipse cx="667" cy="406.9141" fill="#595959" rx="3" ry="3" style="stroke:#ABABAB;stroke-width:1.0;"/><text fill="#FFFFFF" font-family="sans-serif" font-size="14" lengthAdjust="spacing" textLength="211" x="676" y="411.1426">void addStatistic(String message)</text></g><!--MD5=[cf5572f1e9ebe5a1625b5a168303c174]
link Board to TTTGame--><g id="link_Board_TTTGame"><path codeLine="75" d="M634.75,136.5 C641.88,136.5 649.01,136.5 656.14,136.5 " fill="none" id="Board-to-TTTGame" style="stroke:#E7E7E7;stroke-width:1.0;"/><polygon fill="#E7E7E7" points="669.41,136.5,663.41,132.5,657.41,136.5,663.41,140.5,669.41,136.5" style="stroke:#E7E7E7;stroke-width:1.0;"/></g><!--MD5=[e842eb6168da7c3d23d4a58737904d12]
reverse link TTTGame to Player--><g id="link_TTTGame_Player"><path codeLine="76" d="M885.02,277.46 C894.59,293.3 903.34,309.64 910.5,326 C934.31,380.42 946.46,447.09 952.57,495.84 " fill="none" id="TTTGame-backto-Player" style="stroke:#E7E7E7;stroke-width:1.0;"/><polygon fill="#E7E7E7" points="877.91,266.03,877.677,273.2373,884.2403,276.2245,884.4733,269.0171,877.91,266.03" style="stroke:#E7E7E7;stroke-width:1.0;"/></g><!--MD5=[5ba8528c163db85703f2f96d9a8c8ad7]
reverse link TTTGame to Round--><g id="link_TTTGame_Round"><path codeLine="77" d="M662.9,277.55 C653.58,293.32 645.19,309.62 638.5,326 C617.56,377.24 608.67,439.21 604.95,486.93 " fill="none" id="TTTGame-backto-Round" style="stroke:#E7E7E7;stroke-width:1.0;"/><polygon fill="#E7E7E7" points="669.83,266.17,663.2905,269.209,663.5806,276.4143,670.1201,273.3753,669.83,266.17" style="stroke:#E7E7E7;stroke-width:1.0;"/></g><!--MD5=[cddd1e96249049c7fae7104dde718151]
reverse link TTTGame to Statistic--><g id="link_TTTGame_Statistic"><path codeLine="78" d="M774.5,279.29 C774.5,299.5 774.5,318.81 774.5,334.74 " fill="none" id="TTTGame-backto-Statistic" style="stroke:#E7E7E7;stroke-width:1.0;"/><polygon fill="#E7E7E7" points="774.5,266.25,770.5,272.25,774.5,278.25,778.5,272.25,774.5,266.25" style="stroke:#E7E7E7;stroke-width:1.0;"/></g><!--MD5=[4992af0640bfca5d575383a64fee00a3]
reverse link Board to Space--><g id="link_Board_Space"><path codeLine="80" d="M425.67,241.89 C403.4,271.02 380.21,301.33 361.57,325.71 " fill="none" id="Board-backto-Space" style="stroke:#E7E7E7;stroke-width:1.0;"/><polygon fill="#E7E7E7" points="433.83,231.22,427.0097,233.5616,426.5479,240.7579,433.3683,238.4163,433.83,231.22" style="stroke:#E7E7E7;stroke-width:1.0;"/></g><!--MD5=[f1909494aa7f1c858573c50b3713f78d]
reverse link Space to Coordinate--><g id="link_Space_Coordinate"><path codeLine="82" d="M264.65,436.51 C239.93,461.3 211.5,489.8 187.89,513.47 " fill="none" id="Space-backto-Coordinate" style="stroke:#E7E7E7;stroke-width:1.0;"/><polygon fill="#E7E7E7" points="273.92,427.21,266.8511,428.6352,265.4479,435.7084,272.5168,434.2833,273.92,427.21" style="stroke:#E7E7E7;stroke-width:1.0;"/></g><!--MD5=[e15543f5ff9aff0daf07ed30621afcbc]
reverse link Board to Round--><g id="link_Board_Round"><path codeLine="84" d="M527.99,236.13 C545.41,312.57 569.2,416.92 585.17,486.97 " fill="none" id="Board-backto-Round" style="stroke:#E7E7E7;stroke-width:1.0;"/><polygon fill="#E7E7E7" points="526.85,231.14,524.9306,240.8,527.9513,236.0172,532.7341,239.0379,526.85,231.14" style="stroke:#E7E7E7;stroke-width:1.0;"/></g><!--MD5=[015547f7ddbd9564a38749abc8e7406b]
link Round to Player--><g id="link_Round_Player"><path codeLine="85" d="M828.13,564 C838.1,564 848.08,564 858.05,564 " fill="none" id="Round-to-Player" style="stroke:#E7E7E7;stroke-width:1.0;"/><polygon fill="#E7E7E7" points="863.27,564,854.27,560,858.27,564,854.27,568,863.27,564" style="stroke:#E7E7E7;stroke-width:1.0;"/></g><!--MD5=[debfab0a067a91381be9588d32e751d3]
link Statistic to Round--><g id="link_Statistic_Round"><path codeLine="87" d="M736.75,418.21 C719.09,437.26 697.4,460.65 676.65,483.03 " fill="none" id="Statistic-to-Round" style="stroke:#E7E7E7;stroke-width:1.0;"/><polygon fill="#E7E7E7" points="673.06,486.9,682.11,483.0145,676.4573,483.2315,676.2404,477.5788,673.06,486.9" style="stroke:#E7E7E7;stroke-width:1.0;"/></g><!--MD5=[da1c7d234e4a1b3c4e4869a83f583945]
link Player to Mark--><g id="link_Player_Mark"><path codeLine="89" d="M863.38,629.96 C857.37,633.76 851.38,637.47 845.5,641 C787.9,675.63 718.46,711.56 676.98,732.43 " fill="none" id="Player-to-Mark" style="stroke:#E7E7E7;stroke-width:1.0;"/><polygon fill="#E7E7E7" points="672.31,734.78,682.1481,734.3202,676.7793,732.5382,678.5613,727.1694,672.31,734.78" style="stroke:#E7E7E7;stroke-width:1.0;"/></g><!--MD5=[e8809bb5d78cb3454f9368284c31c969]
link Space to Mark--><g id="link_Space_Mark"><path codeLine="90" d="M316.39,427.14 C310.98,484.79 311.27,579.81 359.5,641 C420.18,717.99 542.42,740.94 603.7,747.71 " fill="none" id="Space-to-Mark" style="stroke:#E7E7E7;stroke-width:1.0;"/><polygon fill="#E7E7E7" points="608.73,748.24,600.2033,743.3109,603.758,747.7114,599.3575,751.266,608.73,748.24" style="stroke:#E7E7E7;stroke-width:1.0;"/></g><!--MD5=[9d2ab552c34a56c0370a72433972835a]
@startuml ClassModel

skinparam monochrome reverse

class TTTGame{
    -Board board
    -Round round
    -Statistic statistic
    -Player player1
    -Player player2
    -ArrayList<Player> playersList

    +void setup()
    +void execute()
    +void statistics()
    -void addPlayer()
    -void selectPlayer()
    -Player searchPlayer()
}

class Board{
    -int dimensions
    -Space[] space

    +Board(int dimensions,Space[] space)
    +void paint
    +void validateChoice
    +void verifyChoiceExistence
    +void determineWinner
}

class Space{
    -boolean availability
    -Mark mark
    -Coordinate coordinate
}

class Coordinate{
    -int positionX
    -int positionY

    +Coordinate(int positionX,int positionY)
}

enum Mark{
    0
    X
    EMPTY
}

class Player{
    -int id
    -String name
    -Mark mark

    +Player(int id, String name)
    +void putPiece()
}

class Round{
    -Board board
    -Player player1
    -Player player2
    -Statistic statistic

    +Round(Board board,Player player1,Player player2,Statistic statistic)
    +void executeRounds()
}

class Statistic{
    -ArrayList<String> statistics

    +void addStatistic(String message)
}

TTTGame *-left- Board
TTTGame *- - Player
TTTGame *- - Round
TTTGame *- - Statistic

Board *- - Space

Space *- - Coordinate

Round -left-> Board
Round -right-> Player

Statistic - -> Round

Player - -> Mark
Space - -> Mark

@enduml

PlantUML version 1.2022.7(Mon Aug 22 11:01:30 CST 2022)
(GPL source distribution)
Java Runtime: Java(TM) SE Runtime Environment
JVM: Java HotSpot(TM) 64-Bit Server VM
Default Encoding: Cp1252
Language: en
Country: US
--></g></svg>