<?xml version="1.0" encoding="UTF-8" standalone="no"?><svg xmlns="http://www.w3.org/2000/svg" xmlns:xlink="http://www.w3.org/1999/xlink" contentStyleType="text/css" height="919px" preserveAspectRatio="none" style="width:1104px;height:919px;background:#000000;" version="1.1" viewBox="0 0 1104 919" width="1104px" zoomAndPan="magnify"><defs/><g><!--MD5=[807bc46d8103c809ff053af9e140e1f5]
cluster tictactoe--><g id="cluster_tictactoe"><path d="M8.5,6 L70.5,6 A3.75,3.75 0 0 1 73,8.5 L80,29.6094 L1094.5,29.6094 A2.5,2.5 0 0 1 1097,32.1094 L1097,909.5 A2.5,2.5 0 0 1 1094.5,912 L8.5,912 A2.5,2.5 0 0 1 6,909.5 L6,8.5 A2.5,2.5 0 0 1 8.5,6 " fill="none" style="stroke:#FFFFFF;stroke-width:1.5;"/><line style="stroke:#FFFFFF;stroke-width:1.5;" x1="6" x2="80" y1="29.6094" y2="29.6094"/><text fill="#FFFFFF" font-family="sans-serif" font-size="14" font-weight="bold" lengthAdjust="spacing" textLength="61" x="10" y="22.5332">tictactoe</text></g><!--MD5=[2f74336157ef17ab5547a5f506e0d64b]
cluster board--><g id="cluster_board"><path d="M717.5,50 L759.5,50 A3.75,3.75 0 0 1 762,52.5 L769,73.6094 L1070.5,73.6094 A2.5,2.5 0 0 1 1073,76.1094 L1073,663 A2.5,2.5 0 0 1 1070.5,665.5 L717.5,665.5 A2.5,2.5 0 0 1 715,663 L715,52.5 A2.5,2.5 0 0 1 717.5,50 " fill="none" style="stroke:#FFFFFF;stroke-width:1.5;"/><line style="stroke:#FFFFFF;stroke-width:1.5;" x1="715" x2="769" y1="73.6094" y2="73.6094"/><text fill="#FFFFFF" font-family="sans-serif" font-size="14" font-weight="bold" lengthAdjust="spacing" textLength="41" x="719" y="66.5332">board</text></g><!--MD5=[c52f45833d539af9e29a9d34b8b7302b]
cluster utils--><g id="cluster_utils"><path d="M469.5,700 L500.5,700 A3.75,3.75 0 0 1 503,702.5 L510,723.6094 L634.5,723.6094 A2.5,2.5 0 0 1 637,726.1094 L637,885.5 A2.5,2.5 0 0 1 634.5,888 L469.5,888 A2.5,2.5 0 0 1 467,885.5 L467,702.5 A2.5,2.5 0 0 1 469.5,700 " fill="none" style="stroke:#FFFFFF;stroke-width:1.5;"/><line style="stroke:#FFFFFF;stroke-width:1.5;" x1="467" x2="510" y1="723.6094" y2="723.6094"/><text fill="#FFFFFF" font-family="sans-serif" font-size="14" font-weight="bold" lengthAdjust="spacing" textLength="30" x="471" y="716.5332">utils</text></g><!--MD5=[b0e855d727d302fa2279e2e841d3d1a8]
class TTTGame--><g id="elem_TTTGame"><rect codeLine="5" fill="#0E0E0E" height="276.9219" id="TTTGame" rx="2.5" ry="2.5" style="stroke:#E7E7E7;stroke-width:0.5;" width="210" x="356" y="42"/><ellipse cx="424.25" cy="58" fill="#3D3D3D" rx="11" ry="11" style="stroke:#E7E7E7;stroke-width:1.0;"/><path d="M427.0156,53.875 Q427.1719,53.6563 427.3594,53.5469 Q427.5469,53.4375 427.7656,53.4375 Q428.1406,53.4375 428.375,53.6953 Q428.6094,53.9531 428.6094,54.5625 L428.6094,56.0156 Q428.6094,56.625 428.375,56.8906 Q428.1406,57.1563 427.7656,57.1563 Q427.4219,57.1563 427.2188,56.9531 Q427.0156,56.7656 426.9063,56.25 Q426.8594,55.8906 426.6719,55.7031 Q426.3438,55.3281 425.7344,55.1094 Q425.125,54.8906 424.5,54.8906 Q423.7344,54.8906 423.1016,55.2188 Q422.4688,55.5469 421.9766,56.2969 Q421.4844,57.0469 421.4844,58.0781 L421.4844,59.1719 Q421.4844,60.4063 422.375,61.2266 Q423.2656,62.0469 424.8594,62.0469 Q425.7969,62.0469 426.4531,61.7969 Q426.8438,61.6406 427.2656,61.2031 Q427.5313,60.9375 427.6797,60.8594 Q427.8281,60.7813 428.0313,60.7813 Q428.3594,60.7813 428.6172,61.0391 Q428.875,61.2969 428.875,61.6406 Q428.875,61.9844 428.5313,62.3906 Q428.0313,62.9688 427.2344,63.2969 Q426.1563,63.75 424.8594,63.75 Q423.3438,63.75 422.1406,63.125 Q421.1563,62.625 420.4688,61.5547 Q419.7813,60.4844 419.7813,59.2031 L419.7813,58.0469 Q419.7813,56.7188 420.3984,55.5703 Q421.0156,54.4219 422.1094,53.8047 Q423.2031,53.1875 424.4375,53.1875 Q425.1719,53.1875 425.8203,53.3516 Q426.4688,53.5156 427.0156,53.875 Z " fill="#FFFFFF"/><text fill="#FFFFFF" font-family="sans-serif" font-size="14" lengthAdjust="spacing" textLength="65" x="444.75" y="63.7285">TTTGame</text><line style="stroke:#E7E7E7;stroke-width:0.5;" x1="357" x2="565" y1="74" y2="74"/><rect fill="none" height="6" style="stroke:#A6A6A6;stroke-width:1.0;" width="6" x="364" y="85.3047"/><text fill="#FFFFFF" font-family="sans-serif" font-size="14" lengthAdjust="spacing" textLength="79" x="376" y="92.5332">Board board</text><rect fill="none" height="6" style="stroke:#A6A6A6;stroke-width:1.0;" width="6" x="364" y="102.9141"/><text fill="#FFFFFF" font-family="sans-serif" font-size="14" lengthAdjust="spacing" textLength="83" x="376" y="110.1426">Round round</text><rect fill="none" height="6" style="stroke:#A6A6A6;stroke-width:1.0;" width="6" x="364" y="120.5234"/><text fill="#FFFFFF" font-family="sans-serif" font-size="14" lengthAdjust="spacing" textLength="100" x="376" y="127.752">Statistic statistic</text><rect fill="none" height="6" style="stroke:#A6A6A6;stroke-width:1.0;" width="6" x="364" y="138.1328"/><text fill="#FFFFFF" font-family="sans-serif" font-size="14" lengthAdjust="spacing" textLength="91" x="376" y="145.3613">Player player1</text><rect fill="none" height="6" style="stroke:#A6A6A6;stroke-width:1.0;" width="6" x="364" y="155.7422"/><text fill="#FFFFFF" font-family="sans-serif" font-size="14" lengthAdjust="spacing" textLength="91" x="376" y="162.9707">Player player2</text><rect fill="none" height="6" style="stroke:#A6A6A6;stroke-width:1.0;" width="6" x="364" y="173.3516"/><text fill="#FFFFFF" font-family="sans-serif" font-size="14" lengthAdjust="spacing" textLength="184" x="376" y="180.5801">ArrayList&lt;Player&gt; playersList</text><line style="stroke:#E7E7E7;stroke-width:0.5;" x1="357" x2="565" y1="187.6563" y2="187.6563"/><ellipse cx="367" cy="201.9609" fill="#595959" rx="3" ry="3" style="stroke:#ABABAB;stroke-width:1.0;"/><text fill="#FFFFFF" font-family="sans-serif" font-size="14" lengthAdjust="spacing" textLength="75" x="376" y="206.1895">void setup()</text><ellipse cx="367" cy="219.5703" fill="#595959" rx="3" ry="3" style="stroke:#ABABAB;stroke-width:1.0;"/><text fill="#FFFFFF" font-family="sans-serif" font-size="14" lengthAdjust="spacing" textLength="89" x="376" y="223.7988">void execute()</text><ellipse cx="367" cy="237.1797" fill="#595959" rx="3" ry="3" style="stroke:#ABABAB;stroke-width:1.0;"/><text fill="#FFFFFF" font-family="sans-serif" font-size="14" lengthAdjust="spacing" textLength="94" x="376" y="241.4082">void statistics()</text><rect fill="#7F7F7F" height="6" style="stroke:#A6A6A6;stroke-width:1.0;" width="6" x="364" y="251.7891"/><text fill="#FFFFFF" font-family="sans-serif" font-size="14" lengthAdjust="spacing" textLength="104" x="376" y="259.0176">void addPlayer()</text><rect fill="#7F7F7F" height="6" style="stroke:#A6A6A6;stroke-width:1.0;" width="6" x="364" y="269.3984"/><text fill="#FFFFFF" font-family="sans-serif" font-size="14" lengthAdjust="spacing" textLength="131" x="376" y="276.627">void displayPlayers()</text><rect fill="#7F7F7F" height="6" style="stroke:#A6A6A6;stroke-width:1.0;" width="6" x="364" y="287.0078"/><text fill="#FFFFFF" font-family="sans-serif" font-size="14" lengthAdjust="spacing" textLength="131" x="376" y="294.2363">Player selectPlayer()</text><rect fill="#7F7F7F" height="6" style="stroke:#A6A6A6;stroke-width:1.0;" width="6" x="364" y="304.6172"/><text fill="#FFFFFF" font-family="sans-serif" font-size="14" lengthAdjust="spacing" textLength="137" x="376" y="311.8457">Player searchPlayer()</text></g><!--MD5=[2cb47ba637a0d19583e6199456f6ad0b]
class Player--><g id="elem_Player"><rect codeLine="22" fill="#0E0E0E" height="136.0469" id="Player" rx="2.5" ry="2.5" style="stroke:#E7E7E7;stroke-width:0.5;" width="190" x="22" y="531"/><ellipse cx="92.75" cy="547" fill="#3D3D3D" rx="11" ry="11" style="stroke:#E7E7E7;stroke-width:1.0;"/><path d="M95.5156,542.875 Q95.6719,542.6563 95.8594,542.5469 Q96.0469,542.4375 96.2656,542.4375 Q96.6406,542.4375 96.875,542.6953 Q97.1094,542.9531 97.1094,543.5625 L97.1094,545.0156 Q97.1094,545.625 96.875,545.8906 Q96.6406,546.1563 96.2656,546.1563 Q95.9219,546.1563 95.7188,545.9531 Q95.5156,545.7656 95.4063,545.25 Q95.3594,544.8906 95.1719,544.7031 Q94.8438,544.3281 94.2344,544.1094 Q93.625,543.8906 93,543.8906 Q92.2344,543.8906 91.6016,544.2188 Q90.9688,544.5469 90.4766,545.2969 Q89.9844,546.0469 89.9844,547.0781 L89.9844,548.1719 Q89.9844,549.4063 90.875,550.2266 Q91.7656,551.0469 93.3594,551.0469 Q94.2969,551.0469 94.9531,550.7969 Q95.3438,550.6406 95.7656,550.2031 Q96.0313,549.9375 96.1797,549.8594 Q96.3281,549.7813 96.5313,549.7813 Q96.8594,549.7813 97.1172,550.0391 Q97.375,550.2969 97.375,550.6406 Q97.375,550.9844 97.0313,551.3906 Q96.5313,551.9688 95.7344,552.2969 Q94.6563,552.75 93.3594,552.75 Q91.8438,552.75 90.6406,552.125 Q89.6563,551.625 88.9688,550.5547 Q88.2813,549.4844 88.2813,548.2031 L88.2813,547.0469 Q88.2813,545.7188 88.8984,544.5703 Q89.5156,543.4219 90.6094,542.8047 Q91.7031,542.1875 92.9375,542.1875 Q93.6719,542.1875 94.3203,542.3516 Q94.9688,542.5156 95.5156,542.875 Z " fill="#FFFFFF"/><text fill="#FFFFFF" font-family="sans-serif" font-size="14" lengthAdjust="spacing" textLength="40" x="113.25" y="552.7285">Player</text><line style="stroke:#E7E7E7;stroke-width:0.5;" x1="23" x2="211" y1="563" y2="563"/><rect fill="none" height="6" style="stroke:#A6A6A6;stroke-width:1.0;" width="6" x="30" y="574.3047"/><text fill="#FFFFFF" font-family="sans-serif" font-size="14" lengthAdjust="spacing" textLength="30" x="42" y="581.5332">int id</text><rect fill="none" height="6" style="stroke:#A6A6A6;stroke-width:1.0;" width="6" x="30" y="591.9141"/><text fill="#FFFFFF" font-family="sans-serif" font-size="14" lengthAdjust="spacing" textLength="76" x="42" y="599.1426">String name</text><rect fill="none" height="6" style="stroke:#A6A6A6;stroke-width:1.0;" width="6" x="30" y="609.5234"/><text fill="#FFFFFF" font-family="sans-serif" font-size="14" lengthAdjust="spacing" textLength="66" x="42" y="616.752">Mark mark</text><line style="stroke:#E7E7E7;stroke-width:0.5;" x1="23" x2="211" y1="623.8281" y2="623.8281"/><ellipse cx="33" cy="638.1328" fill="#595959" rx="3" ry="3" style="stroke:#ABABAB;stroke-width:1.0;"/><text fill="#FFFFFF" font-family="sans-serif" font-size="14" lengthAdjust="spacing" textLength="164" x="42" y="642.3613">Player(int id, String name)</text><ellipse cx="33" cy="655.7422" fill="#595959" rx="3" ry="3" style="stroke:#ABABAB;stroke-width:1.0;"/><text fill="#FFFFFF" font-family="sans-serif" font-size="14" lengthAdjust="spacing" textLength="91" x="42" y="659.9707">void putMark()</text></g><!--MD5=[d75b0a238b734941260681f0026bbb88]
class Round--><g id="elem_Round"><rect codeLine="31" fill="#0E0E0E" height="153.6563" id="Round" rx="2.5" ry="2.5" style="stroke:#E7E7E7;stroke-width:0.5;" width="451" x="247.5" y="522"/><ellipse cx="447.75" cy="538" fill="#3D3D3D" rx="11" ry="11" style="stroke:#E7E7E7;stroke-width:1.0;"/><path d="M450.5156,533.875 Q450.6719,533.6563 450.8594,533.5469 Q451.0469,533.4375 451.2656,533.4375 Q451.6406,533.4375 451.875,533.6953 Q452.1094,533.9531 452.1094,534.5625 L452.1094,536.0156 Q452.1094,536.625 451.875,536.8906 Q451.6406,537.1563 451.2656,537.1563 Q450.9219,537.1563 450.7188,536.9531 Q450.5156,536.7656 450.4063,536.25 Q450.3594,535.8906 450.1719,535.7031 Q449.8438,535.3281 449.2344,535.1094 Q448.625,534.8906 448,534.8906 Q447.2344,534.8906 446.6016,535.2188 Q445.9688,535.5469 445.4766,536.2969 Q444.9844,537.0469 444.9844,538.0781 L444.9844,539.1719 Q444.9844,540.4063 445.875,541.2266 Q446.7656,542.0469 448.3594,542.0469 Q449.2969,542.0469 449.9531,541.7969 Q450.3438,541.6406 450.7656,541.2031 Q451.0313,540.9375 451.1797,540.8594 Q451.3281,540.7813 451.5313,540.7813 Q451.8594,540.7813 452.1172,541.0391 Q452.375,541.2969 452.375,541.6406 Q452.375,541.9844 452.0313,542.3906 Q451.5313,542.9688 450.7344,543.2969 Q449.6563,543.75 448.3594,543.75 Q446.8438,543.75 445.6406,543.125 Q444.6563,542.625 443.9688,541.5547 Q443.2813,540.4844 443.2813,539.2031 L443.2813,538.0469 Q443.2813,536.7188 443.8984,535.5703 Q444.5156,534.4219 445.6094,533.8047 Q446.7031,533.1875 447.9375,533.1875 Q448.6719,533.1875 449.3203,533.3516 Q449.9688,533.5156 450.5156,533.875 Z " fill="#FFFFFF"/><text fill="#FFFFFF" font-family="sans-serif" font-size="14" lengthAdjust="spacing" textLength="42" x="468.25" y="543.7285">Round</text><line style="stroke:#E7E7E7;stroke-width:0.5;" x1="248.5" x2="697.5" y1="554" y2="554"/><rect fill="none" height="6" style="stroke:#A6A6A6;stroke-width:1.0;" width="6" x="255.5" y="565.3047"/><text fill="#FFFFFF" font-family="sans-serif" font-size="14" lengthAdjust="spacing" textLength="79" x="267.5" y="572.5332">Board board</text><rect fill="none" height="6" style="stroke:#A6A6A6;stroke-width:1.0;" width="6" x="255.5" y="582.9141"/><text fill="#FFFFFF" font-family="sans-serif" font-size="14" lengthAdjust="spacing" textLength="91" x="267.5" y="590.1426">Player player1</text><rect fill="none" height="6" style="stroke:#A6A6A6;stroke-width:1.0;" width="6" x="255.5" y="600.5234"/><text fill="#FFFFFF" font-family="sans-serif" font-size="14" lengthAdjust="spacing" textLength="91" x="267.5" y="607.752">Player player2</text><rect fill="none" height="6" style="stroke:#A6A6A6;stroke-width:1.0;" width="6" x="255.5" y="618.1328"/><text fill="#FFFFFF" font-family="sans-serif" font-size="14" lengthAdjust="spacing" textLength="100" x="267.5" y="625.3613">Statistic statistic</text><line style="stroke:#E7E7E7;stroke-width:0.5;" x1="248.5" x2="697.5" y1="632.4375" y2="632.4375"/><ellipse cx="258.5" cy="646.7422" fill="#595959" rx="3" ry="3" style="stroke:#ABABAB;stroke-width:1.0;"/><text fill="#FFFFFF" font-family="sans-serif" font-size="14" lengthAdjust="spacing" textLength="425" x="267.5" y="650.9707">Round(Board board,Player player1,Player player2,Statistic statistic)</text><ellipse cx="258.5" cy="664.3516" fill="#595959" rx="3" ry="3" style="stroke:#ABABAB;stroke-width:1.0;"/><text fill="#FFFFFF" font-family="sans-serif" font-size="14" lengthAdjust="spacing" textLength="138" x="267.5" y="668.5801">void executeRounds()</text></g><!--MD5=[2e75c5381830ed69fc62cd395939a1b2]
class Statistic--><g id="elem_Statistic"><rect codeLine="41" fill="#0E0E0E" height="83.2188" id="Statistic" rx="2.5" ry="2.5" style="stroke:#E7E7E7;stroke-width:0.5;" width="237" x="265.5" y="379"/><ellipse cx="355.25" cy="395" fill="#3D3D3D" rx="11" ry="11" style="stroke:#E7E7E7;stroke-width:1.0;"/><path d="M358.0156,390.875 Q358.1719,390.6563 358.3594,390.5469 Q358.5469,390.4375 358.7656,390.4375 Q359.1406,390.4375 359.375,390.6953 Q359.6094,390.9531 359.6094,391.5625 L359.6094,393.0156 Q359.6094,393.625 359.375,393.8906 Q359.1406,394.1563 358.7656,394.1563 Q358.4219,394.1563 358.2188,393.9531 Q358.0156,393.7656 357.9063,393.25 Q357.8594,392.8906 357.6719,392.7031 Q357.3438,392.3281 356.7344,392.1094 Q356.125,391.8906 355.5,391.8906 Q354.7344,391.8906 354.1016,392.2188 Q353.4688,392.5469 352.9766,393.2969 Q352.4844,394.0469 352.4844,395.0781 L352.4844,396.1719 Q352.4844,397.4063 353.375,398.2266 Q354.2656,399.0469 355.8594,399.0469 Q356.7969,399.0469 357.4531,398.7969 Q357.8438,398.6406 358.2656,398.2031 Q358.5313,397.9375 358.6797,397.8594 Q358.8281,397.7813 359.0313,397.7813 Q359.3594,397.7813 359.6172,398.0391 Q359.875,398.2969 359.875,398.6406 Q359.875,398.9844 359.5313,399.3906 Q359.0313,399.9688 358.2344,400.2969 Q357.1563,400.75 355.8594,400.75 Q354.3438,400.75 353.1406,400.125 Q352.1563,399.625 351.4688,398.5547 Q350.7813,397.4844 350.7813,396.2031 L350.7813,395.0469 Q350.7813,393.7188 351.3984,392.5703 Q352.0156,391.4219 353.1094,390.8047 Q354.2031,390.1875 355.4375,390.1875 Q356.1719,390.1875 356.8203,390.3516 Q357.4688,390.5156 358.0156,390.875 Z " fill="#FFFFFF"/><text fill="#FFFFFF" font-family="sans-serif" font-size="14" lengthAdjust="spacing" textLength="49" x="375.75" y="400.7285">Statistic</text><line style="stroke:#E7E7E7;stroke-width:0.5;" x1="266.5" x2="501.5" y1="411" y2="411"/><rect fill="none" height="6" style="stroke:#A6A6A6;stroke-width:1.0;" width="6" x="273.5" y="422.3047"/><text fill="#FFFFFF" font-family="sans-serif" font-size="14" lengthAdjust="spacing" textLength="167" x="285.5" y="429.5332">ArrayList&lt;String&gt; statistics</text><line style="stroke:#E7E7E7;stroke-width:0.5;" x1="266.5" x2="501.5" y1="436.6094" y2="436.6094"/><ellipse cx="276.5" cy="450.9141" fill="#595959" rx="3" ry="3" style="stroke:#ABABAB;stroke-width:1.0;"/><text fill="#FFFFFF" font-family="sans-serif" font-size="14" lengthAdjust="spacing" textLength="211" x="285.5" y="455.1426">void addStatistic(String message)</text></g><!--MD5=[9563755d011c5cec7ec66dc53565a59e]
class Board--><g id="elem_Board"><rect codeLine="48" fill="#0E0E0E" height="188.875" id="Board" rx="2.5" ry="2.5" style="stroke:#E7E7E7;stroke-width:0.5;" width="325" x="731.5" y="86"/><ellipse cx="870.75" cy="102" fill="#3D3D3D" rx="11" ry="11" style="stroke:#E7E7E7;stroke-width:1.0;"/><path d="M873.5156,97.875 Q873.6719,97.6563 873.8594,97.5469 Q874.0469,97.4375 874.2656,97.4375 Q874.6406,97.4375 874.875,97.6953 Q875.1094,97.9531 875.1094,98.5625 L875.1094,100.0156 Q875.1094,100.625 874.875,100.8906 Q874.6406,101.1563 874.2656,101.1563 Q873.9219,101.1563 873.7188,100.9531 Q873.5156,100.7656 873.4063,100.25 Q873.3594,99.8906 873.1719,99.7031 Q872.8438,99.3281 872.2344,99.1094 Q871.625,98.8906 871,98.8906 Q870.2344,98.8906 869.6016,99.2188 Q868.9688,99.5469 868.4766,100.2969 Q867.9844,101.0469 867.9844,102.0781 L867.9844,103.1719 Q867.9844,104.4063 868.875,105.2266 Q869.7656,106.0469 871.3594,106.0469 Q872.2969,106.0469 872.9531,105.7969 Q873.3438,105.6406 873.7656,105.2031 Q874.0313,104.9375 874.1797,104.8594 Q874.3281,104.7813 874.5313,104.7813 Q874.8594,104.7813 875.1172,105.0391 Q875.375,105.2969 875.375,105.6406 Q875.375,105.9844 875.0313,106.3906 Q874.5313,106.9688 873.7344,107.2969 Q872.6563,107.75 871.3594,107.75 Q869.8438,107.75 868.6406,107.125 Q867.6563,106.625 866.9688,105.5547 Q866.2813,104.4844 866.2813,103.2031 L866.2813,102.0469 Q866.2813,100.7188 866.8984,99.5703 Q867.5156,98.4219 868.6094,97.8047 Q869.7031,97.1875 870.9375,97.1875 Q871.6719,97.1875 872.3203,97.3516 Q872.9688,97.5156 873.5156,97.875 Z " fill="#FFFFFF"/><text fill="#FFFFFF" font-family="sans-serif" font-size="14" lengthAdjust="spacing" textLength="38" x="891.25" y="107.7285">Board</text><line style="stroke:#E7E7E7;stroke-width:0.5;" x1="732.5" x2="1055.5" y1="118" y2="118"/><rect fill="none" height="6" style="stroke:#A6A6A6;stroke-width:1.0;" width="6" x="739.5" y="129.3047"/><text fill="#FFFFFF" font-family="sans-serif" font-size="14" lengthAdjust="spacing" textLength="90" x="751.5" y="136.5332">int dimensions</text><rect fill="none" height="6" style="stroke:#A6A6A6;stroke-width:1.0;" width="6" x="739.5" y="146.9141"/><text fill="#FFFFFF" font-family="sans-serif" font-size="14" lengthAdjust="spacing" textLength="97" x="751.5" y="154.1426">Space[][] board</text><line style="stroke:#E7E7E7;stroke-width:0.5;" x1="732.5" x2="1055.5" y1="161.2188" y2="161.2188"/><ellipse cx="742.5" cy="175.5234" fill="#595959" rx="3" ry="3" style="stroke:#ABABAB;stroke-width:1.0;"/><text fill="#FFFFFF" font-family="sans-serif" font-size="14" lengthAdjust="spacing" textLength="48" x="751.5" y="179.752">Board()</text><rect fill="#7F7F7F" height="6" style="stroke:#A6A6A6;stroke-width:1.0;" width="6" x="739.5" y="190.1328"/><text fill="#FFFFFF" font-family="sans-serif" font-size="14" lengthAdjust="spacing" textLength="127" x="751.5" y="197.3613">void initializeBoard()</text><ellipse cx="742.5" cy="210.7422" fill="#595959" rx="3" ry="3" style="stroke:#ABABAB;stroke-width:1.0;"/><text fill="#FFFFFF" font-family="sans-serif" font-size="14" lengthAdjust="spacing" textLength="71" x="751.5" y="214.9707">void paint()</text><ellipse cx="742.5" cy="228.3516" fill="#595959" rx="3" ry="3" style="stroke:#ABABAB;stroke-width:1.0;"/><text fill="#FFFFFF" font-family="sans-serif" font-size="14" lengthAdjust="spacing" textLength="299" x="751.5" y="232.5801">boolean validateChoice(Coordinate coordinate)</text><ellipse cx="742.5" cy="245.9609" fill="#595959" rx="3" ry="3" style="stroke:#ABABAB;stroke-width:1.0;"/><text fill="#FFFFFF" font-family="sans-serif" font-size="14" lengthAdjust="spacing" textLength="203" x="751.5" y="250.1895">boolean verifyChoiceExistence()</text><ellipse cx="742.5" cy="263.5703" fill="#595959" rx="3" ry="3" style="stroke:#ABABAB;stroke-width:1.0;"/><text fill="#FFFFFF" font-family="sans-serif" font-size="14" lengthAdjust="spacing" textLength="148" x="751.5" y="267.7988">void determineWinner()</text></g><!--MD5=[e4951a412b0edb2e6f8e49ce06f9a46d]
class Space--><g id="elem_Space"><rect codeLine="60" fill="#0E0E0E" height="83.2188" id="Space" rx="2.5" ry="2.5" style="stroke:#E7E7E7;stroke-width:0.5;" width="167" x="810.5" y="379"/><ellipse cx="869.75" cy="395" fill="#3D3D3D" rx="11" ry="11" style="stroke:#E7E7E7;stroke-width:1.0;"/><path d="M872.5156,390.875 Q872.6719,390.6563 872.8594,390.5469 Q873.0469,390.4375 873.2656,390.4375 Q873.6406,390.4375 873.875,390.6953 Q874.1094,390.9531 874.1094,391.5625 L874.1094,393.0156 Q874.1094,393.625 873.875,393.8906 Q873.6406,394.1563 873.2656,394.1563 Q872.9219,394.1563 872.7188,393.9531 Q872.5156,393.7656 872.4063,393.25 Q872.3594,392.8906 872.1719,392.7031 Q871.8438,392.3281 871.2344,392.1094 Q870.625,391.8906 870,391.8906 Q869.2344,391.8906 868.6016,392.2188 Q867.9688,392.5469 867.4766,393.2969 Q866.9844,394.0469 866.9844,395.0781 L866.9844,396.1719 Q866.9844,397.4063 867.875,398.2266 Q868.7656,399.0469 870.3594,399.0469 Q871.2969,399.0469 871.9531,398.7969 Q872.3438,398.6406 872.7656,398.2031 Q873.0313,397.9375 873.1797,397.8594 Q873.3281,397.7813 873.5313,397.7813 Q873.8594,397.7813 874.1172,398.0391 Q874.375,398.2969 874.375,398.6406 Q874.375,398.9844 874.0313,399.3906 Q873.5313,399.9688 872.7344,400.2969 Q871.6563,400.75 870.3594,400.75 Q868.8438,400.75 867.6406,400.125 Q866.6563,399.625 865.9688,398.5547 Q865.2813,397.4844 865.2813,396.2031 L865.2813,395.0469 Q865.2813,393.7188 865.8984,392.5703 Q866.5156,391.4219 867.6094,390.8047 Q868.7031,390.1875 869.9375,390.1875 Q870.6719,390.1875 871.3203,390.3516 Q871.9688,390.5156 872.5156,390.875 Z " fill="#FFFFFF"/><text fill="#FFFFFF" font-family="sans-serif" font-size="14" lengthAdjust="spacing" textLength="40" x="890.25" y="400.7285">Space</text><line style="stroke:#E7E7E7;stroke-width:0.5;" x1="811.5" x2="976.5" y1="411" y2="411"/><rect fill="none" height="6" style="stroke:#A6A6A6;stroke-width:1.0;" width="6" x="818.5" y="422.3047"/><text fill="#FFFFFF" font-family="sans-serif" font-size="14" lengthAdjust="spacing" textLength="66" x="830.5" y="429.5332">Mark mark</text><rect fill="none" height="6" style="stroke:#A6A6A6;stroke-width:1.0;" width="6" x="818.5" y="439.9141"/><text fill="#FFFFFF" font-family="sans-serif" font-size="14" lengthAdjust="spacing" textLength="141" x="830.5" y="447.1426">Coordinate coordinate</text><line style="stroke:#E7E7E7;stroke-width:0.5;" x1="811.5" x2="976.5" y1="454.2188" y2="454.2188"/></g><!--MD5=[8c7d7abc12e214c3cc12c9ab70edee11]
class Coordinate--><g id="elem_Coordinate"><rect codeLine="65" fill="#0E0E0E" height="100.8281" id="Coordinate" rx="2.5" ry="2.5" style="stroke:#E7E7E7;stroke-width:0.5;" width="263" x="733.5" y="548.5"/><ellipse cx="825.75" cy="564.5" fill="#3D3D3D" rx="11" ry="11" style="stroke:#E7E7E7;stroke-width:1.0;"/><path d="M828.5156,560.375 Q828.6719,560.1563 828.8594,560.0469 Q829.0469,559.9375 829.2656,559.9375 Q829.6406,559.9375 829.875,560.1953 Q830.1094,560.4531 830.1094,561.0625 L830.1094,562.5156 Q830.1094,563.125 829.875,563.3906 Q829.6406,563.6563 829.2656,563.6563 Q828.9219,563.6563 828.7188,563.4531 Q828.5156,563.2656 828.4063,562.75 Q828.3594,562.3906 828.1719,562.2031 Q827.8438,561.8281 827.2344,561.6094 Q826.625,561.3906 826,561.3906 Q825.2344,561.3906 824.6016,561.7188 Q823.9688,562.0469 823.4766,562.7969 Q822.9844,563.5469 822.9844,564.5781 L822.9844,565.6719 Q822.9844,566.9063 823.875,567.7266 Q824.7656,568.5469 826.3594,568.5469 Q827.2969,568.5469 827.9531,568.2969 Q828.3438,568.1406 828.7656,567.7031 Q829.0313,567.4375 829.1797,567.3594 Q829.3281,567.2813 829.5313,567.2813 Q829.8594,567.2813 830.1172,567.5391 Q830.375,567.7969 830.375,568.1406 Q830.375,568.4844 830.0313,568.8906 Q829.5313,569.4688 828.7344,569.7969 Q827.6563,570.25 826.3594,570.25 Q824.8438,570.25 823.6406,569.625 Q822.6563,569.125 821.9688,568.0547 Q821.2813,566.9844 821.2813,565.7031 L821.2813,564.5469 Q821.2813,563.2188 821.8984,562.0703 Q822.5156,560.9219 823.6094,560.3047 Q824.7031,559.6875 825.9375,559.6875 Q826.6719,559.6875 827.3203,559.8516 Q827.9688,560.0156 828.5156,560.375 Z " fill="#FFFFFF"/><text fill="#FFFFFF" font-family="sans-serif" font-size="14" lengthAdjust="spacing" textLength="70" x="846.25" y="570.2285">Coordinate</text><line style="stroke:#E7E7E7;stroke-width:0.5;" x1="734.5" x2="995.5" y1="580.5" y2="580.5"/><rect fill="none" height="6" style="stroke:#A6A6A6;stroke-width:1.0;" width="6" x="741.5" y="591.8047"/><text fill="#FFFFFF" font-family="sans-serif" font-size="14" lengthAdjust="spacing" textLength="76" x="753.5" y="599.0332">int positionX</text><rect fill="none" height="6" style="stroke:#A6A6A6;stroke-width:1.0;" width="6" x="741.5" y="609.4141"/><text fill="#FFFFFF" font-family="sans-serif" font-size="14" lengthAdjust="spacing" textLength="77" x="753.5" y="616.6426">int positionY</text><line style="stroke:#E7E7E7;stroke-width:0.5;" x1="734.5" x2="995.5" y1="623.7188" y2="623.7188"/><ellipse cx="744.5" cy="638.0234" fill="#595959" rx="3" ry="3" style="stroke:#ABABAB;stroke-width:1.0;"/><text fill="#FFFFFF" font-family="sans-serif" font-size="14" lengthAdjust="spacing" textLength="237" x="753.5" y="642.252">Coordinate(int positionX,int positionY)</text></g><!--MD5=[140f0262991170c14649b45d1408dce7]
class Mark--><g id="elem_Mark"><rect codeLine="74" fill="#0E0E0E" height="136.0469" id="Mark" rx="2.5" ry="2.5" style="stroke:#E7E7E7;stroke-width:0.5;" width="137" x="483.5" y="736"/><ellipse cx="532.25" cy="752" fill="#545454" rx="11" ry="11" style="stroke:#E7E7E7;stroke-width:1.0;"/><path d="M531.1094,752.7969 L531.1094,755.2969 L535.4375,755.2969 L535.4375,754.375 Q535.4375,753.7656 535.6797,753.5 Q535.9219,753.2344 536.2969,753.2344 Q536.6719,753.2344 536.9063,753.5 Q537.1406,753.7656 537.1406,754.375 L537.1406,757 L529.1406,757 Q528.5156,757 528.2578,756.7656 Q528,756.5313 528,756.1406 Q528,755.7656 528.2656,755.5313 Q528.5313,755.2969 529.1406,755.2969 L529.4063,755.2969 L529.4063,748.6406 L529.1406,748.6406 Q528.5156,748.6406 528.2578,748.4063 Q528,748.1719 528,747.7813 Q528,747.4063 528.2578,747.1719 Q528.5156,746.9375 529.1406,746.9375 L536.7656,746.9375 L536.7656,749.5313 Q536.7656,750.1406 536.5391,750.3984 Q536.3125,750.6563 535.9219,750.6563 Q535.5469,750.6563 535.3125,750.3984 Q535.0781,750.1406 535.0781,749.5313 L535.0781,748.6406 L531.1094,748.6406 L531.1094,751.0938 L532.5938,751.0938 Q532.5938,750.4375 532.7188,750.25 Q532.9844,749.8438 533.4531,749.8438 Q533.8281,749.8438 534.0625,750.1016 Q534.2969,750.3594 534.2969,750.9688 L534.2969,752.9375 Q534.2969,753.4844 534.1719,753.6719 Q533.9063,754.0625 533.4531,754.0625 Q532.9844,754.0625 532.7188,753.6563 Q532.5938,753.4688 532.5938,752.7969 L531.1094,752.7969 Z " fill="#FFFFFF"/><text fill="#FFFFFF" font-family="sans-serif" font-size="14" lengthAdjust="spacing" textLength="31" x="552.75" y="757.7285">Mark</text><line style="stroke:#E7E7E7;stroke-width:0.5;" x1="484.5" x2="619.5" y1="768" y2="768"/><text fill="#FFFFFF" font-family="sans-serif" font-size="14" lengthAdjust="spacing" textLength="8" x="503.5" y="786.5332">0</text><text fill="#FFFFFF" font-family="sans-serif" font-size="14" lengthAdjust="spacing" textLength="8" x="503.5" y="804.1426">X</text><text fill="#FFFFFF" font-family="sans-serif" font-size="14" lengthAdjust="spacing" textLength="47" x="503.5" y="821.752">EMPTY</text><text fill="#FFFFFF" font-family="sans-serif" font-size="14" lengthAdjust="spacing" textLength="4" x="503.5" y="839.3613"> </text><rect fill="none" height="6" style="stroke:#A6A6A6;stroke-width:1.0;" width="6" x="491.5" y="849.7422"/><text fill="#FFFFFF" font-family="sans-serif" font-size="14" lengthAdjust="spacing" textLength="111" x="503.5" y="856.9707">boolean available</text><line style="stroke:#E7E7E7;stroke-width:0.5;" x1="484.5" x2="619.5" y1="864.0469" y2="864.0469"/></g><!--MD5=[cf5572f1e9ebe5a1625b5a168303c174]
link Board to TTTGame--><g id="link_Board_TTTGame"><path codeLine="84" d="M731.43,180.5 C680.79,180.5 630.15,180.5 579.51,180.5 " fill="none" id="Board-to-TTTGame" style="stroke:#E7E7E7;stroke-width:1.0;"/><polygon fill="#E7E7E7" points="566.29,180.5,572.29,184.5,578.29,180.5,572.29,176.5,566.29,180.5" style="stroke:#E7E7E7;stroke-width:1.0;"/></g><!--MD5=[e842eb6168da7c3d23d4a58737904d12]
reverse link TTTGame to Player--><g id="link_TTTGame_Player"><path codeLine="85" d="M345.89,277.2 C312.35,307.9 276.97,343.25 248,379 C209.78,426.15 174.95,485.56 150.83,530.6 " fill="none" id="TTTGame-backto-Player" style="stroke:#E7E7E7;stroke-width:1.0;"/><polygon fill="#E7E7E7" points="355.76,268.25,348.6282,269.3163,346.8694,276.3096,354.0012,275.2433,355.76,268.25" style="stroke:#E7E7E7;stroke-width:1.0;"/></g><!--MD5=[5ba8528c163db85703f2f96d9a8c8ad7]
reverse link TTTGame to Round--><g id="link_TTTGame_Round"><path codeLine="86" d="M513.78,332 C522.72,373.95 527.11,419.64 520,462 C516.67,481.83 510.79,502.64 504.29,521.85 " fill="none" id="TTTGame-backto-Round" style="stroke:#E7E7E7;stroke-width:1.0;"/><polygon fill="#E7E7E7" points="510.86,319.11,508.2833,325.845,513.5092,330.8139,516.0859,324.0789,510.86,319.11" style="stroke:#E7E7E7;stroke-width:1.0;"/></g><!--MD5=[cddd1e96249049c7fae7104dde718151]
reverse link TTTGame to Statistic--><g id="link_TTTGame_Statistic"><path codeLine="87" d="M412.38,331.79 C406.87,348.8 401.66,364.9 397.25,378.55 " fill="none" id="TTTGame-backto-Statistic" style="stroke:#E7E7E7;stroke-width:1.0;"/><polygon fill="#E7E7E7" points="416.43,319.26,410.7734,323.7325,412.7263,330.6742,418.3829,326.2016,416.43,319.26" style="stroke:#E7E7E7;stroke-width:1.0;"/></g><!--MD5=[4992af0640bfca5d575383a64fee00a3]
reverse link Board to Space--><g id="link_Board_Space"><path codeLine="89" d="M894,288.43 C894,320.61 894,353.98 894,378.99 " fill="none" id="Board-backto-Space" style="stroke:#E7E7E7;stroke-width:1.0;"/><polygon fill="#E7E7E7" points="894,275.22,890,281.22,894,287.22,898,281.22,894,275.22" style="stroke:#E7E7E7;stroke-width:1.0;"/></g><!--MD5=[f1909494aa7f1c858573c50b3713f78d]
reverse link Space to Coordinate--><g id="link_Space_Coordinate"><path codeLine="91" d="M885.16,475.29 C881.33,498.59 876.88,525.69 873.14,548.48 " fill="none" id="Space-backto-Coordinate" style="stroke:#E7E7E7;stroke-width:1.0;"/><polygon fill="#E7E7E7" points="887.27,462.44,882.3533,467.715,885.3314,474.2824,890.2482,469.0074,887.27,462.44" style="stroke:#E7E7E7;stroke-width:1.0;"/></g><!--MD5=[e15543f5ff9aff0daf07ed30621afcbc]
reverse link Board to Round--><g id="link_Board_Round"><path codeLine="93" d="M795.26,279.18 C720.32,353.32 618.77,453.78 549.84,521.98 " fill="none" id="Board-backto-Round" style="stroke:#E7E7E7;stroke-width:1.0;"/><polygon fill="#E7E7E7" points="799.26,275.23,790.0464,278.7098,795.7031,278.744,795.6688,284.4008,799.26,275.23" style="stroke:#E7E7E7;stroke-width:1.0;"/></g><!--MD5=[015547f7ddbd9564a38749abc8e7406b]
link Round to Player--><g id="link_Round_Player"><path codeLine="94" d="M247.4,599 C237.42,599 227.45,599 217.47,599 " fill="none" id="Round-to-Player" style="stroke:#E7E7E7;stroke-width:1.0;"/><polygon fill="#E7E7E7" points="212.26,599,221.26,603,217.26,599,221.26,595,212.26,599" style="stroke:#E7E7E7;stroke-width:1.0;"/></g><!--MD5=[35206761755b5243584db8b9be19cb8c]
reverse link Statistic to Round--><g id="link_Statistic_Round"><path codeLine="96" d="M406.98,467.08 C415.42,483.82 425.22,503.25 434.64,521.93 " fill="none" id="Statistic-backto-Round" style="stroke:#E7E7E7;stroke-width:1.0;"/><polygon fill="#E7E7E7" points="404.64,462.44,405.1249,472.2769,406.8932,466.9035,412.2665,468.6719,404.64,462.44" style="stroke:#E7E7E7;stroke-width:1.0;"/></g><!--MD5=[da1c7d234e4a1b3c4e4869a83f583945]
link Player to Mark--><g id="link_Player_Mark"><path codeLine="98" d="M212.3,666.14 C218.21,669.61 224.14,672.92 230,676 C311.95,719.07 411.87,756.29 478.46,779.11 " fill="none" id="Player-to-Mark" style="stroke:#E7E7E7;stroke-width:1.0;"/><polygon fill="#E7E7E7" points="483.2,780.73,475.9688,774.0434,478.4667,779.119,473.3911,781.6168,483.2,780.73" style="stroke:#E7E7E7;stroke-width:1.0;"/></g><!--MD5=[e8809bb5d78cb3454f9368284c31c969]
link Space to Mark--><g id="link_Space_Mark"><path codeLine="99" d="M962.47,462.01 C982.92,477.9 1002.85,498.12 1014,522 C1042.96,584.02 1055.49,621.56 1014,676 C967.05,737.6 743.91,776.79 625.78,793.57 " fill="none" id="Space-to-Mark" style="stroke:#E7E7E7;stroke-width:1.0;"/><polygon fill="#E7E7E7" points="620.58,794.3,630.0509,797.0023,625.5309,793.6009,628.9323,789.0809,620.58,794.3" style="stroke:#E7E7E7;stroke-width:1.0;"/></g><!--MD5=[1aa3d5700d9a4a8dadbf9987e5e82666]
@startuml ClassModel

skinparam monochrome reverse

package tictactoe{
    class TTTGame{
        -Board board
        -Round round
        -Statistic statistic
        -Player player1
        -Player player2
        -ArrayList<Player> playersList

        +void setup()
        +void execute()
        +void statistics()
        -void addPlayer()
        -void displayPlayers()
        -Player selectPlayer()
        -Player searchPlayer()
    }

    class Player{
        -int id
        -String name
        -Mark mark

        +Player(int id, String name)
        +void putMark()
    }

    class Round{
        -Board board
        -Player player1
        -Player player2
        -Statistic statistic

        +Round(Board board,Player player1,Player player2,Statistic statistic)
        +void executeRounds()
    }

    class Statistic{
        -ArrayList<String> statistics

        +void addStatistic(String message)
    }

    package board{
        class Board{
            -int dimensions
            -Space[][] board

            +Board()
            -void initializeBoard()
            +void paint()
            +boolean validateChoice(Coordinate coordinate)
            +boolean verifyChoiceExistence()
            +void determineWinner()
        }

        class Space{
            -Mark mark
            -Coordinate coordinate
        }

        class Coordinate{
            -int positionX
            -int positionY

            +Coordinate(int positionX,int positionY)
        }
    }

    package utils{
        enum Mark{
            0
            X
            EMPTY

            -boolean available
        }
    }
}

TTTGame *-left- Board
TTTGame *- - Player
TTTGame *- - Round
TTTGame *- - Statistic

Board *- - Space

Space *- - Coordinate

Round -left-> Board
Round -right-> Player

Statistic <- - Round

Player - -> Mark
Space - -> Mark

@enduml

PlantUML version 1.2022.7(Mon Aug 22 11:01:30 CST 2022)
(GPL source distribution)
Java Runtime: Java(TM) SE Runtime Environment
JVM: Java HotSpot(TM) 64-Bit Server VM
Default Encoding: Cp1252
Language: en
Country: US
--></g></svg>