<?xml version="1.0" encoding="UTF-8" standalone="no"?><svg xmlns="http://www.w3.org/2000/svg" xmlns:xlink="http://www.w3.org/1999/xlink" contentStyleType="text/css" height="1059px" preserveAspectRatio="none" style="width:1087px;height:1059px;background:#000000;" version="1.1" viewBox="0 0 1087 1059" width="1087px" zoomAndPan="magnify"><defs/><g><!--MD5=[807bc46d8103c809ff053af9e140e1f5]
cluster tictactoe--><g id="cluster_tictactoe"><path d="M8.5,6 L70.5,6 A3.75,3.75 0 0 1 73,8.5 L80,29.6094 L1077.5,29.6094 A2.5,2.5 0 0 1 1080,32.1094 L1080,1049.5 A2.5,2.5 0 0 1 1077.5,1052 L8.5,1052 A2.5,2.5 0 0 1 6,1049.5 L6,8.5 A2.5,2.5 0 0 1 8.5,6 " fill="none" style="stroke:#FFFFFF;stroke-width:1.5;"/><line style="stroke:#FFFFFF;stroke-width:1.5;" x1="6" x2="80" y1="29.6094" y2="29.6094"/><text fill="#FFFFFF" font-family="sans-serif" font-size="14" font-weight="bold" lengthAdjust="spacing" textLength="61" x="10" y="22.5332">tictactoe</text></g><!--MD5=[2f74336157ef17ab5547a5f506e0d64b]
cluster board--><g id="cluster_board"><path d="M700.5,50 L742.5,50 A3.75,3.75 0 0 1 745,52.5 L752,73.6094 L1053.5,73.6094 A2.5,2.5 0 0 1 1056,76.1094 L1056,759.5 A2.5,2.5 0 0 1 1053.5,762 L700.5,762 A2.5,2.5 0 0 1 698,759.5 L698,52.5 A2.5,2.5 0 0 1 700.5,50 " fill="none" style="stroke:#FFFFFF;stroke-width:1.5;"/><line style="stroke:#FFFFFF;stroke-width:1.5;" x1="698" x2="752" y1="73.6094" y2="73.6094"/><text fill="#FFFFFF" font-family="sans-serif" font-size="14" font-weight="bold" lengthAdjust="spacing" textLength="41" x="702" y="66.5332">board</text></g><!--MD5=[c52f45833d539af9e29a9d34b8b7302b]
cluster utils--><g id="cluster_utils"><path d="M417.5,805 L448.5,805 A3.75,3.75 0 0 1 451,807.5 L458,828.6094 L668.5,828.6094 A2.5,2.5 0 0 1 671,831.1094 L671,1025.5 A2.5,2.5 0 0 1 668.5,1028 L417.5,1028 A2.5,2.5 0 0 1 415,1025.5 L415,807.5 A2.5,2.5 0 0 1 417.5,805 " fill="none" style="stroke:#FFFFFF;stroke-width:1.5;"/><line style="stroke:#FFFFFF;stroke-width:1.5;" x1="415" x2="458" y1="828.6094" y2="828.6094"/><text fill="#FFFFFF" font-family="sans-serif" font-size="14" font-weight="bold" lengthAdjust="spacing" textLength="30" x="419" y="821.5332">utils</text></g><!--MD5=[b0e855d727d302fa2279e2e841d3d1a8]
class TTTGame--><g id="elem_TTTGame"><rect codeLine="5" fill="#0E0E0E" height="294.5313" id="TTTGame" rx="2.5" ry="2.5" style="stroke:#E7E7E7;stroke-width:0.5;" width="224" x="312" y="77"/><ellipse cx="387.25" cy="93" fill="#3D3D3D" rx="11" ry="11" style="stroke:#E7E7E7;stroke-width:1.0;"/><path d="M390.0156,88.875 Q390.1719,88.6563 390.3594,88.5469 Q390.5469,88.4375 390.7656,88.4375 Q391.1406,88.4375 391.375,88.7031 Q391.6094,88.9531 391.6094,89.5625 L391.6094,91.0156 Q391.6094,91.625 391.375,91.8906 Q391.1406,92.1563 390.7656,92.1563 Q390.4219,92.1563 390.2188,91.9531 Q390.0156,91.7656 389.9063,91.25 Q389.8594,90.8906 389.6719,90.7031 Q389.3438,90.3281 388.7344,90.1094 Q388.125,89.8906 387.5,89.8906 Q386.7344,89.8906 386.0938,90.2188 Q385.4688,90.5469 384.9688,91.2969 Q384.4844,92.0469 384.4844,93.0781 L384.4844,94.1719 Q384.4844,95.4063 385.375,96.2344 Q386.2656,97.0469 387.8594,97.0469 Q388.7969,97.0469 389.4531,96.7969 Q389.8438,96.6406 390.2656,96.2031 Q390.5313,95.9375 390.6719,95.8594 Q390.8281,95.7813 391.0313,95.7813 Q391.3594,95.7813 391.6094,96.0469 Q391.875,96.2969 391.875,96.6406 Q391.875,96.9844 391.5313,97.3906 Q391.0313,97.9688 390.2344,98.2969 Q389.1563,98.75 387.8594,98.75 Q386.3438,98.75 385.1406,98.125 Q384.1563,97.625 383.4688,96.5625 Q382.7813,95.4844 382.7813,94.2031 L382.7813,93.0469 Q382.7813,91.7188 383.3906,90.5781 Q384.0156,89.4219 385.1094,88.8125 Q386.2031,88.1875 387.4375,88.1875 Q388.1719,88.1875 388.8125,88.3594 Q389.4688,88.5156 390.0156,88.875 Z " fill="#FFFFFF"/><text fill="#FFFFFF" font-family="sans-serif" font-size="14" lengthAdjust="spacing" textLength="65" x="407.75" y="98.7285">TTTGame</text><line style="stroke:#E7E7E7;stroke-width:0.5;" x1="313" x2="535" y1="109" y2="109"/><rect fill="none" height="6" style="stroke:#A6A6A6;stroke-width:1.0;" width="6" x="320" y="120.3047"/><text fill="#FFFFFF" font-family="sans-serif" font-size="14" lengthAdjust="spacing" textLength="79" x="332" y="127.5332">Board board</text><rect fill="none" height="6" style="stroke:#A6A6A6;stroke-width:1.0;" width="6" x="320" y="137.9141"/><text fill="#FFFFFF" font-family="sans-serif" font-size="14" lengthAdjust="spacing" textLength="83" x="332" y="145.1426">Round round</text><rect fill="none" height="6" style="stroke:#A6A6A6;stroke-width:1.0;" width="6" x="320" y="155.5234"/><text fill="#FFFFFF" font-family="sans-serif" font-size="14" lengthAdjust="spacing" textLength="100" x="332" y="162.752">Statistic statistic</text><rect fill="none" height="6" style="stroke:#A6A6A6;stroke-width:1.0;" width="6" x="320" y="173.1328"/><text fill="#FFFFFF" font-family="sans-serif" font-size="14" lengthAdjust="spacing" textLength="91" x="332" y="180.3613">Player player1</text><rect fill="none" height="6" style="stroke:#A6A6A6;stroke-width:1.0;" width="6" x="320" y="190.7422"/><text fill="#FFFFFF" font-family="sans-serif" font-size="14" lengthAdjust="spacing" textLength="91" x="332" y="197.9707">Player player2</text><rect fill="none" height="6" style="stroke:#A6A6A6;stroke-width:1.0;" width="6" x="320" y="208.3516"/><text fill="#FFFFFF" font-family="sans-serif" font-size="14" lengthAdjust="spacing" textLength="184" x="332" y="215.5801">ArrayList&lt;Player&gt; playersList</text><line style="stroke:#E7E7E7;stroke-width:0.5;" x1="313" x2="535" y1="222.6563" y2="222.6563"/><ellipse cx="323" cy="236.9609" fill="#595959" rx="3" ry="3" style="stroke:#ABABAB;stroke-width:1.0;"/><text fill="#FFFFFF" font-family="sans-serif" font-size="14" lengthAdjust="spacing" textLength="75" x="332" y="241.1895">void setup()</text><ellipse cx="323" cy="254.5703" fill="#595959" rx="3" ry="3" style="stroke:#ABABAB;stroke-width:1.0;"/><text fill="#FFFFFF" font-family="sans-serif" font-size="14" lengthAdjust="spacing" textLength="89" x="332" y="258.7988">void execute()</text><ellipse cx="323" cy="272.1797" fill="#595959" rx="3" ry="3" style="stroke:#ABABAB;stroke-width:1.0;"/><text fill="#FFFFFF" font-family="sans-serif" font-size="14" lengthAdjust="spacing" textLength="94" x="332" y="276.4082">void statistics()</text><rect fill="#7F7F7F" height="6" style="stroke:#A6A6A6;stroke-width:1.0;" width="6" x="320" y="286.7891"/><text fill="#FFFFFF" font-family="sans-serif" font-size="14" lengthAdjust="spacing" textLength="104" x="332" y="294.0176">void addPlayer()</text><rect fill="#7F7F7F" height="6" style="stroke:#A6A6A6;stroke-width:1.0;" width="6" x="320" y="304.3984"/><text fill="#FFFFFF" font-family="sans-serif" font-size="14" lengthAdjust="spacing" textLength="131" x="332" y="311.627">void displayPlayers()</text><rect fill="#7F7F7F" height="6" style="stroke:#A6A6A6;stroke-width:1.0;" width="6" x="320" y="322.0078"/><text fill="#FFFFFF" font-family="sans-serif" font-size="14" lengthAdjust="spacing" textLength="198" x="332" y="329.2363">Player selectPlayer(int counter)</text><rect fill="#7F7F7F" height="6" style="stroke:#A6A6A6;stroke-width:1.0;" width="6" x="320" y="339.6172"/><text fill="#FFFFFF" font-family="sans-serif" font-size="14" lengthAdjust="spacing" textLength="106" x="332" y="346.8457">void setPlayers()</text><rect fill="#7F7F7F" height="6" style="stroke:#A6A6A6;stroke-width:1.0;" width="6" x="320" y="357.2266"/><text fill="#FFFFFF" font-family="sans-serif" font-size="14" lengthAdjust="spacing" textLength="137" x="332" y="364.4551">Player searchPlayer()</text></g><!--MD5=[2cb47ba637a0d19583e6199456f6ad0b]
class Player--><g id="elem_Player"><rect codeLine="23" fill="#0E0E0E" height="136.0469" id="Player" rx="2.5" ry="2.5" style="stroke:#E7E7E7;stroke-width:0.5;" width="161" x="22.5" y="627.5"/><ellipse cx="78.75" cy="643.5" fill="#3D3D3D" rx="11" ry="11" style="stroke:#E7E7E7;stroke-width:1.0;"/><path d="M81.5156,639.375 Q81.6719,639.1563 81.8594,639.0469 Q82.0469,638.9375 82.2656,638.9375 Q82.6406,638.9375 82.875,639.2031 Q83.1094,639.4531 83.1094,640.0625 L83.1094,641.5156 Q83.1094,642.125 82.875,642.3906 Q82.6406,642.6563 82.2656,642.6563 Q81.9219,642.6563 81.7188,642.4531 Q81.5156,642.2656 81.4063,641.75 Q81.3594,641.3906 81.1719,641.2031 Q80.8438,640.8281 80.2344,640.6094 Q79.625,640.3906 79,640.3906 Q78.2344,640.3906 77.5938,640.7188 Q76.9688,641.0469 76.4688,641.7969 Q75.9844,642.5469 75.9844,643.5781 L75.9844,644.6719 Q75.9844,645.9063 76.875,646.7344 Q77.7656,647.5469 79.3594,647.5469 Q80.2969,647.5469 80.9531,647.2969 Q81.3438,647.1406 81.7656,646.7031 Q82.0313,646.4375 82.1719,646.3594 Q82.3281,646.2813 82.5313,646.2813 Q82.8594,646.2813 83.1094,646.5469 Q83.375,646.7969 83.375,647.1406 Q83.375,647.4844 83.0313,647.8906 Q82.5313,648.4688 81.7344,648.7969 Q80.6563,649.25 79.3594,649.25 Q77.8438,649.25 76.6406,648.625 Q75.6563,648.125 74.9688,647.0625 Q74.2813,645.9844 74.2813,644.7031 L74.2813,643.5469 Q74.2813,642.2188 74.8906,641.0781 Q75.5156,639.9219 76.6094,639.3125 Q77.7031,638.6875 78.9375,638.6875 Q79.6719,638.6875 80.3125,638.8594 Q80.9688,639.0156 81.5156,639.375 Z " fill="#FFFFFF"/><text fill="#FFFFFF" font-family="sans-serif" font-size="14" lengthAdjust="spacing" textLength="40" x="99.25" y="649.2285">Player</text><line style="stroke:#E7E7E7;stroke-width:0.5;" x1="23.5" x2="182.5" y1="659.5" y2="659.5"/><rect fill="none" height="6" style="stroke:#A6A6A6;stroke-width:1.0;" width="6" x="30.5" y="670.8047"/><text fill="#FFFFFF" font-family="sans-serif" font-size="14" lengthAdjust="spacing" textLength="30" x="42.5" y="678.0332">int id</text><rect fill="none" height="6" style="stroke:#A6A6A6;stroke-width:1.0;" width="6" x="30.5" y="688.4141"/><text fill="#FFFFFF" font-family="sans-serif" font-size="14" lengthAdjust="spacing" textLength="76" x="42.5" y="695.6426">String name</text><rect fill="none" height="6" style="stroke:#A6A6A6;stroke-width:1.0;" width="6" x="30.5" y="706.0234"/><text fill="#FFFFFF" font-family="sans-serif" font-size="14" lengthAdjust="spacing" textLength="66" x="42.5" y="713.252">Mark mark</text><line style="stroke:#E7E7E7;stroke-width:0.5;" x1="23.5" x2="182.5" y1="720.3281" y2="720.3281"/><ellipse cx="33.5" cy="734.6328" fill="#595959" rx="3" ry="3" style="stroke:#ABABAB;stroke-width:1.0;"/><text fill="#FFFFFF" font-family="sans-serif" font-size="14" lengthAdjust="spacing" textLength="126" x="42.5" y="738.8613">Player(String name)</text><ellipse cx="33.5" cy="752.2422" fill="#595959" rx="3" ry="3" style="stroke:#ABABAB;stroke-width:1.0;"/><text fill="#FFFFFF" font-family="sans-serif" font-size="14" lengthAdjust="spacing" textLength="135" x="42.5" y="756.4707">Coordinate putMark()</text></g><!--MD5=[d75b0a238b734941260681f0026bbb88]
class Round--><g id="elem_Round"><rect codeLine="32" fill="#0E0E0E" height="171.2656" id="Round" rx="2.5" ry="2.5" style="stroke:#E7E7E7;stroke-width:0.5;" width="463" x="218.5" y="610"/><ellipse cx="424.75" cy="626" fill="#3D3D3D" rx="11" ry="11" style="stroke:#E7E7E7;stroke-width:1.0;"/><path d="M427.5156,621.875 Q427.6719,621.6563 427.8594,621.5469 Q428.0469,621.4375 428.2656,621.4375 Q428.6406,621.4375 428.875,621.7031 Q429.1094,621.9531 429.1094,622.5625 L429.1094,624.0156 Q429.1094,624.625 428.875,624.8906 Q428.6406,625.1563 428.2656,625.1563 Q427.9219,625.1563 427.7188,624.9531 Q427.5156,624.7656 427.4063,624.25 Q427.3594,623.8906 427.1719,623.7031 Q426.8438,623.3281 426.2344,623.1094 Q425.625,622.8906 425,622.8906 Q424.2344,622.8906 423.5938,623.2188 Q422.9688,623.5469 422.4688,624.2969 Q421.9844,625.0469 421.9844,626.0781 L421.9844,627.1719 Q421.9844,628.4063 422.875,629.2344 Q423.7656,630.0469 425.3594,630.0469 Q426.2969,630.0469 426.9531,629.7969 Q427.3438,629.6406 427.7656,629.2031 Q428.0313,628.9375 428.1719,628.8594 Q428.3281,628.7813 428.5313,628.7813 Q428.8594,628.7813 429.1094,629.0469 Q429.375,629.2969 429.375,629.6406 Q429.375,629.9844 429.0313,630.3906 Q428.5313,630.9688 427.7344,631.2969 Q426.6563,631.75 425.3594,631.75 Q423.8438,631.75 422.6406,631.125 Q421.6563,630.625 420.9688,629.5625 Q420.2813,628.4844 420.2813,627.2031 L420.2813,626.0469 Q420.2813,624.7188 420.8906,623.5781 Q421.5156,622.4219 422.6094,621.8125 Q423.7031,621.1875 424.9375,621.1875 Q425.6719,621.1875 426.3125,621.3594 Q426.9688,621.5156 427.5156,621.875 Z " fill="#FFFFFF"/><text fill="#FFFFFF" font-family="sans-serif" font-size="14" lengthAdjust="spacing" textLength="42" x="445.25" y="631.7285">Round</text><line style="stroke:#E7E7E7;stroke-width:0.5;" x1="219.5" x2="680.5" y1="642" y2="642"/><rect fill="none" height="6" style="stroke:#A6A6A6;stroke-width:1.0;" width="6" x="226.5" y="653.3047"/><text fill="#FFFFFF" font-family="sans-serif" font-size="14" lengthAdjust="spacing" textLength="79" x="238.5" y="660.5332">Board board</text><rect fill="none" height="6" style="stroke:#A6A6A6;stroke-width:1.0;" width="6" x="226.5" y="670.9141"/><text fill="#FFFFFF" font-family="sans-serif" font-size="14" lengthAdjust="spacing" textLength="91" x="238.5" y="678.1426">Player player1</text><rect fill="none" height="6" style="stroke:#A6A6A6;stroke-width:1.0;" width="6" x="226.5" y="688.5234"/><text fill="#FFFFFF" font-family="sans-serif" font-size="14" lengthAdjust="spacing" textLength="91" x="238.5" y="695.752">Player player2</text><rect fill="none" height="6" style="stroke:#A6A6A6;stroke-width:1.0;" width="6" x="226.5" y="706.1328"/><text fill="#FFFFFF" font-family="sans-serif" font-size="14" lengthAdjust="spacing" textLength="100" x="238.5" y="713.3613">Statistic statistic</text><line style="stroke:#E7E7E7;stroke-width:0.5;" x1="219.5" x2="680.5" y1="720.4375" y2="720.4375"/><ellipse cx="229.5" cy="734.7422" fill="#595959" rx="3" ry="3" style="stroke:#ABABAB;stroke-width:1.0;"/><text fill="#FFFFFF" font-family="sans-serif" font-size="14" lengthAdjust="spacing" textLength="437" x="238.5" y="738.9707">Round(Board board, Player player1, Player player2, Statistic statistic)</text><ellipse cx="229.5" cy="752.3516" fill="#595959" rx="3" ry="3" style="stroke:#ABABAB;stroke-width:1.0;"/><text fill="#FFFFFF" font-family="sans-serif" font-size="14" lengthAdjust="spacing" textLength="138" x="238.5" y="756.5801">void executeRounds()</text><rect fill="#7F7F7F" height="6" style="stroke:#A6A6A6;stroke-width:1.0;" width="6" x="226.5" y="766.9609"/><text fill="#FFFFFF" font-family="sans-serif" font-size="14" lengthAdjust="spacing" textLength="202" x="238.5" y="774.1895">void executeTurn(Player player)</text></g><!--MD5=[2e75c5381830ed69fc62cd395939a1b2]
class Statistic--><g id="elem_Statistic"><rect codeLine="43" fill="#0E0E0E" height="100.8281" id="Statistic" rx="2.5" ry="2.5" style="stroke:#E7E7E7;stroke-width:0.5;" width="237" x="228.5" y="440.5"/><ellipse cx="318.25" cy="456.5" fill="#3D3D3D" rx="11" ry="11" style="stroke:#E7E7E7;stroke-width:1.0;"/><path d="M321.0156,452.375 Q321.1719,452.1563 321.3594,452.0469 Q321.5469,451.9375 321.7656,451.9375 Q322.1406,451.9375 322.375,452.2031 Q322.6094,452.4531 322.6094,453.0625 L322.6094,454.5156 Q322.6094,455.125 322.375,455.3906 Q322.1406,455.6563 321.7656,455.6563 Q321.4219,455.6563 321.2188,455.4531 Q321.0156,455.2656 320.9063,454.75 Q320.8594,454.3906 320.6719,454.2031 Q320.3438,453.8281 319.7344,453.6094 Q319.125,453.3906 318.5,453.3906 Q317.7344,453.3906 317.0938,453.7188 Q316.4688,454.0469 315.9688,454.7969 Q315.4844,455.5469 315.4844,456.5781 L315.4844,457.6719 Q315.4844,458.9063 316.375,459.7344 Q317.2656,460.5469 318.8594,460.5469 Q319.7969,460.5469 320.4531,460.2969 Q320.8438,460.1406 321.2656,459.7031 Q321.5313,459.4375 321.6719,459.3594 Q321.8281,459.2813 322.0313,459.2813 Q322.3594,459.2813 322.6094,459.5469 Q322.875,459.7969 322.875,460.1406 Q322.875,460.4844 322.5313,460.8906 Q322.0313,461.4688 321.2344,461.7969 Q320.1563,462.25 318.8594,462.25 Q317.3438,462.25 316.1406,461.625 Q315.1563,461.125 314.4688,460.0625 Q313.7813,458.9844 313.7813,457.7031 L313.7813,456.5469 Q313.7813,455.2188 314.3906,454.0781 Q315.0156,452.9219 316.1094,452.3125 Q317.2031,451.6875 318.4375,451.6875 Q319.1719,451.6875 319.8125,451.8594 Q320.4688,452.0156 321.0156,452.375 Z " fill="#FFFFFF"/><text fill="#FFFFFF" font-family="sans-serif" font-size="14" lengthAdjust="spacing" textLength="49" x="338.75" y="462.2285">Statistic</text><line style="stroke:#E7E7E7;stroke-width:0.5;" x1="229.5" x2="464.5" y1="472.5" y2="472.5"/><rect fill="none" height="6" style="stroke:#A6A6A6;stroke-width:1.0;" width="6" x="236.5" y="483.8047"/><text fill="#FFFFFF" font-family="sans-serif" font-size="14" lengthAdjust="spacing" textLength="167" x="248.5" y="491.0332">ArrayList&lt;String&gt; statistics</text><line style="stroke:#E7E7E7;stroke-width:0.5;" x1="229.5" x2="464.5" y1="498.1094" y2="498.1094"/><ellipse cx="239.5" cy="512.4141" fill="#595959" rx="3" ry="3" style="stroke:#ABABAB;stroke-width:1.0;"/><text fill="#FFFFFF" font-family="sans-serif" font-size="14" lengthAdjust="spacing" textLength="211" x="248.5" y="516.6426">void addStatistic(String message)</text><ellipse cx="239.5" cy="530.0234" fill="#595959" rx="3" ry="3" style="stroke:#ABABAB;stroke-width:1.0;"/><text fill="#FFFFFF" font-family="sans-serif" font-size="14" lengthAdjust="spacing" textLength="140" x="248.5" y="534.252">void displayStatistics()</text></g><!--MD5=[9563755d011c5cec7ec66dc53565a59e]
class Board--><g id="elem_Board"><rect codeLine="51" fill="#0E0E0E" height="276.9219" id="Board" rx="2.5" ry="2.5" style="stroke:#E7E7E7;stroke-width:0.5;" width="325" x="714.5" y="86"/><ellipse cx="853.75" cy="102" fill="#3D3D3D" rx="11" ry="11" style="stroke:#E7E7E7;stroke-width:1.0;"/><path d="M856.5156,97.875 Q856.6719,97.6563 856.8594,97.5469 Q857.0469,97.4375 857.2656,97.4375 Q857.6406,97.4375 857.875,97.7031 Q858.1094,97.9531 858.1094,98.5625 L858.1094,100.0156 Q858.1094,100.625 857.875,100.8906 Q857.6406,101.1563 857.2656,101.1563 Q856.9219,101.1563 856.7188,100.9531 Q856.5156,100.7656 856.4063,100.25 Q856.3594,99.8906 856.1719,99.7031 Q855.8438,99.3281 855.2344,99.1094 Q854.625,98.8906 854,98.8906 Q853.2344,98.8906 852.5938,99.2188 Q851.9688,99.5469 851.4688,100.2969 Q850.9844,101.0469 850.9844,102.0781 L850.9844,103.1719 Q850.9844,104.4063 851.875,105.2344 Q852.7656,106.0469 854.3594,106.0469 Q855.2969,106.0469 855.9531,105.7969 Q856.3438,105.6406 856.7656,105.2031 Q857.0313,104.9375 857.1719,104.8594 Q857.3281,104.7813 857.5313,104.7813 Q857.8594,104.7813 858.1094,105.0469 Q858.375,105.2969 858.375,105.6406 Q858.375,105.9844 858.0313,106.3906 Q857.5313,106.9688 856.7344,107.2969 Q855.6563,107.75 854.3594,107.75 Q852.8438,107.75 851.6406,107.125 Q850.6563,106.625 849.9688,105.5625 Q849.2813,104.4844 849.2813,103.2031 L849.2813,102.0469 Q849.2813,100.7188 849.8906,99.5781 Q850.5156,98.4219 851.6094,97.8125 Q852.7031,97.1875 853.9375,97.1875 Q854.6719,97.1875 855.3125,97.3594 Q855.9688,97.5156 856.5156,97.875 Z " fill="#FFFFFF"/><text fill="#FFFFFF" font-family="sans-serif" font-size="14" lengthAdjust="spacing" textLength="38" x="874.25" y="107.7285">Board</text><line style="stroke:#E7E7E7;stroke-width:0.5;" x1="715.5" x2="1038.5" y1="118" y2="118"/><rect fill="none" height="6" style="stroke:#A6A6A6;stroke-width:1.0;" width="6" x="722.5" y="129.3047"/><text fill="#FFFFFF" font-family="sans-serif" font-size="14" lengthAdjust="spacing" textLength="90" x="734.5" y="136.5332">int dimensions</text><rect fill="none" height="6" style="stroke:#A6A6A6;stroke-width:1.0;" width="6" x="722.5" y="146.9141"/><text fill="#FFFFFF" font-family="sans-serif" font-size="14" lengthAdjust="spacing" textLength="97" x="734.5" y="154.1426">Space[][] board</text><line style="stroke:#E7E7E7;stroke-width:0.5;" x1="715.5" x2="1038.5" y1="161.2188" y2="161.2188"/><ellipse cx="725.5" cy="175.5234" fill="#595959" rx="3" ry="3" style="stroke:#ABABAB;stroke-width:1.0;"/><text fill="#FFFFFF" font-family="sans-serif" font-size="14" lengthAdjust="spacing" textLength="48" x="734.5" y="179.752">Board()</text><rect fill="#7F7F7F" height="6" style="stroke:#A6A6A6;stroke-width:1.0;" width="6" x="722.5" y="190.1328"/><text fill="#FFFFFF" font-family="sans-serif" font-size="14" lengthAdjust="spacing" textLength="127" x="734.5" y="197.3613">void initializeBoard()</text><ellipse cx="725.5" cy="210.7422" fill="#595959" rx="3" ry="3" style="stroke:#ABABAB;stroke-width:1.0;"/><text fill="#FFFFFF" font-family="sans-serif" font-size="14" lengthAdjust="spacing" textLength="71" x="734.5" y="214.9707">void paint()</text><ellipse cx="725.5" cy="228.3516" fill="#595959" rx="3" ry="3" style="stroke:#ABABAB;stroke-width:1.0;"/><text fill="#FFFFFF" font-family="sans-serif" font-size="14" lengthAdjust="spacing" textLength="299" x="734.5" y="232.5801">boolean validateChoice(Coordinate coordinate)</text><ellipse cx="725.5" cy="245.9609" fill="#595959" rx="3" ry="3" style="stroke:#ABABAB;stroke-width:1.0;"/><text fill="#FFFFFF" font-family="sans-serif" font-size="14" lengthAdjust="spacing" textLength="203" x="734.5" y="250.1895">boolean verifyChoiceExistence()</text><rect fill="#7F7F7F" height="6" style="stroke:#A6A6A6;stroke-width:1.0;" width="6" x="722.5" y="260.5703"/><text fill="#FFFFFF" font-family="sans-serif" font-size="14" lengthAdjust="spacing" textLength="220" x="734.5" y="267.7988">boolean verifyColumns(Mark mark)</text><rect fill="#7F7F7F" height="6" style="stroke:#A6A6A6;stroke-width:1.0;" width="6" x="722.5" y="278.1797"/><text fill="#FFFFFF" font-family="sans-serif" font-size="14" lengthAdjust="spacing" textLength="199" x="734.5" y="285.4082">boolean verifyRows(Mark mark)</text><rect fill="#7F7F7F" height="6" style="stroke:#A6A6A6;stroke-width:1.0;" width="6" x="722.5" y="295.7891"/><text fill="#FFFFFF" font-family="sans-serif" font-size="14" lengthAdjust="spacing" textLength="221" x="734.5" y="303.0176">boolean verifyDiagonal(Mark mark)</text><rect fill="#7F7F7F" height="6" style="stroke:#A6A6A6;stroke-width:1.0;" width="6" x="722.5" y="313.3984"/><text fill="#FFFFFF" font-family="sans-serif" font-size="14" lengthAdjust="spacing" textLength="274" x="734.5" y="320.627">boolean verifyReverseDiagonal(Mark mark)</text><ellipse cx="725.5" cy="334.0078" fill="#595959" rx="3" ry="3" style="stroke:#ABABAB;stroke-width:1.0;"/><text fill="#FFFFFF" font-family="sans-serif" font-size="14" lengthAdjust="spacing" textLength="239" x="734.5" y="338.2363">boolean determineWinner(Mark mark)</text><ellipse cx="725.5" cy="351.6172" fill="#595959" rx="3" ry="3" style="stroke:#ABABAB;stroke-width:1.0;"/><text fill="#FFFFFF" font-family="sans-serif" font-size="14" lengthAdjust="spacing" textLength="299" x="734.5" y="355.8457">void update(Mark mark, Coordinate coordinate)</text></g><!--MD5=[e4951a412b0edb2e6f8e49ce06f9a46d]
class Space--><g id="elem_Space"><rect codeLine="68" fill="#0E0E0E" height="118.4375" id="Space" rx="2.5" ry="2.5" style="stroke:#E7E7E7;stroke-width:0.5;" width="291" x="731.5" y="432"/><ellipse cx="852.75" cy="448" fill="#3D3D3D" rx="11" ry="11" style="stroke:#E7E7E7;stroke-width:1.0;"/><path d="M855.5156,443.875 Q855.6719,443.6563 855.8594,443.5469 Q856.0469,443.4375 856.2656,443.4375 Q856.6406,443.4375 856.875,443.7031 Q857.1094,443.9531 857.1094,444.5625 L857.1094,446.0156 Q857.1094,446.625 856.875,446.8906 Q856.6406,447.1563 856.2656,447.1563 Q855.9219,447.1563 855.7188,446.9531 Q855.5156,446.7656 855.4063,446.25 Q855.3594,445.8906 855.1719,445.7031 Q854.8438,445.3281 854.2344,445.1094 Q853.625,444.8906 853,444.8906 Q852.2344,444.8906 851.5938,445.2188 Q850.9688,445.5469 850.4688,446.2969 Q849.9844,447.0469 849.9844,448.0781 L849.9844,449.1719 Q849.9844,450.4063 850.875,451.2344 Q851.7656,452.0469 853.3594,452.0469 Q854.2969,452.0469 854.9531,451.7969 Q855.3438,451.6406 855.7656,451.2031 Q856.0313,450.9375 856.1719,450.8594 Q856.3281,450.7813 856.5313,450.7813 Q856.8594,450.7813 857.1094,451.0469 Q857.375,451.2969 857.375,451.6406 Q857.375,451.9844 857.0313,452.3906 Q856.5313,452.9688 855.7344,453.2969 Q854.6563,453.75 853.3594,453.75 Q851.8438,453.75 850.6406,453.125 Q849.6563,452.625 848.9688,451.5625 Q848.2813,450.4844 848.2813,449.2031 L848.2813,448.0469 Q848.2813,446.7188 848.8906,445.5781 Q849.5156,444.4219 850.6094,443.8125 Q851.7031,443.1875 852.9375,443.1875 Q853.6719,443.1875 854.3125,443.3594 Q854.9688,443.5156 855.5156,443.875 Z " fill="#FFFFFF"/><text fill="#FFFFFF" font-family="sans-serif" font-size="14" lengthAdjust="spacing" textLength="40" x="873.25" y="453.7285">Space</text><line style="stroke:#E7E7E7;stroke-width:0.5;" x1="732.5" x2="1021.5" y1="464" y2="464"/><rect fill="none" height="6" style="stroke:#A6A6A6;stroke-width:1.0;" width="6" x="739.5" y="475.3047"/><text fill="#FFFFFF" font-family="sans-serif" font-size="14" lengthAdjust="spacing" textLength="66" x="751.5" y="482.5332">Mark mark</text><rect fill="none" height="6" style="stroke:#A6A6A6;stroke-width:1.0;" width="6" x="739.5" y="492.9141"/><text fill="#FFFFFF" font-family="sans-serif" font-size="14" lengthAdjust="spacing" textLength="141" x="751.5" y="500.1426">Coordinate coordinate</text><line style="stroke:#E7E7E7;stroke-width:0.5;" x1="732.5" x2="1021.5" y1="507.2188" y2="507.2188"/><ellipse cx="742.5" cy="521.5234" fill="#595959" rx="3" ry="3" style="stroke:#ABABAB;stroke-width:1.0;"/><text fill="#FFFFFF" font-family="sans-serif" font-size="14" lengthAdjust="spacing" textLength="265" x="751.5" y="525.752">Space(Mark mark, Coordinate coordinate)</text><ellipse cx="742.5" cy="539.1328" fill="#595959" rx="3" ry="3" style="stroke:#ABABAB;stroke-width:1.0;"/><text fill="#FFFFFF" font-family="sans-serif" font-size="14" lengthAdjust="spacing" textLength="132" x="751.5" y="543.3613">boolean isAvailable()</text></g><!--MD5=[8c7d7abc12e214c3cc12c9ab70edee11]
class Coordinate--><g id="elem_Coordinate"><rect codeLine="76" fill="#0E0E0E" height="100.8281" id="Coordinate" rx="2.5" ry="2.5" style="stroke:#E7E7E7;stroke-width:0.5;" width="263" x="716.5" y="645"/><ellipse cx="808.75" cy="661" fill="#3D3D3D" rx="11" ry="11" style="stroke:#E7E7E7;stroke-width:1.0;"/><path d="M811.5156,656.875 Q811.6719,656.6563 811.8594,656.5469 Q812.0469,656.4375 812.2656,656.4375 Q812.6406,656.4375 812.875,656.7031 Q813.1094,656.9531 813.1094,657.5625 L813.1094,659.0156 Q813.1094,659.625 812.875,659.8906 Q812.6406,660.1563 812.2656,660.1563 Q811.9219,660.1563 811.7188,659.9531 Q811.5156,659.7656 811.4063,659.25 Q811.3594,658.8906 811.1719,658.7031 Q810.8438,658.3281 810.2344,658.1094 Q809.625,657.8906 809,657.8906 Q808.2344,657.8906 807.5938,658.2188 Q806.9688,658.5469 806.4688,659.2969 Q805.9844,660.0469 805.9844,661.0781 L805.9844,662.1719 Q805.9844,663.4063 806.875,664.2344 Q807.7656,665.0469 809.3594,665.0469 Q810.2969,665.0469 810.9531,664.7969 Q811.3438,664.6406 811.7656,664.2031 Q812.0313,663.9375 812.1719,663.8594 Q812.3281,663.7813 812.5313,663.7813 Q812.8594,663.7813 813.1094,664.0469 Q813.375,664.2969 813.375,664.6406 Q813.375,664.9844 813.0313,665.3906 Q812.5313,665.9688 811.7344,666.2969 Q810.6563,666.75 809.3594,666.75 Q807.8438,666.75 806.6406,666.125 Q805.6563,665.625 804.9688,664.5625 Q804.2813,663.4844 804.2813,662.2031 L804.2813,661.0469 Q804.2813,659.7188 804.8906,658.5781 Q805.5156,657.4219 806.6094,656.8125 Q807.7031,656.1875 808.9375,656.1875 Q809.6719,656.1875 810.3125,656.3594 Q810.9688,656.5156 811.5156,656.875 Z " fill="#FFFFFF"/><text fill="#FFFFFF" font-family="sans-serif" font-size="14" lengthAdjust="spacing" textLength="70" x="829.25" y="666.7285">Coordinate</text><line style="stroke:#E7E7E7;stroke-width:0.5;" x1="717.5" x2="978.5" y1="677" y2="677"/><rect fill="none" height="6" style="stroke:#A6A6A6;stroke-width:1.0;" width="6" x="724.5" y="688.3047"/><text fill="#FFFFFF" font-family="sans-serif" font-size="14" lengthAdjust="spacing" textLength="76" x="736.5" y="695.5332">int positionX</text><rect fill="none" height="6" style="stroke:#A6A6A6;stroke-width:1.0;" width="6" x="724.5" y="705.9141"/><text fill="#FFFFFF" font-family="sans-serif" font-size="14" lengthAdjust="spacing" textLength="77" x="736.5" y="713.1426">int positionY</text><line style="stroke:#E7E7E7;stroke-width:0.5;" x1="717.5" x2="978.5" y1="720.2188" y2="720.2188"/><ellipse cx="727.5" cy="734.5234" fill="#595959" rx="3" ry="3" style="stroke:#ABABAB;stroke-width:1.0;"/><text fill="#FFFFFF" font-family="sans-serif" font-size="14" lengthAdjust="spacing" textLength="237" x="736.5" y="738.752">Coordinate(int positionX,int positionY)</text></g><!--MD5=[140f0262991170c14649b45d1408dce7]
class Mark--><g id="elem_Mark"><rect codeLine="85" fill="#0E0E0E" height="171.2656" id="Mark" rx="2.5" ry="2.5" style="stroke:#E7E7E7;stroke-width:0.5;" width="224" x="431" y="841"/><ellipse cx="523.25" cy="857" fill="#545454" rx="11" ry="11" style="stroke:#E7E7E7;stroke-width:1.0;"/><path d="M522.1094,857.7969 L522.1094,860.2969 L526.4375,860.2969 L526.4375,859.375 Q526.4375,858.7656 526.6719,858.5 Q526.9219,858.2344 527.2969,858.2344 Q527.6719,858.2344 527.9063,858.5 Q528.1406,858.7656 528.1406,859.375 L528.1406,862 L520.1406,862 Q519.5156,862 519.25,861.7656 Q519,861.5313 519,861.1406 Q519,860.7656 519.2656,860.5313 Q519.5313,860.2969 520.1406,860.2969 L520.4063,860.2969 L520.4063,853.6406 L520.1406,853.6406 Q519.5156,853.6406 519.25,853.4063 Q519,853.1719 519,852.7813 Q519,852.4063 519.25,852.1719 Q519.5156,851.9375 520.1406,851.9375 L527.7656,851.9375 L527.7656,854.5313 Q527.7656,855.1406 527.5313,855.4063 Q527.3125,855.6563 526.9219,855.6563 Q526.5469,855.6563 526.3125,855.4063 Q526.0781,855.1406 526.0781,854.5313 L526.0781,853.6406 L522.1094,853.6406 L522.1094,856.0938 L523.5938,856.0938 Q523.5938,855.4375 523.7188,855.25 Q523.9844,854.8438 524.4531,854.8438 Q524.8281,854.8438 525.0625,855.1094 Q525.2969,855.3594 525.2969,855.9688 L525.2969,857.9375 Q525.2969,858.4844 525.1719,858.6719 Q524.9063,859.0625 524.4531,859.0625 Q523.9844,859.0625 523.7188,858.6563 Q523.5938,858.4688 523.5938,857.7969 L522.1094,857.7969 Z " fill="#FFFFFF"/><text fill="#FFFFFF" font-family="sans-serif" font-size="14" lengthAdjust="spacing" textLength="31" x="543.75" y="862.7285">Mark</text><line style="stroke:#E7E7E7;stroke-width:0.5;" x1="432" x2="654" y1="873" y2="873"/><text fill="#FFFFFF" font-family="sans-serif" font-size="14" lengthAdjust="spacing" textLength="38" x="451" y="891.5332">ZERO</text><text fill="#FFFFFF" font-family="sans-serif" font-size="14" lengthAdjust="spacing" textLength="8" x="451" y="909.1426">X</text><text fill="#FFFFFF" font-family="sans-serif" font-size="14" lengthAdjust="spacing" textLength="47" x="451" y="926.752">EMPTY</text><text fill="#FFFFFF" font-family="sans-serif" font-size="14" lengthAdjust="spacing" textLength="4" x="451" y="944.3613"> </text><rect fill="none" height="6" style="stroke:#A6A6A6;stroke-width:1.0;" width="6" x="439" y="954.7422"/><text fill="#FFFFFF" font-family="sans-serif" font-size="14" lengthAdjust="spacing" textLength="75" x="451" y="961.9707">String value</text><line style="stroke:#E7E7E7;stroke-width:0.5;" x1="432" x2="654" y1="969.0469" y2="969.0469"/><ellipse cx="442" cy="983.3516" fill="#595959" rx="3" ry="3" style="stroke:#ABABAB;stroke-width:1.0;"/><text fill="#FFFFFF" font-family="sans-serif" font-size="14" lengthAdjust="spacing" textLength="116" x="451" y="987.5801">Mark(String value)</text><ellipse cx="442" cy="1000.9609" fill="#595959" rx="3" ry="3" style="stroke:#ABABAB;stroke-width:1.0;"/><text fill="#FFFFFF" font-family="sans-serif" font-size="14" lengthAdjust="spacing" textLength="198" x="451" y="1005.1895">boolean isAvailable(Mark mark)</text></g><!--MD5=[cf5572f1e9ebe5a1625b5a168303c174]
link Board to TTTGame--><g id="link_Board_TTTGame"><path codeLine="98" d="M714.33,224.5 C659.41,224.5 604.49,224.5 549.57,224.5 " fill="none" id="Board-to-TTTGame" style="stroke:#E7E7E7;stroke-width:1.0;"/><polygon fill="#E7E7E7" points="536.37,224.5,542.37,228.5,548.37,224.5,542.37,220.5,536.37,224.5" style="stroke:#E7E7E7;stroke-width:1.0;"/></g><!--MD5=[e842eb6168da7c3d23d4a58737904d12]
reverse link TTTGame to Player--><g id="link_TTTGame_Player"><path codeLine="99" d="M302.12,327.04 C269.59,358.31 236.44,394.46 211,432 C169.74,492.88 139.88,572 122.15,627.39 " fill="none" id="TTTGame-backto-Player" style="stroke:#E7E7E7;stroke-width:1.0;"/><polygon fill="#E7E7E7" points="311.73,317.92,304.625,319.1525,303.03,326.185,310.135,324.9525,311.73,317.92" style="stroke:#E7E7E7;stroke-width:1.0;"/></g><!--MD5=[5ba8528c163db85703f2f96d9a8c8ad7]
reverse link TTTGame to Round--><g id="link_TTTGame_Round"><path codeLine="100" d="M474.35,385.31 C477.87,400.97 480.86,416.71 483,432 C490.27,483.94 488.88,497.89 483,550 C480.79,569.56 476.96,590.34 472.67,609.85 " fill="none" id="TTTGame-backto-Round" style="stroke:#E7E7E7;stroke-width:1.0;"/><polygon fill="#E7E7E7" points="471.29,372.19,468.7599,378.9427,474.0201,383.8753,476.5502,377.1226,471.29,372.19" style="stroke:#E7E7E7;stroke-width:1.0;"/></g><!--MD5=[cddd1e96249049c7fae7104dde718151]
reverse link TTTGame to Statistic--><g id="link_TTTGame_Statistic"><path codeLine="101" d="M377.67,384.64 C371.83,404.7 366.24,423.9 361.47,440.28 " fill="none" id="TTTGame-backto-Statistic" style="stroke:#E7E7E7;stroke-width:1.0;"/><polygon fill="#E7E7E7" points="381.33,372.06,375.8145,376.7053,377.9811,383.5832,383.4967,378.9379,381.33,372.06" style="stroke:#E7E7E7;stroke-width:1.0;"/></g><!--MD5=[4992af0640bfca5d575383a64fee00a3]
reverse link Board to Space--><g id="link_Board_Space"><path codeLine="103" d="M877,376.19 C877,395.91 877,415.06 877,431.86 " fill="none" id="Board-backto-Space" style="stroke:#E7E7E7;stroke-width:1.0;"/><polygon fill="#E7E7E7" points="877,363.17,873,369.17,877,375.17,881,369.17,877,363.17" style="stroke:#E7E7E7;stroke-width:1.0;"/></g><!--MD5=[f1909494aa7f1c858573c50b3713f78d]
reverse link Space to Coordinate--><g id="link_Space_Coordinate"><path codeLine="105" d="M866.83,562.98 C862.97,589.96 858.66,620.09 855.13,644.7 " fill="none" id="Space-backto-Coordinate" style="stroke:#E7E7E7;stroke-width:1.0;"/><polygon fill="#E7E7E7" points="868.69,550.03,863.88,555.4025,866.9893,561.9089,871.7992,556.5363,868.69,550.03" style="stroke:#E7E7E7;stroke-width:1.0;"/></g><!--MD5=[e15543f5ff9aff0daf07ed30621afcbc]
reverse link Board to Round--><g id="link_Board_Round"><path codeLine="107" d="M748.35,366.8 C676.27,445.98 588.78,542.07 527.23,609.67 " fill="none" id="Board-backto-Round" style="stroke:#E7E7E7;stroke-width:1.0;"/><polygon fill="#E7E7E7" points="751.77,363.05,742.76,367.0274,748.4102,366.7529,748.6847,372.4031,751.77,363.05" style="stroke:#E7E7E7;stroke-width:1.0;"/></g><!--MD5=[015547f7ddbd9564a38749abc8e7406b]
link Round to Player--><g id="link_Round_Player"><path codeLine="108" d="M218.24,695.5 C208.42,695.5 198.61,695.5 188.79,695.5 " fill="none" id="Round-to-Player" style="stroke:#E7E7E7;stroke-width:1.0;"/><polygon fill="#E7E7E7" points="183.65,695.5,192.65,699.5,188.65,695.5,192.65,691.5,183.65,695.5" style="stroke:#E7E7E7;stroke-width:1.0;"/></g><!--MD5=[35206761755b5243584db8b9be19cb8c]
reverse link Statistic to Round--><g id="link_Statistic_Round"><path codeLine="110" d="M374.69,546.44 C384.62,565.97 396.07,588.48 407,609.96 " fill="none" id="Statistic-backto-Round" style="stroke:#E7E7E7;stroke-width:1.0;"/><polygon fill="#E7E7E7" points="372.2,541.54,372.7226,551.375,374.4703,545.9949,379.8504,547.7426,372.2,541.54" style="stroke:#E7E7E7;stroke-width:1.0;"/></g><!--MD5=[da1c7d234e4a1b3c4e4869a83f583945]
link Player to Mark--><g id="link_Player_Mark"><path codeLine="112" d="M176.03,763.64 C184.2,769.87 192.6,775.79 201,781 C271.59,824.83 357.8,861.16 426.01,886.43 " fill="none" id="Player-to-Mark" style="stroke:#E7E7E7;stroke-width:1.0;"/><polygon fill="#E7E7E7" points="430.89,888.23,423.8239,881.3693,426.1973,886.5041,421.0625,888.8776,430.89,888.23" style="stroke:#E7E7E7;stroke-width:1.0;"/></g><!--MD5=[e8809bb5d78cb3454f9368284c31c969]
link Space to Mark--><g id="link_Space_Mark"><path codeLine="113" d="M954.49,550.19 C971.72,567.37 987.63,587.63 997,610 C1026.38,680.09 1041.86,719.65 997,781 C956.85,835.91 780.9,879.91 660.21,904.35 " fill="none" id="Space-to-Mark" style="stroke:#E7E7E7;stroke-width:1.0;"/><polygon fill="#E7E7E7" points="655.23,905.36,664.8421,907.5065,660.1318,904.3739,663.2644,899.6636,655.23,905.36" style="stroke:#E7E7E7;stroke-width:1.0;"/></g><!--MD5=[6b0980e174b86affb8971bc0269326f5]
@startuml ClassModel

skinparam monochrome reverse

package tictactoe{
    class TTTGame{
        -Board board
        -Round round
        -Statistic statistic
        -Player player1
        -Player player2
        -ArrayList<Player> playersList

        +void setup()
        +void execute()
        +void statistics()
        -void addPlayer()
        -void displayPlayers()
        -Player selectPlayer(int counter)
        -void setPlayers()
        -Player searchPlayer()
    }

    class Player{
        -int id
        -String name
        -Mark mark

        +Player(String name)
        +Coordinate putMark()
    }

    class Round{
        -Board board
        -Player player1
        -Player player2
        -Statistic statistic

        +Round(Board board, Player player1, Player player2, Statistic statistic)
        +void executeRounds()
        -void executeTurn(Player player)
    }

    class Statistic{
        -ArrayList<String> statistics

        +void addStatistic(String message)
        +void displayStatistics()
    }

    package board{
        class Board{
            -int dimensions
            -Space[][] board

            +Board()
            -void initializeBoard()
            +void paint()
            +boolean validateChoice(Coordinate coordinate)
            +boolean verifyChoiceExistence()
            -boolean verifyColumns(Mark mark)
            -boolean verifyRows(Mark mark)
            -boolean verifyDiagonal(Mark mark)
            -boolean verifyReverseDiagonal(Mark mark)
            +boolean determineWinner(Mark mark)
            +void update(Mark mark, Coordinate coordinate)
        }

        class Space{
            -Mark mark
            -Coordinate coordinate

            +Space(Mark mark, Coordinate coordinate)
            +boolean isAvailable()
        }

        class Coordinate{
            -int positionX
            -int positionY

            +Coordinate(int positionX,int positionY)
        }
    }

    package utils{
        enum Mark{
            ZERO
            X
            EMPTY

            -String value

            +Mark(String value)
            +boolean isAvailable(Mark mark)
        }
    }
}

TTTGame *-left- Board
TTTGame *- - Player
TTTGame *- - Round
TTTGame *- - Statistic

Board *- - Space

Space *- - Coordinate

Round -left-> Board
Round -right-> Player

Statistic <- - Round

Player - -> Mark
Space - -> Mark

@enduml

PlantUML version 1.2022.7(Mon Aug 22 11:01:30 CST 2022)
(GPL source distribution)
Java Runtime: Java(TM) SE Runtime Environment
JVM: Java HotSpot(TM) 64-Bit Server VM
Default Encoding: Cp1252
Language: en
Country: US
--></g></svg>