<?xml version="1.0" encoding="UTF-8" standalone="no"?><svg xmlns="http://www.w3.org/2000/svg" xmlns:xlink="http://www.w3.org/1999/xlink" contentStyleType="text/css" height="825px" preserveAspectRatio="none" style="width:1331px;height:825px;background:#FFFFFF;" version="1.1" viewBox="0 0 1331 825" width="1331px" zoomAndPan="magnify"><defs/><g><!--cluster tictactoe--><g id="cluster_tictactoe"><path d="M8.5,6 L85.5,6 A3.75,3.75 0 0 1 88,8.5 L95,28.2969 L1321.5,28.2969 A2.5,2.5 0 0 1 1324,30.7969 L1324,815.5 A2.5,2.5 0 0 1 1321.5,818 L8.5,818 A2.5,2.5 0 0 1 6,815.5 L6,8.5 A2.5,2.5 0 0 1 8.5,6 " fill="none" style="stroke:#000000;stroke-width:1.5;"/><line style="stroke:#000000;stroke-width:1.5;" x1="6" x2="95" y1="28.2969" y2="28.2969"/><text fill="#000000" font-family="sans-serif" font-size="14" font-weight="bold" lengthAdjust="spacing" textLength="76" x="10" y="20.9951">tictactoe</text></g><!--cluster controller--><g id="cluster_controller"><path d="M32.5,217 L113.5,217 A3.75,3.75 0 0 1 116,219.5 L123,239.2969 L582.5,239.2969 A2.5,2.5 0 0 1 585,241.7969 L585,767 A2.5,2.5 0 0 1 582.5,769.5 L32.5,769.5 A2.5,2.5 0 0 1 30,767 L30,219.5 A2.5,2.5 0 0 1 32.5,217 " fill="none" style="stroke:#000000;stroke-width:1.5;"/><line style="stroke:#000000;stroke-width:1.5;" x1="30" x2="123" y1="239.2969" y2="239.2969"/><text fill="#000000" font-family="sans-serif" font-size="14" font-weight="bold" lengthAdjust="spacing" textLength="80" x="34" y="231.9951">controller</text></g><!--cluster view--><g id="cluster_view"><path d="M951.5,217 L988.5,217 A3.75,3.75 0 0 1 991,219.5 L998,239.2969 L1297.5,239.2969 A2.5,2.5 0 0 1 1300,241.7969 L1300,767 A2.5,2.5 0 0 1 1297.5,769.5 L951.5,769.5 A2.5,2.5 0 0 1 949,767 L949,219.5 A2.5,2.5 0 0 1 951.5,217 " fill="none" style="stroke:#000000;stroke-width:1.5;"/><line style="stroke:#000000;stroke-width:1.5;" x1="949" x2="998" y1="239.2969" y2="239.2969"/><text fill="#000000" font-family="sans-serif" font-size="14" font-weight="bold" lengthAdjust="spacing" textLength="36" x="953" y="231.9951">view</text></g><!--cluster model--><g id="cluster_model"><path d="M611.5,347 L661.5,347 A3.75,3.75 0 0 1 664,349.5 L671,369.2969 L922.5,369.2969 A2.5,2.5 0 0 1 925,371.7969 L925,791.5 A2.5,2.5 0 0 1 922.5,794 L611.5,794 A2.5,2.5 0 0 1 609,791.5 L609,349.5 A2.5,2.5 0 0 1 611.5,347 " fill="none" style="stroke:#000000;stroke-width:1.5;"/><line style="stroke:#000000;stroke-width:1.5;" x1="609" x2="671" y1="369.2969" y2="369.2969"/><text fill="#000000" font-family="sans-serif" font-size="14" font-weight="bold" lengthAdjust="spacing" textLength="49" x="613" y="361.9951">model</text></g><!--class TicactoeApp--><g id="elem_TicactoeApp"><rect codeLine="3" fill="#F1F1F1" height="129.4844" id="TicactoeApp" rx="2.5" ry="2.5" style="stroke:#181818;stroke-width:0.5;" width="265" x="349.5" y="41"/><ellipse cx="431.75" cy="57" fill="#ADD1B2" rx="11" ry="11" style="stroke:#181818;stroke-width:1.0;"/><path d="M434.0938,52.6719 C433.1563,52.2344 432.5625,52.0938 431.6875,52.0938 C429.0625,52.0938 427.0625,54.1719 427.0625,56.8906 L427.0625,58.0156 C427.0625,60.5938 429.1719,62.4844 432.0625,62.4844 C433.2813,62.4844 434.4375,62.1875 435.1875,61.6406 C435.7656,61.2344 436.0938,60.7813 436.0938,60.3906 C436.0938,59.9375 435.7031,59.5469 435.2344,59.5469 C435.0156,59.5469 434.8125,59.625 434.625,59.8125 C434.1719,60.2969 434.1719,60.2969 433.9844,60.3906 C433.5625,60.6563 432.875,60.7813 432.1094,60.7813 C430.0625,60.7813 428.7656,59.6875 428.7656,57.9844 L428.7656,56.8906 C428.7656,55.1094 430.0156,53.7969 431.75,53.7969 C432.3281,53.7969 432.9375,53.9531 433.4063,54.2031 C433.8906,54.4844 434.0625,54.7031 434.1563,55.1094 C434.2188,55.5156 434.25,55.6406 434.3906,55.7656 C434.5313,55.9063 434.7656,56.0156 434.9844,56.0156 C435.25,56.0156 435.5156,55.875 435.6875,55.6563 C435.7969,55.5 435.8281,55.3125 435.8281,54.8906 L435.8281,53.4688 C435.8281,53.0313 435.8125,52.9063 435.7188,52.75 C435.5625,52.4844 435.2813,52.3438 434.9844,52.3438 C434.6875,52.3438 434.4844,52.4375 434.2656,52.75 L434.0938,52.6719 Z " fill="#000000"/><text fill="#000000" font-family="sans-serif" font-size="14" lengthAdjust="spacing" textLength="92" x="452.25" y="61.8467">TicactoeApp</text><line style="stroke:#181818;stroke-width:0.5;" x1="350.5" x2="613.5" y1="73" y2="73"/><rect fill="none" height="6" style="stroke:#C82930;stroke-width:1.0;" width="6" x="357.5" y="83.6484"/><text fill="#000000" font-family="sans-serif" font-size="14" lengthAdjust="spacing" textLength="133" x="369.5" y="89.9951">Ticactoe tictactoe</text><rect fill="none" height="6" style="stroke:#C82930;stroke-width:1.0;" width="6" x="357.5" y="99.9453"/><text fill="#000000" font-family="sans-serif" font-size="14" lengthAdjust="spacing" textLength="212" x="369.5" y="106.292">TurnController turnController</text><rect fill="none" height="6" style="stroke:#C82930;stroke-width:1.0;" width="6" x="357.5" y="116.2422"/><text fill="#000000" font-family="sans-serif" font-size="14" lengthAdjust="spacing" textLength="239" x="369.5" y="122.5889">PlayerController playerController</text><rect fill="none" height="6" style="stroke:#C82930;stroke-width:1.0;" width="6" x="357.5" y="132.5391"/><text fill="#000000" font-family="sans-serif" font-size="14" lengthAdjust="spacing" textLength="234" x="369.5" y="138.8857">BoardController boardController</text><line style="stroke:#181818;stroke-width:0.5;" x1="350.5" x2="613.5" y1="146.1875" y2="146.1875"/><ellipse cx="360.5" cy="159.8359" fill="#84BE84" rx="3" ry="3" style="stroke:#038048;stroke-width:1.0;"/><text fill="#000000" font-family="sans-serif" font-size="14" lengthAdjust="spacing" textLength="109" x="369.5" y="163.1826">void runGame()</text></g><!--class TictactoeController--><g id="elem_TictactoeController"><rect codeLine="12" fill="#F1F1F1" height="48" id="TictactoeController" rx="2.5" ry="2.5" style="stroke:#181818;stroke-width:0.5;" width="174" x="395" y="252"/><ellipse cx="410" cy="268" fill="#ADD1B2" rx="11" ry="11" style="stroke:#181818;stroke-width:1.0;"/><path d="M412.3438,263.6719 C411.4063,263.2344 410.8125,263.0938 409.9375,263.0938 C407.3125,263.0938 405.3125,265.1719 405.3125,267.8906 L405.3125,269.0156 C405.3125,271.5938 407.4219,273.4844 410.3125,273.4844 C411.5313,273.4844 412.6875,273.1875 413.4375,272.6406 C414.0156,272.2344 414.3438,271.7813 414.3438,271.3906 C414.3438,270.9375 413.9531,270.5469 413.4844,270.5469 C413.2656,270.5469 413.0625,270.625 412.875,270.8125 C412.4219,271.2969 412.4219,271.2969 412.2344,271.3906 C411.8125,271.6563 411.125,271.7813 410.3594,271.7813 C408.3125,271.7813 407.0156,270.6875 407.0156,268.9844 L407.0156,267.8906 C407.0156,266.1094 408.2656,264.7969 410,264.7969 C410.5781,264.7969 411.1875,264.9531 411.6563,265.2031 C412.1406,265.4844 412.3125,265.7031 412.4063,266.1094 C412.4688,266.5156 412.5,266.6406 412.6406,266.7656 C412.7813,266.9063 413.0156,267.0156 413.2344,267.0156 C413.5,267.0156 413.7656,266.875 413.9375,266.6563 C414.0469,266.5 414.0781,266.3125 414.0781,265.8906 L414.0781,264.4688 C414.0781,264.0313 414.0625,263.9063 413.9688,263.75 C413.8125,263.4844 413.5313,263.3438 413.2344,263.3438 C412.9375,263.3438 412.7344,263.4375 412.5156,263.75 L412.3438,263.6719 Z " fill="#000000"/><text fill="#000000" font-family="sans-serif" font-size="14" lengthAdjust="spacing" textLength="142" x="424" y="272.8467">TictactoeController</text><line style="stroke:#181818;stroke-width:0.5;" x1="396" x2="568" y1="284" y2="284"/><line style="stroke:#181818;stroke-width:0.5;" x1="396" x2="568" y1="292" y2="292"/></g><!--class TurnController--><g id="elem_TurnController"><rect codeLine="16" fill="#F1F1F1" height="48" id="TurnController" rx="2.5" ry="2.5" style="stroke:#181818;stroke-width:0.5;" width="137" x="419.5" y="406.5"/><ellipse cx="434.5" cy="422.5" fill="#ADD1B2" rx="11" ry="11" style="stroke:#181818;stroke-width:1.0;"/><path d="M436.8438,418.1719 C435.9063,417.7344 435.3125,417.5938 434.4375,417.5938 C431.8125,417.5938 429.8125,419.6719 429.8125,422.3906 L429.8125,423.5156 C429.8125,426.0938 431.9219,427.9844 434.8125,427.9844 C436.0313,427.9844 437.1875,427.6875 437.9375,427.1406 C438.5156,426.7344 438.8438,426.2813 438.8438,425.8906 C438.8438,425.4375 438.4531,425.0469 437.9844,425.0469 C437.7656,425.0469 437.5625,425.125 437.375,425.3125 C436.9219,425.7969 436.9219,425.7969 436.7344,425.8906 C436.3125,426.1563 435.625,426.2813 434.8594,426.2813 C432.8125,426.2813 431.5156,425.1875 431.5156,423.4844 L431.5156,422.3906 C431.5156,420.6094 432.7656,419.2969 434.5,419.2969 C435.0781,419.2969 435.6875,419.4531 436.1563,419.7031 C436.6406,419.9844 436.8125,420.2031 436.9063,420.6094 C436.9688,421.0156 437,421.1406 437.1406,421.2656 C437.2813,421.4063 437.5156,421.5156 437.7344,421.5156 C438,421.5156 438.2656,421.375 438.4375,421.1563 C438.5469,421 438.5781,420.8125 438.5781,420.3906 L438.5781,418.9688 C438.5781,418.5313 438.5625,418.4063 438.4688,418.25 C438.3125,417.9844 438.0313,417.8438 437.7344,417.8438 C437.4375,417.8438 437.2344,417.9375 437.0156,418.25 L436.8438,418.1719 Z " fill="#000000"/><text fill="#000000" font-family="sans-serif" font-size="14" lengthAdjust="spacing" textLength="105" x="448.5" y="427.3467">TurnController</text><line style="stroke:#181818;stroke-width:0.5;" x1="420.5" x2="555.5" y1="438.5" y2="438.5"/><line style="stroke:#181818;stroke-width:0.5;" x1="420.5" x2="555.5" y1="446.5" y2="446.5"/></g><!--class PlayerController--><g id="elem_PlayerController"><rect codeLine="19" fill="#F1F1F1" height="48" id="PlayerController" rx="2.5" ry="2.5" style="stroke:#181818;stroke-width:0.5;" width="149" x="46.5" y="556"/><ellipse cx="61.5" cy="572" fill="#ADD1B2" rx="11" ry="11" style="stroke:#181818;stroke-width:1.0;"/><path d="M63.8438,567.6719 C62.9063,567.2344 62.3125,567.0938 61.4375,567.0938 C58.8125,567.0938 56.8125,569.1719 56.8125,571.8906 L56.8125,573.0156 C56.8125,575.5938 58.9219,577.4844 61.8125,577.4844 C63.0313,577.4844 64.1875,577.1875 64.9375,576.6406 C65.5156,576.2344 65.8438,575.7813 65.8438,575.3906 C65.8438,574.9375 65.4531,574.5469 64.9844,574.5469 C64.7656,574.5469 64.5625,574.625 64.375,574.8125 C63.9219,575.2969 63.9219,575.2969 63.7344,575.3906 C63.3125,575.6563 62.625,575.7813 61.8594,575.7813 C59.8125,575.7813 58.5156,574.6875 58.5156,572.9844 L58.5156,571.8906 C58.5156,570.1094 59.7656,568.7969 61.5,568.7969 C62.0781,568.7969 62.6875,568.9531 63.1563,569.2031 C63.6406,569.4844 63.8125,569.7031 63.9063,570.1094 C63.9688,570.5156 64,570.6406 64.1406,570.7656 C64.2813,570.9063 64.5156,571.0156 64.7344,571.0156 C65,571.0156 65.2656,570.875 65.4375,570.6563 C65.5469,570.5 65.5781,570.3125 65.5781,569.8906 L65.5781,568.4688 C65.5781,568.0313 65.5625,567.9063 65.4688,567.75 C65.3125,567.4844 65.0313,567.3438 64.7344,567.3438 C64.4375,567.3438 64.2344,567.4375 64.0156,567.75 L63.8438,567.6719 Z " fill="#000000"/><text fill="#000000" font-family="sans-serif" font-size="14" lengthAdjust="spacing" textLength="117" x="75.5" y="576.8467">PlayerController</text><line style="stroke:#181818;stroke-width:0.5;" x1="47.5" x2="194.5" y1="588" y2="588"/><line style="stroke:#181818;stroke-width:0.5;" x1="47.5" x2="194.5" y1="596" y2="596"/></g><!--class HumanPlayerController--><g id="elem_HumanPlayerController"><rect codeLine="23" fill="#F1F1F1" height="48" id="HumanPlayerController" rx="2.5" ry="2.5" style="stroke:#181818;stroke-width:0.5;" width="198" x="46" y="705.5"/><ellipse cx="61" cy="721.5" fill="#ADD1B2" rx="11" ry="11" style="stroke:#181818;stroke-width:1.0;"/><path d="M63.3438,717.1719 C62.4063,716.7344 61.8125,716.5938 60.9375,716.5938 C58.3125,716.5938 56.3125,718.6719 56.3125,721.3906 L56.3125,722.5156 C56.3125,725.0938 58.4219,726.9844 61.3125,726.9844 C62.5313,726.9844 63.6875,726.6875 64.4375,726.1406 C65.0156,725.7344 65.3438,725.2813 65.3438,724.8906 C65.3438,724.4375 64.9531,724.0469 64.4844,724.0469 C64.2656,724.0469 64.0625,724.125 63.875,724.3125 C63.4219,724.7969 63.4219,724.7969 63.2344,724.8906 C62.8125,725.1563 62.125,725.2813 61.3594,725.2813 C59.3125,725.2813 58.0156,724.1875 58.0156,722.4844 L58.0156,721.3906 C58.0156,719.6094 59.2656,718.2969 61,718.2969 C61.5781,718.2969 62.1875,718.4531 62.6563,718.7031 C63.1406,718.9844 63.3125,719.2031 63.4063,719.6094 C63.4688,720.0156 63.5,720.1406 63.6406,720.2656 C63.7813,720.4063 64.0156,720.5156 64.2344,720.5156 C64.5,720.5156 64.7656,720.375 64.9375,720.1563 C65.0469,720 65.0781,719.8125 65.0781,719.3906 L65.0781,717.9688 C65.0781,717.5313 65.0625,717.4063 64.9688,717.25 C64.8125,716.9844 64.5313,716.8438 64.2344,716.8438 C63.9375,716.8438 63.7344,716.9375 63.5156,717.25 L63.3438,717.1719 Z " fill="#000000"/><text fill="#000000" font-family="sans-serif" font-size="14" lengthAdjust="spacing" textLength="166" x="75" y="726.3467">HumanPlayerController</text><line style="stroke:#181818;stroke-width:0.5;" x1="47" x2="243" y1="737.5" y2="737.5"/><line style="stroke:#181818;stroke-width:0.5;" x1="47" x2="243" y1="745.5" y2="745.5"/></g><!--class IAPlayerController--><g id="elem_IAPlayerController"><rect codeLine="27" fill="#F1F1F1" height="48" id="IAPlayerController" rx="2.5" ry="2.5" style="stroke:#181818;stroke-width:0.5;" width="163" x="279.5" y="705.5"/><ellipse cx="294.5" cy="721.5" fill="#ADD1B2" rx="11" ry="11" style="stroke:#181818;stroke-width:1.0;"/><path d="M296.8438,717.1719 C295.9063,716.7344 295.3125,716.5938 294.4375,716.5938 C291.8125,716.5938 289.8125,718.6719 289.8125,721.3906 L289.8125,722.5156 C289.8125,725.0938 291.9219,726.9844 294.8125,726.9844 C296.0313,726.9844 297.1875,726.6875 297.9375,726.1406 C298.5156,725.7344 298.8438,725.2813 298.8438,724.8906 C298.8438,724.4375 298.4531,724.0469 297.9844,724.0469 C297.7656,724.0469 297.5625,724.125 297.375,724.3125 C296.9219,724.7969 296.9219,724.7969 296.7344,724.8906 C296.3125,725.1563 295.625,725.2813 294.8594,725.2813 C292.8125,725.2813 291.5156,724.1875 291.5156,722.4844 L291.5156,721.3906 C291.5156,719.6094 292.7656,718.2969 294.5,718.2969 C295.0781,718.2969 295.6875,718.4531 296.1563,718.7031 C296.6406,718.9844 296.8125,719.2031 296.9063,719.6094 C296.9688,720.0156 297,720.1406 297.1406,720.2656 C297.2813,720.4063 297.5156,720.5156 297.7344,720.5156 C298,720.5156 298.2656,720.375 298.4375,720.1563 C298.5469,720 298.5781,719.8125 298.5781,719.3906 L298.5781,717.9688 C298.5781,717.5313 298.5625,717.4063 298.4688,717.25 C298.3125,716.9844 298.0313,716.8438 297.7344,716.8438 C297.4375,716.8438 297.2344,716.9375 297.0156,717.25 L296.8438,717.1719 Z " fill="#000000"/><text fill="#000000" font-family="sans-serif" font-size="14" lengthAdjust="spacing" textLength="131" x="308.5" y="726.3467">IAPlayerController</text><line style="stroke:#181818;stroke-width:0.5;" x1="280.5" x2="441.5" y1="737.5" y2="737.5"/><line style="stroke:#181818;stroke-width:0.5;" x1="280.5" x2="441.5" y1="745.5" y2="745.5"/></g><!--class BoardController--><g id="elem_BoardController"><rect codeLine="31" fill="#F1F1F1" height="48" id="BoardController" rx="2.5" ry="2.5" style="stroke:#181818;stroke-width:0.5;" width="147" x="230.5" y="556"/><ellipse cx="245.5" cy="572" fill="#ADD1B2" rx="11" ry="11" style="stroke:#181818;stroke-width:1.0;"/><path d="M247.8438,567.6719 C246.9063,567.2344 246.3125,567.0938 245.4375,567.0938 C242.8125,567.0938 240.8125,569.1719 240.8125,571.8906 L240.8125,573.0156 C240.8125,575.5938 242.9219,577.4844 245.8125,577.4844 C247.0313,577.4844 248.1875,577.1875 248.9375,576.6406 C249.5156,576.2344 249.8438,575.7813 249.8438,575.3906 C249.8438,574.9375 249.4531,574.5469 248.9844,574.5469 C248.7656,574.5469 248.5625,574.625 248.375,574.8125 C247.9219,575.2969 247.9219,575.2969 247.7344,575.3906 C247.3125,575.6563 246.625,575.7813 245.8594,575.7813 C243.8125,575.7813 242.5156,574.6875 242.5156,572.9844 L242.5156,571.8906 C242.5156,570.1094 243.7656,568.7969 245.5,568.7969 C246.0781,568.7969 246.6875,568.9531 247.1563,569.2031 C247.6406,569.4844 247.8125,569.7031 247.9063,570.1094 C247.9688,570.5156 248,570.6406 248.1406,570.7656 C248.2813,570.9063 248.5156,571.0156 248.7344,571.0156 C249,571.0156 249.2656,570.875 249.4375,570.6563 C249.5469,570.5 249.5781,570.3125 249.5781,569.8906 L249.5781,568.4688 C249.5781,568.0313 249.5625,567.9063 249.4688,567.75 C249.3125,567.4844 249.0313,567.3438 248.7344,567.3438 C248.4375,567.3438 248.2344,567.4375 248.0156,567.75 L247.8438,567.6719 Z " fill="#000000"/><text fill="#000000" font-family="sans-serif" font-size="14" lengthAdjust="spacing" textLength="115" x="259.5" y="576.8467">BoardController</text><line style="stroke:#181818;stroke-width:0.5;" x1="231.5" x2="376.5" y1="588" y2="588"/><line style="stroke:#181818;stroke-width:0.5;" x1="231.5" x2="376.5" y1="596" y2="596"/></g><!--class HistoryController--><g id="elem_HistoryController"><rect codeLine="34" fill="#F1F1F1" height="48" id="HistoryController" rx="2.5" ry="2.5" style="stroke:#181818;stroke-width:0.5;" width="156" x="413" y="556"/><ellipse cx="428" cy="572" fill="#ADD1B2" rx="11" ry="11" style="stroke:#181818;stroke-width:1.0;"/><path d="M430.3438,567.6719 C429.4063,567.2344 428.8125,567.0938 427.9375,567.0938 C425.3125,567.0938 423.3125,569.1719 423.3125,571.8906 L423.3125,573.0156 C423.3125,575.5938 425.4219,577.4844 428.3125,577.4844 C429.5313,577.4844 430.6875,577.1875 431.4375,576.6406 C432.0156,576.2344 432.3438,575.7813 432.3438,575.3906 C432.3438,574.9375 431.9531,574.5469 431.4844,574.5469 C431.2656,574.5469 431.0625,574.625 430.875,574.8125 C430.4219,575.2969 430.4219,575.2969 430.2344,575.3906 C429.8125,575.6563 429.125,575.7813 428.3594,575.7813 C426.3125,575.7813 425.0156,574.6875 425.0156,572.9844 L425.0156,571.8906 C425.0156,570.1094 426.2656,568.7969 428,568.7969 C428.5781,568.7969 429.1875,568.9531 429.6563,569.2031 C430.1406,569.4844 430.3125,569.7031 430.4063,570.1094 C430.4688,570.5156 430.5,570.6406 430.6406,570.7656 C430.7813,570.9063 431.0156,571.0156 431.2344,571.0156 C431.5,571.0156 431.7656,570.875 431.9375,570.6563 C432.0469,570.5 432.0781,570.3125 432.0781,569.8906 L432.0781,568.4688 C432.0781,568.0313 432.0625,567.9063 431.9688,567.75 C431.8125,567.4844 431.5313,567.3438 431.2344,567.3438 C430.9375,567.3438 430.7344,567.4375 430.5156,567.75 L430.3438,567.6719 Z " fill="#000000"/><text fill="#000000" font-family="sans-serif" font-size="14" lengthAdjust="spacing" textLength="124" x="442" y="576.8467">HistoryController</text><line style="stroke:#181818;stroke-width:0.5;" x1="414" x2="568" y1="588" y2="588"/><line style="stroke:#181818;stroke-width:0.5;" x1="414" x2="568" y1="596" y2="596"/></g><!--class BoardView--><g id="elem_BoardView"><rect codeLine="50" fill="#F1F1F1" height="48" id="BoardView" rx="2.5" ry="2.5" style="stroke:#181818;stroke-width:0.5;" width="108" x="1134" y="556"/><ellipse cx="1149" cy="572" fill="#ADD1B2" rx="11" ry="11" style="stroke:#181818;stroke-width:1.0;"/><path d="M1151.3438,567.6719 C1150.4063,567.2344 1149.8125,567.0938 1148.9375,567.0938 C1146.3125,567.0938 1144.3125,569.1719 1144.3125,571.8906 L1144.3125,573.0156 C1144.3125,575.5938 1146.4219,577.4844 1149.3125,577.4844 C1150.5313,577.4844 1151.6875,577.1875 1152.4375,576.6406 C1153.0156,576.2344 1153.3438,575.7813 1153.3438,575.3906 C1153.3438,574.9375 1152.9531,574.5469 1152.4844,574.5469 C1152.2656,574.5469 1152.0625,574.625 1151.875,574.8125 C1151.4219,575.2969 1151.4219,575.2969 1151.2344,575.3906 C1150.8125,575.6563 1150.125,575.7813 1149.3594,575.7813 C1147.3125,575.7813 1146.0156,574.6875 1146.0156,572.9844 L1146.0156,571.8906 C1146.0156,570.1094 1147.2656,568.7969 1149,568.7969 C1149.5781,568.7969 1150.1875,568.9531 1150.6563,569.2031 C1151.1406,569.4844 1151.3125,569.7031 1151.4063,570.1094 C1151.4688,570.5156 1151.5,570.6406 1151.6406,570.7656 C1151.7813,570.9063 1152.0156,571.0156 1152.2344,571.0156 C1152.5,571.0156 1152.7656,570.875 1152.9375,570.6563 C1153.0469,570.5 1153.0781,570.3125 1153.0781,569.8906 L1153.0781,568.4688 C1153.0781,568.0313 1153.0625,567.9063 1152.9688,567.75 C1152.8125,567.4844 1152.5313,567.3438 1152.2344,567.3438 C1151.9375,567.3438 1151.7344,567.4375 1151.5156,567.75 L1151.3438,567.6719 Z " fill="#000000"/><text fill="#000000" font-family="sans-serif" font-size="14" lengthAdjust="spacing" textLength="76" x="1163" y="576.8467">BoardView</text><line style="stroke:#181818;stroke-width:0.5;" x1="1135" x2="1241" y1="588" y2="588"/><line style="stroke:#181818;stroke-width:0.5;" x1="1135" x2="1241" y1="596" y2="596"/></g><!--class PlayerView--><g id="elem_PlayerView"><rect codeLine="54" fill="#F1F1F1" height="48" id="PlayerView" rx="2.5" ry="2.5" style="stroke:#181818;stroke-width:0.5;" width="110" x="989" y="556"/><ellipse cx="1004" cy="572" fill="#ADD1B2" rx="11" ry="11" style="stroke:#181818;stroke-width:1.0;"/><path d="M1006.3438,567.6719 C1005.4063,567.2344 1004.8125,567.0938 1003.9375,567.0938 C1001.3125,567.0938 999.3125,569.1719 999.3125,571.8906 L999.3125,573.0156 C999.3125,575.5938 1001.4219,577.4844 1004.3125,577.4844 C1005.5313,577.4844 1006.6875,577.1875 1007.4375,576.6406 C1008.0156,576.2344 1008.3438,575.7813 1008.3438,575.3906 C1008.3438,574.9375 1007.9531,574.5469 1007.4844,574.5469 C1007.2656,574.5469 1007.0625,574.625 1006.875,574.8125 C1006.4219,575.2969 1006.4219,575.2969 1006.2344,575.3906 C1005.8125,575.6563 1005.125,575.7813 1004.3594,575.7813 C1002.3125,575.7813 1001.0156,574.6875 1001.0156,572.9844 L1001.0156,571.8906 C1001.0156,570.1094 1002.2656,568.7969 1004,568.7969 C1004.5781,568.7969 1005.1875,568.9531 1005.6563,569.2031 C1006.1406,569.4844 1006.3125,569.7031 1006.4063,570.1094 C1006.4688,570.5156 1006.5,570.6406 1006.6406,570.7656 C1006.7813,570.9063 1007.0156,571.0156 1007.2344,571.0156 C1007.5,571.0156 1007.7656,570.875 1007.9375,570.6563 C1008.0469,570.5 1008.0781,570.3125 1008.0781,569.8906 L1008.0781,568.4688 C1008.0781,568.0313 1008.0625,567.9063 1007.9688,567.75 C1007.8125,567.4844 1007.5313,567.3438 1007.2344,567.3438 C1006.9375,567.3438 1006.7344,567.4375 1006.5156,567.75 L1006.3438,567.6719 Z " fill="#000000"/><text fill="#000000" font-family="sans-serif" font-size="14" lengthAdjust="spacing" textLength="78" x="1018" y="576.8467">PlayerView</text><line style="stroke:#181818;stroke-width:0.5;" x1="990" x2="1098" y1="588" y2="588"/><line style="stroke:#181818;stroke-width:0.5;" x1="990" x2="1098" y1="596" y2="596"/></g><!--class TurnView--><g id="elem_TurnView"><rect codeLine="58" fill="#F1F1F1" height="48" id="TurnView" rx="2.5" ry="2.5" style="stroke:#181818;stroke-width:0.5;" width="98" x="994" y="406.5"/><ellipse cx="1009" cy="422.5" fill="#ADD1B2" rx="11" ry="11" style="stroke:#181818;stroke-width:1.0;"/><path d="M1011.3438,418.1719 C1010.4063,417.7344 1009.8125,417.5938 1008.9375,417.5938 C1006.3125,417.5938 1004.3125,419.6719 1004.3125,422.3906 L1004.3125,423.5156 C1004.3125,426.0938 1006.4219,427.9844 1009.3125,427.9844 C1010.5313,427.9844 1011.6875,427.6875 1012.4375,427.1406 C1013.0156,426.7344 1013.3438,426.2813 1013.3438,425.8906 C1013.3438,425.4375 1012.9531,425.0469 1012.4844,425.0469 C1012.2656,425.0469 1012.0625,425.125 1011.875,425.3125 C1011.4219,425.7969 1011.4219,425.7969 1011.2344,425.8906 C1010.8125,426.1563 1010.125,426.2813 1009.3594,426.2813 C1007.3125,426.2813 1006.0156,425.1875 1006.0156,423.4844 L1006.0156,422.3906 C1006.0156,420.6094 1007.2656,419.2969 1009,419.2969 C1009.5781,419.2969 1010.1875,419.4531 1010.6563,419.7031 C1011.1406,419.9844 1011.3125,420.2031 1011.4063,420.6094 C1011.4688,421.0156 1011.5,421.1406 1011.6406,421.2656 C1011.7813,421.4063 1012.0156,421.5156 1012.2344,421.5156 C1012.5,421.5156 1012.7656,421.375 1012.9375,421.1563 C1013.0469,421 1013.0781,420.8125 1013.0781,420.3906 L1013.0781,418.9688 C1013.0781,418.5313 1013.0625,418.4063 1012.9688,418.25 C1012.8125,417.9844 1012.5313,417.8438 1012.2344,417.8438 C1011.9375,417.8438 1011.7344,417.9375 1011.5156,418.25 L1011.3438,418.1719 Z " fill="#000000"/><text fill="#000000" font-family="sans-serif" font-size="14" lengthAdjust="spacing" textLength="66" x="1023" y="427.3467">TurnView</text><line style="stroke:#181818;stroke-width:0.5;" x1="995" x2="1091" y1="438.5" y2="438.5"/><line style="stroke:#181818;stroke-width:0.5;" x1="995" x2="1091" y1="446.5" y2="446.5"/></g><!--class TictactoeView--><g id="elem_TictactoeView"><rect codeLine="62" fill="#F1F1F1" height="48" id="TictactoeView" rx="2.5" ry="2.5" style="stroke:#181818;stroke-width:0.5;" width="135" x="971.5" y="252"/><ellipse cx="986.5" cy="268" fill="#ADD1B2" rx="11" ry="11" style="stroke:#181818;stroke-width:1.0;"/><path d="M988.8438,263.6719 C987.9063,263.2344 987.3125,263.0938 986.4375,263.0938 C983.8125,263.0938 981.8125,265.1719 981.8125,267.8906 L981.8125,269.0156 C981.8125,271.5938 983.9219,273.4844 986.8125,273.4844 C988.0313,273.4844 989.1875,273.1875 989.9375,272.6406 C990.5156,272.2344 990.8438,271.7813 990.8438,271.3906 C990.8438,270.9375 990.4531,270.5469 989.9844,270.5469 C989.7656,270.5469 989.5625,270.625 989.375,270.8125 C988.9219,271.2969 988.9219,271.2969 988.7344,271.3906 C988.3125,271.6563 987.625,271.7813 986.8594,271.7813 C984.8125,271.7813 983.5156,270.6875 983.5156,268.9844 L983.5156,267.8906 C983.5156,266.1094 984.7656,264.7969 986.5,264.7969 C987.0781,264.7969 987.6875,264.9531 988.1563,265.2031 C988.6406,265.4844 988.8125,265.7031 988.9063,266.1094 C988.9688,266.5156 989,266.6406 989.1406,266.7656 C989.2813,266.9063 989.5156,267.0156 989.7344,267.0156 C990,267.0156 990.2656,266.875 990.4375,266.6563 C990.5469,266.5 990.5781,266.3125 990.5781,265.8906 L990.5781,264.4688 C990.5781,264.0313 990.5625,263.9063 990.4688,263.75 C990.3125,263.4844 990.0313,263.3438 989.7344,263.3438 C989.4375,263.3438 989.2344,263.4375 989.0156,263.75 L988.8438,263.6719 Z " fill="#000000"/><text fill="#000000" font-family="sans-serif" font-size="14" lengthAdjust="spacing" textLength="103" x="1000.5" y="272.8467">TictactoeView</text><line style="stroke:#181818;stroke-width:0.5;" x1="972.5" x2="1105.5" y1="284" y2="284"/><line style="stroke:#181818;stroke-width:0.5;" x1="972.5" x2="1105.5" y1="292" y2="292"/></g><!--class HumanPlayerView--><g id="elem_HumanPlayerView"><rect codeLine="66" fill="#F1F1F1" height="48" id="HumanPlayerView" rx="2.5" ry="2.5" style="stroke:#181818;stroke-width:0.5;" width="159" x="965.5" y="705.5"/><ellipse cx="980.5" cy="721.5" fill="#ADD1B2" rx="11" ry="11" style="stroke:#181818;stroke-width:1.0;"/><path d="M982.8438,717.1719 C981.9063,716.7344 981.3125,716.5938 980.4375,716.5938 C977.8125,716.5938 975.8125,718.6719 975.8125,721.3906 L975.8125,722.5156 C975.8125,725.0938 977.9219,726.9844 980.8125,726.9844 C982.0313,726.9844 983.1875,726.6875 983.9375,726.1406 C984.5156,725.7344 984.8438,725.2813 984.8438,724.8906 C984.8438,724.4375 984.4531,724.0469 983.9844,724.0469 C983.7656,724.0469 983.5625,724.125 983.375,724.3125 C982.9219,724.7969 982.9219,724.7969 982.7344,724.8906 C982.3125,725.1563 981.625,725.2813 980.8594,725.2813 C978.8125,725.2813 977.5156,724.1875 977.5156,722.4844 L977.5156,721.3906 C977.5156,719.6094 978.7656,718.2969 980.5,718.2969 C981.0781,718.2969 981.6875,718.4531 982.1563,718.7031 C982.6406,718.9844 982.8125,719.2031 982.9063,719.6094 C982.9688,720.0156 983,720.1406 983.1406,720.2656 C983.2813,720.4063 983.5156,720.5156 983.7344,720.5156 C984,720.5156 984.2656,720.375 984.4375,720.1563 C984.5469,720 984.5781,719.8125 984.5781,719.3906 L984.5781,717.9688 C984.5781,717.5313 984.5625,717.4063 984.4688,717.25 C984.3125,716.9844 984.0313,716.8438 983.7344,716.8438 C983.4375,716.8438 983.2344,716.9375 983.0156,717.25 L982.8438,717.1719 Z " fill="#000000"/><text fill="#000000" font-family="sans-serif" font-size="14" lengthAdjust="spacing" textLength="127" x="994.5" y="726.3467">HumanPlayerView</text><line style="stroke:#181818;stroke-width:0.5;" x1="966.5" x2="1123.5" y1="737.5" y2="737.5"/><line style="stroke:#181818;stroke-width:0.5;" x1="966.5" x2="1123.5" y1="745.5" y2="745.5"/></g><!--class IAPlayerView--><g id="elem_IAPlayerView"><rect codeLine="70" fill="#F1F1F1" height="48" id="IAPlayerView" rx="2.5" ry="2.5" style="stroke:#181818;stroke-width:0.5;" width="124" x="1160" y="705.5"/><ellipse cx="1175" cy="721.5" fill="#ADD1B2" rx="11" ry="11" style="stroke:#181818;stroke-width:1.0;"/><path d="M1177.3438,717.1719 C1176.4063,716.7344 1175.8125,716.5938 1174.9375,716.5938 C1172.3125,716.5938 1170.3125,718.6719 1170.3125,721.3906 L1170.3125,722.5156 C1170.3125,725.0938 1172.4219,726.9844 1175.3125,726.9844 C1176.5313,726.9844 1177.6875,726.6875 1178.4375,726.1406 C1179.0156,725.7344 1179.3438,725.2813 1179.3438,724.8906 C1179.3438,724.4375 1178.9531,724.0469 1178.4844,724.0469 C1178.2656,724.0469 1178.0625,724.125 1177.875,724.3125 C1177.4219,724.7969 1177.4219,724.7969 1177.2344,724.8906 C1176.8125,725.1563 1176.125,725.2813 1175.3594,725.2813 C1173.3125,725.2813 1172.0156,724.1875 1172.0156,722.4844 L1172.0156,721.3906 C1172.0156,719.6094 1173.2656,718.2969 1175,718.2969 C1175.5781,718.2969 1176.1875,718.4531 1176.6563,718.7031 C1177.1406,718.9844 1177.3125,719.2031 1177.4063,719.6094 C1177.4688,720.0156 1177.5,720.1406 1177.6406,720.2656 C1177.7813,720.4063 1178.0156,720.5156 1178.2344,720.5156 C1178.5,720.5156 1178.7656,720.375 1178.9375,720.1563 C1179.0469,720 1179.0781,719.8125 1179.0781,719.3906 L1179.0781,717.9688 C1179.0781,717.5313 1179.0625,717.4063 1178.9688,717.25 C1178.8125,716.9844 1178.5313,716.8438 1178.2344,716.8438 C1177.9375,716.8438 1177.7344,716.9375 1177.5156,717.25 L1177.3438,717.1719 Z " fill="#000000"/><text fill="#000000" font-family="sans-serif" font-size="14" lengthAdjust="spacing" textLength="92" x="1189" y="726.3467">IAPlayerView</text><line style="stroke:#181818;stroke-width:0.5;" x1="1161" x2="1283" y1="737.5" y2="737.5"/><line style="stroke:#181818;stroke-width:0.5;" x1="1161" x2="1283" y1="745.5" y2="745.5"/></g><!--class Tictactoe--><g id="elem_Tictactoe"><rect codeLine="83" fill="#F1F1F1" height="96.8906" id="Tictactoe" rx="2.5" ry="2.5" style="stroke:#181818;stroke-width:0.5;" width="144" x="657" y="382"/><ellipse cx="691.35" cy="398" fill="#ADD1B2" rx="11" ry="11" style="stroke:#181818;stroke-width:1.0;"/><path d="M693.6938,393.6719 C692.7563,393.2344 692.1625,393.0938 691.2875,393.0938 C688.6625,393.0938 686.6625,395.1719 686.6625,397.8906 L686.6625,399.0156 C686.6625,401.5938 688.7719,403.4844 691.6625,403.4844 C692.8813,403.4844 694.0375,403.1875 694.7875,402.6406 C695.3656,402.2344 695.6938,401.7813 695.6938,401.3906 C695.6938,400.9375 695.3031,400.5469 694.8344,400.5469 C694.6156,400.5469 694.4125,400.625 694.225,400.8125 C693.7719,401.2969 693.7719,401.2969 693.5844,401.3906 C693.1625,401.6563 692.475,401.7813 691.7094,401.7813 C689.6625,401.7813 688.3656,400.6875 688.3656,398.9844 L688.3656,397.8906 C688.3656,396.1094 689.6156,394.7969 691.35,394.7969 C691.9281,394.7969 692.5375,394.9531 693.0063,395.2031 C693.4906,395.4844 693.6625,395.7031 693.7563,396.1094 C693.8188,396.5156 693.85,396.6406 693.9906,396.7656 C694.1313,396.9063 694.3656,397.0156 694.5844,397.0156 C694.85,397.0156 695.1156,396.875 695.2875,396.6563 C695.3969,396.5 695.4281,396.3125 695.4281,395.8906 L695.4281,394.4688 C695.4281,394.0313 695.4125,393.9063 695.3188,393.75 C695.1625,393.4844 694.8813,393.3438 694.5844,393.3438 C694.2875,393.3438 694.0844,393.4375 693.8656,393.75 L693.6938,393.6719 Z " fill="#000000"/><text fill="#000000" font-family="sans-serif" font-size="14" lengthAdjust="spacing" textLength="69" x="709.65" y="402.8467">Tictactoe</text><line style="stroke:#181818;stroke-width:0.5;" x1="658" x2="800" y1="414" y2="414"/><rect fill="none" height="6" style="stroke:#C82930;stroke-width:1.0;" width="6" x="665" y="424.6484"/><text fill="#000000" font-family="sans-serif" font-size="14" lengthAdjust="spacing" textLength="88" x="677" y="430.9951">Board board</text><rect fill="none" height="6" style="stroke:#C82930;stroke-width:1.0;" width="6" x="665" y="440.9453"/><text fill="#000000" font-family="sans-serif" font-size="14" lengthAdjust="spacing" textLength="66" x="677" y="447.292">Turn turn</text><rect fill="none" height="6" style="stroke:#C82930;stroke-width:1.0;" width="6" x="665" y="457.2422"/><text fill="#000000" font-family="sans-serif" font-size="14" lengthAdjust="spacing" textLength="118" x="677" y="463.5889">Player[2] players</text><line style="stroke:#181818;stroke-width:0.5;" x1="658" x2="800" y1="470.8906" y2="470.8906"/></g><!--class Board--><g id="elem_Board"><rect codeLine="89" fill="#F1F1F1" height="48" id="Board" rx="2.5" ry="2.5" style="stroke:#181818;stroke-width:0.5;" width="74" x="724" y="556"/><ellipse cx="739" cy="572" fill="#ADD1B2" rx="11" ry="11" style="stroke:#181818;stroke-width:1.0;"/><path d="M741.3438,567.6719 C740.4063,567.2344 739.8125,567.0938 738.9375,567.0938 C736.3125,567.0938 734.3125,569.1719 734.3125,571.8906 L734.3125,573.0156 C734.3125,575.5938 736.4219,577.4844 739.3125,577.4844 C740.5313,577.4844 741.6875,577.1875 742.4375,576.6406 C743.0156,576.2344 743.3438,575.7813 743.3438,575.3906 C743.3438,574.9375 742.9531,574.5469 742.4844,574.5469 C742.2656,574.5469 742.0625,574.625 741.875,574.8125 C741.4219,575.2969 741.4219,575.2969 741.2344,575.3906 C740.8125,575.6563 740.125,575.7813 739.3594,575.7813 C737.3125,575.7813 736.0156,574.6875 736.0156,572.9844 L736.0156,571.8906 C736.0156,570.1094 737.2656,568.7969 739,568.7969 C739.5781,568.7969 740.1875,568.9531 740.6563,569.2031 C741.1406,569.4844 741.3125,569.7031 741.4063,570.1094 C741.4688,570.5156 741.5,570.6406 741.6406,570.7656 C741.7813,570.9063 742.0156,571.0156 742.2344,571.0156 C742.5,571.0156 742.7656,570.875 742.9375,570.6563 C743.0469,570.5 743.0781,570.3125 743.0781,569.8906 L743.0781,568.4688 C743.0781,568.0313 743.0625,567.9063 742.9688,567.75 C742.8125,567.4844 742.5313,567.3438 742.2344,567.3438 C741.9375,567.3438 741.7344,567.4375 741.5156,567.75 L741.3438,567.6719 Z " fill="#000000"/><text fill="#000000" font-family="sans-serif" font-size="14" lengthAdjust="spacing" textLength="42" x="753" y="576.8467">Board</text><line style="stroke:#181818;stroke-width:0.5;" x1="725" x2="797" y1="588" y2="588"/><line style="stroke:#181818;stroke-width:0.5;" x1="725" x2="797" y1="596" y2="596"/></g><!--class Turn--><g id="elem_Turn"><rect codeLine="93" fill="#F1F1F1" height="48" id="Turn" rx="2.5" ry="2.5" style="stroke:#181818;stroke-width:0.5;" width="64" x="625" y="556"/><ellipse cx="640" cy="572" fill="#ADD1B2" rx="11" ry="11" style="stroke:#181818;stroke-width:1.0;"/><path d="M642.3438,567.6719 C641.4063,567.2344 640.8125,567.0938 639.9375,567.0938 C637.3125,567.0938 635.3125,569.1719 635.3125,571.8906 L635.3125,573.0156 C635.3125,575.5938 637.4219,577.4844 640.3125,577.4844 C641.5313,577.4844 642.6875,577.1875 643.4375,576.6406 C644.0156,576.2344 644.3438,575.7813 644.3438,575.3906 C644.3438,574.9375 643.9531,574.5469 643.4844,574.5469 C643.2656,574.5469 643.0625,574.625 642.875,574.8125 C642.4219,575.2969 642.4219,575.2969 642.2344,575.3906 C641.8125,575.6563 641.125,575.7813 640.3594,575.7813 C638.3125,575.7813 637.0156,574.6875 637.0156,572.9844 L637.0156,571.8906 C637.0156,570.1094 638.2656,568.7969 640,568.7969 C640.5781,568.7969 641.1875,568.9531 641.6563,569.2031 C642.1406,569.4844 642.3125,569.7031 642.4063,570.1094 C642.4688,570.5156 642.5,570.6406 642.6406,570.7656 C642.7813,570.9063 643.0156,571.0156 643.2344,571.0156 C643.5,571.0156 643.7656,570.875 643.9375,570.6563 C644.0469,570.5 644.0781,570.3125 644.0781,569.8906 L644.0781,568.4688 C644.0781,568.0313 644.0625,567.9063 643.9688,567.75 C643.8125,567.4844 643.5313,567.3438 643.2344,567.3438 C642.9375,567.3438 642.7344,567.4375 642.5156,567.75 L642.3438,567.6719 Z " fill="#000000"/><text fill="#000000" font-family="sans-serif" font-size="14" lengthAdjust="spacing" textLength="32" x="654" y="576.8467">Turn</text><line style="stroke:#181818;stroke-width:0.5;" x1="626" x2="688" y1="588" y2="588"/><line style="stroke:#181818;stroke-width:0.5;" x1="626" x2="688" y1="596" y2="596"/></g><!--class Player--><g id="elem_Player"><rect codeLine="97" fill="#F1F1F1" height="48" id="Player" rx="2.5" ry="2.5" style="stroke:#181818;stroke-width:0.5;" width="76" x="833" y="556"/><ellipse cx="848" cy="572" fill="#ADD1B2" rx="11" ry="11" style="stroke:#181818;stroke-width:1.0;"/><path d="M850.3438,567.6719 C849.4063,567.2344 848.8125,567.0938 847.9375,567.0938 C845.3125,567.0938 843.3125,569.1719 843.3125,571.8906 L843.3125,573.0156 C843.3125,575.5938 845.4219,577.4844 848.3125,577.4844 C849.5313,577.4844 850.6875,577.1875 851.4375,576.6406 C852.0156,576.2344 852.3438,575.7813 852.3438,575.3906 C852.3438,574.9375 851.9531,574.5469 851.4844,574.5469 C851.2656,574.5469 851.0625,574.625 850.875,574.8125 C850.4219,575.2969 850.4219,575.2969 850.2344,575.3906 C849.8125,575.6563 849.125,575.7813 848.3594,575.7813 C846.3125,575.7813 845.0156,574.6875 845.0156,572.9844 L845.0156,571.8906 C845.0156,570.1094 846.2656,568.7969 848,568.7969 C848.5781,568.7969 849.1875,568.9531 849.6563,569.2031 C850.1406,569.4844 850.3125,569.7031 850.4063,570.1094 C850.4688,570.5156 850.5,570.6406 850.6406,570.7656 C850.7813,570.9063 851.0156,571.0156 851.2344,571.0156 C851.5,571.0156 851.7656,570.875 851.9375,570.6563 C852.0469,570.5 852.0781,570.3125 852.0781,569.8906 L852.0781,568.4688 C852.0781,568.0313 852.0625,567.9063 851.9688,567.75 C851.8125,567.4844 851.5313,567.3438 851.2344,567.3438 C850.9375,567.3438 850.7344,567.4375 850.5156,567.75 L850.3438,567.6719 Z " fill="#000000"/><text fill="#000000" font-family="sans-serif" font-size="14" lengthAdjust="spacing" textLength="44" x="862" y="576.8467">Player</text><line style="stroke:#181818;stroke-width:0.5;" x1="834" x2="908" y1="588" y2="588"/><line style="stroke:#181818;stroke-width:0.5;" x1="834" x2="908" y1="596" y2="596"/></g><!--class Mark--><g id="elem_Mark"><rect codeLine="101" fill="#F1F1F1" height="96.8906" id="Mark" rx="2.5" ry="2.5" style="stroke:#181818;stroke-width:0.5;" width="67" x="727.5" y="681"/><ellipse cx="742.5" cy="697" fill="#EB937F" rx="11" ry="11" style="stroke:#181818;stroke-width:1.0;"/><path d="M741.2969,697.875 L742.75,697.875 L742.75,697.9844 C742.75,698.3906 742.7813,698.5469 742.8594,698.7031 C743.0156,698.9531 743.2969,699.1094 743.5938,699.1094 C743.8438,699.1094 744.1094,698.9688 744.2656,698.75 C744.3906,698.5938 744.4219,698.4375 744.4219,697.9844 L744.4219,696.0625 C744.4219,695.9063 744.4219,695.8594 744.4063,695.7031 C744.3438,695.2344 744.0313,694.9219 743.5781,694.9219 C743.3281,694.9219 743.0625,695.0625 742.8906,695.2813 C742.7813,695.4531 742.75,695.6094 742.75,696.0625 L742.75,696.1875 L741.2969,696.1875 L741.2969,693.7813 L745.2813,693.7813 L745.2813,694.6406 C745.2813,695.0469 745.3125,695.2188 745.3906,695.375 C745.5625,695.625 745.8438,695.7813 746.125,695.7813 C746.3906,695.7813 746.6563,695.6406 746.8281,695.4219 C746.9375,695.25 746.9688,695.1094 746.9688,694.6406 L746.9688,692.0938 L739.3438,692.0938 C738.9063,692.0938 738.7813,692.1094 738.625,692.2031 C738.375,692.3594 738.2188,692.6563 738.2188,692.9375 C738.2188,693.2188 738.3594,693.4688 738.5781,693.6406 C738.7344,693.75 738.9219,693.7813 739.3438,693.7813 L739.5938,693.7813 L739.5938,700.2969 L739.3438,700.2969 C738.9375,700.2969 738.7813,700.3125 738.625,700.4219 C738.375,700.5938 738.2188,700.8594 738.2188,701.1563 C738.2188,701.4219 738.3594,701.6719 738.5781,701.8281 C738.7188,701.9531 738.9531,702 739.3438,702 L747.3438,702 L747.3438,699.4219 C747.3438,698.9844 747.3125,698.8438 747.2344,698.6875 C747.0625,698.4375 746.7813,698.2813 746.5,698.2813 C746.2344,698.2813 745.9688,698.3906 745.7969,698.6406 C745.6875,698.7969 745.6563,698.9375 745.6563,699.4219 L745.6563,700.2969 L741.2969,700.2969 L741.2969,697.875 Z " fill="#000000"/><text fill="#000000" font-family="sans-serif" font-size="14" lengthAdjust="spacing" textLength="35" x="756.5" y="701.8467">Mark</text><line style="stroke:#181818;stroke-width:0.5;" x1="728.5" x2="793.5" y1="713" y2="713"/><text fill="#000000" font-family="sans-serif" font-size="14" lengthAdjust="spacing" textLength="10" x="733.5" y="729.9951">X</text><text fill="#000000" font-family="sans-serif" font-size="14" lengthAdjust="spacing" textLength="11" x="733.5" y="746.292">O</text><text fill="#000000" font-family="sans-serif" font-size="14" lengthAdjust="spacing" textLength="48" x="733.5" y="762.5889">EMPTY</text><line style="stroke:#181818;stroke-width:0.5;" x1="728.5" x2="793.5" y1="769.8906" y2="769.8906"/></g><!--link TictactoeController to TurnController--><g id="link_TictactoeController_TurnController"><path codeLine="38" d="M482.911,300.161 C483.973,327.145 485.727,371.738 486.874,400.869 " fill="none" id="TictactoeController-to-TurnController" style="stroke:#181818;stroke-width:1.0;"/><polygon fill="#181818" points="487.08,406.121,490.7246,396.9713,486.8843,401.1248,482.7307,397.2845,487.08,406.121" style="stroke:#181818;stroke-width:1.0;"/></g><!--reverse link PlayerController to HumanPlayerController--><g id="link_PlayerController_HumanPlayerController"><path codeLine="40" d="M127.992,623.974 C132.301,650.455 137.659,683.386 141.197,705.128 " fill="none" id="PlayerController-backto-HumanPlayerController" style="stroke:#181818;stroke-width:1.0;"/><polygon fill="none" points="121.053,624.911,124.75,604.047,134.871,622.663,121.053,624.911" style="stroke:#181818;stroke-width:1.0;"/></g><!--reverse link PlayerController to IAPlayerController--><g id="link_PlayerController_IAPlayerController"><path codeLine="41" d="M175.742,614.644 C220.879,642.384 283.717,681.003 323.368,705.372 " fill="none" id="PlayerController-backto-IAPlayerController" style="stroke:#181818;stroke-width:1.0;"/><polygon fill="none" points="171.874,620.483,158.5,604.047,179.205,608.555,171.874,620.483" style="stroke:#181818;stroke-width:1.0;"/></g><!--link TurnController to PlayerController--><g id="link_TurnController_PlayerController"><path codeLine="43" d="M430.656,454.547 C363.424,481.568 252.399,526.19 183.155,554.019 " fill="none" id="TurnController-to-PlayerController" style="stroke:#181818;stroke-width:1.0;"/><polygon fill="#181818" points="178.243,555.994,188.0854,556.3502,182.8825,554.1299,185.1029,548.927,178.243,555.994" style="stroke:#181818;stroke-width:1.0;"/></g><!--link TurnController to BoardController--><g id="link_TurnController_BoardController"><path codeLine="44" d="M459.25,454.547 C426.13,481.097 371.813,524.639 336.998,552.548 " fill="none" id="TurnController-to-BoardController" style="stroke:#181818;stroke-width:1.0;"/><polygon fill="#181818" points="332.851,555.872,342.3753,553.3643,336.7524,552.7449,337.3718,547.122,332.851,555.872" style="stroke:#181818;stroke-width:1.0;"/></g><!--link TurnController to HistoryController--><g id="link_TurnController_HistoryController"><path codeLine="45" d="M488.469,454.547 C488.996,480.481 489.853,522.628 490.422,550.581 " fill="none" id="TurnController-to-HistoryController" style="stroke:#181818;stroke-width:1.0;"/><polygon fill="#181818" points="490.525,555.628,494.3416,546.5487,490.4236,550.629,486.3433,546.711,490.525,555.628" style="stroke:#181818;stroke-width:1.0;"/></g><!--link TictactoeView to TurnView--><g id="link_TictactoeView_TurnView"><path codeLine="73" d="M1039.61,300.161 C1040.32,327.145 1041.48,371.738 1042.25,400.869 " fill="none" id="TictactoeView-to-TurnView" style="stroke:#181818;stroke-width:1.0;stroke-dasharray:7.0,7.0;"/><polygon fill="#181818" points="1042.39,406.121,1046.1514,397.0187,1042.2582,401.1227,1038.1542,397.2295,1042.39,406.121" style="stroke:#181818;stroke-width:1.0;"/></g><!--link TurnView to BoardView--><g id="link_TurnView_BoardView"><path codeLine="74" d="M1065.66,454.547 C1091.57,480.911 1133.96,524.031 1161.42,551.961 " fill="none" id="TurnView-to-BoardView" style="stroke:#181818;stroke-width:1.0;stroke-dasharray:7.0,7.0;"/><polygon fill="#181818" points="1165.02,555.628,1161.5718,546.4025,1161.5182,552.0591,1155.8616,552.0054,1165.02,555.628" style="stroke:#181818;stroke-width:1.0;"/></g><!--link TurnView to PlayerView--><g id="link_TurnView_PlayerView"><path codeLine="75" d="M1043.16,454.547 C1043.33,480.481 1043.62,522.628 1043.81,550.581 " fill="none" id="TurnView-to-PlayerView" style="stroke:#181818;stroke-width:1.0;stroke-dasharray:7.0,7.0;"/><polygon fill="#181818" points="1043.84,555.628,1047.7782,546.6008,1043.8057,550.6281,1039.7784,546.6556,1043.84,555.628" style="stroke:#181818;stroke-width:1.0;"/></g><!--reverse link PlayerView to HumanPlayerView--><g id="link_PlayerView_HumanPlayerView"><path codeLine="77" d="M1044.29,624.37 C1044.47,650.782 1044.69,683.494 1044.84,705.128 " fill="none" id="PlayerView-backto-HumanPlayerView" style="stroke:#181818;stroke-width:1.0;"/><polygon fill="none" points="1037.29,624.094,1044.16,604.047,1051.29,623.999,1037.29,624.094" style="stroke:#181818;stroke-width:1.0;"/></g><!--reverse link PlayerView to IAPlayerView--><g id="link_PlayerView_IAPlayerView"><path codeLine="78" d="M1087.53,617.069 C1120.75,644.598 1165.53,681.705 1194.09,705.372 " fill="none" id="PlayerView-backto-IAPlayerView" style="stroke:#181818;stroke-width:1.0;"/><polygon fill="none" points="1082.75,622.198,1071.81,604.047,1091.68,611.418,1082.75,622.198" style="stroke:#181818;stroke-width:1.0;"/></g><!--reverse link Tictactoe to Board--><g id="link_Tictactoe_Board"><path codeLine="107" d="M742.189,492.294 C747.038,514.644 752.242,538.633 755.945,555.699 " fill="none" id="Tictactoe-backto-Board" style="stroke:#181818;stroke-width:1.0;"/><polygon fill="#181818" points="739.389,479.389,736.7518,486.1006,741.9328,491.1163,744.57,484.4047,739.389,479.389" style="stroke:#181818;stroke-width:1.0;"/></g><!--reverse link Tictactoe to Turn--><g id="link_Tictactoe_Turn"><path codeLine="108" d="M699.783,491.355 C688.743,513.97 676.821,538.394 668.374,555.699 " fill="none" id="Tictactoe-backto-Turn" style="stroke:#181818;stroke-width:1.0;"/><polygon fill="#181818" points="705.624,479.389,699.3978,483.0269,700.3611,490.1733,706.5873,486.5355,705.624,479.389" style="stroke:#181818;stroke-width:1.0;"/></g><!--reverse link Tictactoe to Player--><g id="link_Tictactoe_Player"><path codeLine="109" d="M784.223,488.862 C806.652,512.16 831.293,537.756 848.568,555.699 " fill="none" id="Tictactoe-backto-Player" style="stroke:#181818;stroke-width:1.0;"/><polygon fill="#181818" points="775.103,479.389,776.3829,486.4856,783.4259,488.0336,782.146,480.937,775.103,479.389" style="stroke:#181818;stroke-width:1.0;"/><text fill="#000000" font-family="sans-serif" font-size="13" lengthAdjust="spacing" textLength="8" x="818" y="522.0669">2</text></g><!--reverse link Board to Mark--><g id="link_Board_Mark"><path codeLine="110" d="M761,617.105 C761,636.324 761,660.202 761,680.916 " fill="none" id="Board-backto-Mark" style="stroke:#181818;stroke-width:1.0;"/><polygon fill="#181818" points="761,604.047,757,610.047,761,616.047,765,610.047,761,604.047" style="stroke:#181818;stroke-width:1.0;"/><text fill="#000000" font-family="sans-serif" font-size="13" lengthAdjust="spacing" textLength="25" x="762" y="647.0669">3X3</text></g><!--reverse link TicactoeApp to TictactoeController--><g id="link_TicactoeApp_TictactoeController"><path codeLine="114" d="M482,183.419 C482,208.177 482,233.786 482,251.607 " fill="none" id="TicactoeApp-backto-TictactoeController" style="stroke:#181818;stroke-width:1.0;"/><polygon fill="#181818" points="482,170.203,478,176.203,482,182.203,486,176.203,482,170.203" style="stroke:#181818;stroke-width:1.0;"/></g><!--link TictactoeController to TictactoeView--><g id="link_TictactoeController_TictactoeView"><path codeLine="120" d="M569.031,276 C701.344,276 833.658,276 965.971,276 " fill="none" id="TictactoeController-to-TictactoeView" style="stroke:#181818;stroke-width:1.0;"/><polygon fill="#181818" points="971.075,276,962.075,272,966.075,276,962.075,280,971.075,276" style="stroke:#181818;stroke-width:1.0;"/></g><!--link TictactoeController to Tictactoe--><g id="link_TictactoeController_Tictactoe"><path codeLine="121" d="M520.747,300.083 C540.101,311.675 563.845,325.987 585,339 C606.928,352.488 630.622,367.286 652.336,380.937 " fill="none" id="TictactoeController-to-Tictactoe" style="stroke:#181818;stroke-width:1.0;"/><polygon fill="#181818" points="656.652,383.652,651.162,375.4752,652.4192,380.9906,646.9038,382.2477,656.652,383.652" style="stroke:#181818;stroke-width:1.0;"/></g><!--link TurnController to TurnView--><g id="link_TurnController_TurnView"><path codeLine="122" d="M508.531,406.251 C533.274,379.099 577.657,336.657 626.5,319.5 C685.415,298.805 848.696,298.489 907.5,319.5 C953.355,335.884 994.86,375.199 1019.51,402.349 " fill="none" id="TurnController-to-TurnView" style="stroke:#181818;stroke-width:1.0;"/><polygon fill="#181818" points="1023.03,406.262,1019.9865,396.8952,1019.6868,402.5441,1014.0378,402.2444,1023.03,406.262" style="stroke:#181818;stroke-width:1.0;"/></g><!--link TurnController to Turn--><g id="link_TurnController_Turn"><path codeLine="123" d="M514.406,454.547 C544.826,481.097 594.715,524.639 626.692,552.548 " fill="none" id="TurnController-to-Turn" style="stroke:#181818;stroke-width:1.0;"/><polygon fill="#181818" points="630.501,555.872,626.3515,546.9399,626.7343,552.5838,621.0904,552.9666,630.501,555.872" style="stroke:#181818;stroke-width:1.0;"/></g><!--SRC=[bLLDRy8m3BtdL-Iu3vK3t3WW0K9Z1pGEQ6AQTiXAn2hQfafR9iJuxoCDJUBMQKKFYDZFhltil6OiFB0zfqKK5Ymi13yJGgzF6BCyfvieh8pJB3jNPlK4jTK6ERvIfdEH5bB4CPUq04SBMyVinAK3p1e62vq99dSEyXkU3V3vAA8TbMNwmXB-y5ZPBxgPxDPaQA9iDwPHtSdSWHZCXJJXe2s0XC1cdrr9bsN2qdi2NgVte1iyTXIzZF92o5DVMeGp6WGJo8s5e-tHeCo2lqcB9nFLxj4ROWk3EtYjoPyVmSuy2uP0MqmHREsE4VyzOzDuhnp-aUcg-r2ghbvCFQi-e3EbFcWzcXQkjI0AGGU3YIaLS6gyXXFSRT-6BbM50xi1KhdL8Z1iRedOyPXwfS8wh4vfTO8ErKGbX1JQzTi_XrytySijXVKVz0wZN2CxqRzPE8AdPK9NJ1vWWrjmUWEdnMgz-UZK2FeK1BfyZqzLx77fOiT3uzPKAvSgSppQZkhnaLjq_TNIgTj2HGndnFb55Kr6-v_YUjV1DfCE0RHsWic6oUVU1KHRAaB8vHy0]--></g></svg>