<?xml version="1.0" encoding="UTF-8" standalone="no"?><svg xmlns="http://www.w3.org/2000/svg" xmlns:xlink="http://www.w3.org/1999/xlink" contentStyleType="text/css" height="540px" preserveAspectRatio="none" style="width:1445px;height:540px;background:#000000;" version="1.1" viewBox="0 0 1445 540" width="1445px" zoomAndPan="magnify"><defs/><g><g id="elem_TTTGame"><rect fill="#0E0E0E" height="37.6094" style="stroke:#E7E7E7;stroke-width:0.5;" width="79" x="1031.5" y="7"/><text fill="#FFFFFF" font-family="sans-serif" font-size="14" lengthAdjust="spacing" textLength="65" x="1038.5" y="23.5332">TTTGame</text><line style="stroke:#E7E7E7;stroke-width:0.5;" x1="1032.5" x2="1109.5" y1="28.6094" y2="28.6094"/></g><g id="elem_Board"><rect fill="#0E0E0E" height="37.6094" style="stroke:#E7E7E7;stroke-width:0.5;" width="52" x="836" y="7"/><text fill="#FFFFFF" font-family="sans-serif" font-size="14" lengthAdjust="spacing" textLength="38" x="843" y="23.5332">Board</text><line style="stroke:#E7E7E7;stroke-width:0.5;" x1="837" x2="887" y1="28.6094" y2="28.6094"/></g><g id="elem_dimensions"><rect fill="#0E0E0E" height="37.6094" style="stroke:#E7E7E7;stroke-width:0.5;" width="85" x="715.5" y="7"/><text fill="#FFFFFF" font-family="sans-serif" font-size="14" lengthAdjust="spacing" textLength="71" x="722.5" y="23.5332">dimensions</text><line style="stroke:#E7E7E7;stroke-width:0.5;" x1="716.5" x2="799.5" y1="28.6094" y2="28.6094"/></g><g id="elem_Spaces"><rect fill="#0E0E0E" height="37.6094" style="stroke:#E7E7E7;stroke-width:0.5;" width="61" x="276.5" y="105"/><text fill="#FFFFFF" font-family="sans-serif" font-size="14" lengthAdjust="spacing" textLength="47" x="283.5" y="121.5332">Spaces</text><line style="stroke:#E7E7E7;stroke-width:0.5;" x1="277.5" x2="336.5" y1="126.6094" y2="126.6094"/></g><g id="elem_availability"><rect fill="#0E0E0E" height="37.6094" style="stroke:#E7E7E7;stroke-width:0.5;" width="79" x="316.5" y="203"/><text fill="#FFFFFF" font-family="sans-serif" font-size="14" lengthAdjust="spacing" textLength="65" x="323.5" y="219.5332">availability</text><line style="stroke:#E7E7E7;stroke-width:0.5;" x1="317.5" x2="394.5" y1="224.6094" y2="224.6094"/></g><g id="elem_Coordinate"><rect fill="#0E0E0E" height="37.6094" style="stroke:#E7E7E7;stroke-width:0.5;" width="84" x="108" y="203"/><text fill="#FFFFFF" font-family="sans-serif" font-size="14" lengthAdjust="spacing" textLength="70" x="115" y="219.5332">Coordinate</text><line style="stroke:#E7E7E7;stroke-width:0.5;" x1="109" x2="191" y1="224.6094" y2="224.6094"/></g><g id="elem_positionX"><rect fill="#0E0E0E" height="37.6094" style="stroke:#E7E7E7;stroke-width:0.5;" width="71" x="114.5" y="301"/><text fill="#FFFFFF" font-family="sans-serif" font-size="14" lengthAdjust="spacing" textLength="57" x="121.5" y="317.5332">positionX</text><line style="stroke:#E7E7E7;stroke-width:0.5;" x1="115.5" x2="184.5" y1="322.6094" y2="322.6094"/></g><g id="elem_positionY"><rect fill="#0E0E0E" height="37.6094" style="stroke:#E7E7E7;stroke-width:0.5;" width="72" x="7" y="301"/><text fill="#FFFFFF" font-family="sans-serif" font-size="14" lengthAdjust="spacing" textLength="58" x="14" y="317.5332">positionY</text><line style="stroke:#E7E7E7;stroke-width:0.5;" x1="8" x2="78" y1="322.6094" y2="322.6094"/></g><g id="elem_BoardGoals"><rect fill="#0E0E0E" height="37.6094" style="stroke:#E7E7E7;stroke-width:0.5;" width="89" x="753.5" y="105"/><text fill="#FFFFFF" font-family="sans-serif" font-size="14" lengthAdjust="spacing" textLength="75" x="760.5" y="121.5332">BoardGoals</text><line style="stroke:#E7E7E7;stroke-width:0.5;" x1="754.5" x2="841.5" y1="126.6094" y2="126.6094"/></g><g id="elem_paint"><rect fill="#0E0E0E" height="37.6094" style="stroke:#E7E7E7;stroke-width:0.5;" width="45" x="775.5" y="203"/><text fill="#FFFFFF" font-family="sans-serif" font-size="14" lengthAdjust="spacing" textLength="31" x="782.5" y="219.5332">paint</text><line style="stroke:#E7E7E7;stroke-width:0.5;" x1="776.5" x2="819.5" y1="224.6094" y2="224.6094"/></g><g id="elem_validateChoice"><rect fill="#0E0E0E" height="37.6094" style="stroke:#E7E7E7;stroke-width:0.5;" width="107" x="855.5" y="203"/><text fill="#FFFFFF" font-family="sans-serif" font-size="14" lengthAdjust="spacing" textLength="93" x="862.5" y="219.5332">validateChoice</text><line style="stroke:#E7E7E7;stroke-width:0.5;" x1="856.5" x2="961.5" y1="224.6094" y2="224.6094"/></g><g id="elem_verifyChoiceExistence"><rect fill="#0E0E0E" height="37.6094" style="stroke:#E7E7E7;stroke-width:0.5;" width="152" x="431" y="203"/><text fill="#FFFFFF" font-family="sans-serif" font-size="14" lengthAdjust="spacing" textLength="138" x="438" y="219.5332">verifyChoiceExistence</text><line style="stroke:#E7E7E7;stroke-width:0.5;" x1="432" x2="582" y1="224.6094" y2="224.6094"/></g><g id="elem_determineWinner"><rect fill="#0E0E0E" height="37.6094" style="stroke:#E7E7E7;stroke-width:0.5;" width="122" x="618" y="203"/><text fill="#FFFFFF" font-family="sans-serif" font-size="14" lengthAdjust="spacing" textLength="108" x="625" y="219.5332">determineWinner</text><line style="stroke:#E7E7E7;stroke-width:0.5;" x1="619" x2="739" y1="224.6094" y2="224.6094"/></g><g id="elem_Player"><rect fill="#0E0E0E" height="37.6094" style="stroke:#E7E7E7;stroke-width:0.5;" width="54" x="1209" y="301"/><text fill="#FFFFFF" font-family="sans-serif" font-size="14" lengthAdjust="spacing" textLength="40" x="1216" y="317.5332">Player</text><line style="stroke:#E7E7E7;stroke-width:0.5;" x1="1210" x2="1262" y1="322.6094" y2="322.6094"/></g><g id="elem_id"><rect fill="#0E0E0E" height="37.6094" style="stroke:#E7E7E7;stroke-width:0.5;" width="25" x="1414.5" y="399"/><text fill="#FFFFFF" font-family="sans-serif" font-size="14" lengthAdjust="spacing" textLength="11" x="1421.5" y="415.5332">id</text><line style="stroke:#E7E7E7;stroke-width:0.5;" x1="1415.5" x2="1438.5" y1="420.6094" y2="420.6094"/></g><g id="elem_name"><rect fill="#0E0E0E" height="37.6094" style="stroke:#E7E7E7;stroke-width:0.5;" width="49" x="1124.5" y="399"/><text fill="#FFFFFF" font-family="sans-serif" font-size="14" lengthAdjust="spacing" textLength="35" x="1131.5" y="415.5332">name</text><line style="stroke:#E7E7E7;stroke-width:0.5;" x1="1125.5" x2="1172.5" y1="420.6094" y2="420.6094"/></g><g id="elem_mark"><rect fill="#0E0E0E" height="37.6094" style="stroke:#E7E7E7;stroke-width:0.5;" width="45" x="1208.5" y="399"/><text fill="#FFFFFF" font-family="sans-serif" font-size="14" lengthAdjust="spacing" textLength="31" x="1215.5" y="415.5332">mark</text><line style="stroke:#E7E7E7;stroke-width:0.5;" x1="1209.5" x2="1252.5" y1="420.6094" y2="420.6094"/></g><g id="elem_PlayerGoals"><rect fill="#0E0E0E" height="37.6094" style="stroke:#E7E7E7;stroke-width:0.5;" width="91" x="1288.5" y="399"/><text fill="#FFFFFF" font-family="sans-serif" font-size="14" lengthAdjust="spacing" textLength="77" x="1295.5" y="415.5332">PlayerGoals</text><line style="stroke:#E7E7E7;stroke-width:0.5;" x1="1289.5" x2="1378.5" y1="420.6094" y2="420.6094"/></g><g id="elem_putPiece"><rect fill="#0E0E0E" height="37.6094" style="stroke:#E7E7E7;stroke-width:0.5;" width="69" x="1299.5" y="497"/><text fill="#FFFFFF" font-family="sans-serif" font-size="14" lengthAdjust="spacing" textLength="55" x="1306.5" y="513.5332">putPiece</text><line style="stroke:#E7E7E7;stroke-width:0.5;" x1="1300.5" x2="1367.5" y1="518.6094" y2="518.6094"/></g><g id="elem_Rounds"><rect fill="#0E0E0E" height="37.6094" style="stroke:#E7E7E7;stroke-width:0.5;" width="63" x="997.5" y="203"/><text fill="#FFFFFF" font-family="sans-serif" font-size="14" lengthAdjust="spacing" textLength="49" x="1004.5" y="219.5332">Rounds</text><line style="stroke:#E7E7E7;stroke-width:0.5;" x1="998.5" x2="1059.5" y1="224.6094" y2="224.6094"/></g><g id="elem_RoundGoals"><rect fill="#0E0E0E" height="37.6094" style="stroke:#E7E7E7;stroke-width:0.5;" width="93" x="982.5" y="301"/><text fill="#FFFFFF" font-family="sans-serif" font-size="14" lengthAdjust="spacing" textLength="79" x="989.5" y="317.5332">RoundGoals</text><line style="stroke:#E7E7E7;stroke-width:0.5;" x1="983.5" x2="1074.5" y1="322.6094" y2="322.6094"/></g><g id="elem_executeRound"><rect fill="#0E0E0E" height="37.6094" style="stroke:#E7E7E7;stroke-width:0.5;" width="105" x="976.5" y="399"/><text fill="#FFFFFF" font-family="sans-serif" font-size="14" lengthAdjust="spacing" textLength="91" x="983.5" y="415.5332">executeRound</text><line style="stroke:#E7E7E7;stroke-width:0.5;" x1="977.5" x2="1080.5" y1="420.6094" y2="420.6094"/></g><g id="elem_Piece"><rect fill="#0E0E0E" height="37.6094" style="stroke:#E7E7E7;stroke-width:0.5;" width="49" x="232.5" y="203"/><text fill="#FFFFFF" font-family="sans-serif" font-size="14" lengthAdjust="spacing" textLength="35" x="239.5" y="219.5332">Piece</text><line style="stroke:#E7E7E7;stroke-width:0.5;" x1="233.5" x2="280.5" y1="224.6094" y2="224.6094"/></g><g id="elem_pieceName"><rect fill="#0E0E0E" height="37.6094" style="stroke:#E7E7E7;stroke-width:0.5;" width="84" x="221" y="301"/><text fill="#FFFFFF" font-family="sans-serif" font-size="14" lengthAdjust="spacing" textLength="70" x="228" y="317.5332">pieceName</text><line style="stroke:#E7E7E7;stroke-width:0.5;" x1="222" x2="304" y1="322.6094" y2="322.6094"/></g><g id="elem_Statistic"><rect fill="#0E0E0E" height="37.6094" style="stroke:#E7E7E7;stroke-width:0.5;" width="63" x="1082.5" y="105"/><text fill="#FFFFFF" font-family="sans-serif" font-size="14" lengthAdjust="spacing" textLength="49" x="1089.5" y="121.5332">Statistic</text><line style="stroke:#E7E7E7;stroke-width:0.5;" x1="1083.5" x2="1144.5" y1="126.6094" y2="126.6094"/></g><g id="elem_winnerName"><rect fill="#0E0E0E" height="37.6094" style="stroke:#E7E7E7;stroke-width:0.5;" width="91" x="1095.5" y="203"/><text fill="#FFFFFF" font-family="sans-serif" font-size="14" lengthAdjust="spacing" textLength="77" x="1102.5" y="219.5332">winnerName</text><line style="stroke:#E7E7E7;stroke-width:0.5;" x1="1096.5" x2="1185.5" y1="224.6094" y2="224.6094"/></g><!--MD5=[cf5572f1e9ebe5a1625b5a168303c174]
link Board to TTTGame--><g id="link_Board_TTTGame"><path codeLine="31" d="M888.12,26 C931.49,26 974.85,26 1018.21,26 " fill="none" id="Board-to-TTTGame" style="stroke:#E7E7E7;stroke-width:1.0;"/><polygon fill="#E7E7E7" points="1031.35,26,1025.35,22,1019.35,26,1025.35,30,1031.35,26" style="stroke:#E7E7E7;stroke-width:1.0;"/></g><!--MD5=[e842eb6168da7c3d23d4a58737904d12]
reverse link TTTGame to Player--><g id="link_TTTGame_Player"><path codeLine="32" d="M1109.21,52.84 C1127.37,66.63 1148.28,84.9 1163,105 C1209.03,167.87 1227.57,261.91 1233.57,300.98 " fill="none" id="TTTGame-backto-Player" style="stroke:#E7E7E7;stroke-width:1.0;"/><polygon fill="#E7E7E7" points="1098.61,45.05,1101.0786,51.8254,1108.2822,52.1526,1105.8137,45.3772,1098.61,45.05" style="stroke:#E7E7E7;stroke-width:1.0;"/></g><!--MD5=[398df02eff112d942b04f89fb59be107]
reverse link TTTGame to Rounds--><g id="link_TTTGame_Rounds"><path codeLine="33" d="M1064.25,58.16 C1055.38,99.15 1040.07,169.85 1032.91,202.94 " fill="none" id="TTTGame-backto-Rounds" style="stroke:#E7E7E7;stroke-width:1.0;"/><polygon fill="#E7E7E7" points="1067.05,45.25,1061.8681,50.2648,1064.5041,56.9768,1069.686,51.962,1067.05,45.25" style="stroke:#E7E7E7;stroke-width:1.0;"/></g><!--MD5=[cddd1e96249049c7fae7104dde718151]
reverse link TTTGame to Statistic--><g id="link_TTTGame_Statistic"><path codeLine="34" d="M1084.56,57.28 C1091.54,72.85 1099.81,91.31 1105.8,104.7 " fill="none" id="TTTGame-backto-Statistic" style="stroke:#E7E7E7;stroke-width:1.0;"/><polygon fill="#E7E7E7" points="1079.09,45.06,1077.8938,52.1712,1083.9979,56.0105,1085.1941,48.8993,1079.09,45.06" style="stroke:#E7E7E7;stroke-width:1.0;"/></g><!--MD5=[d08d5eb869d4b299c98352146ea1d976]
link dimensions to Board--><g id="link_dimensions_Board"><path codeLine="36" d="M800.66,26 C807.94,26 815.23,26 822.52,26 " fill="none" id="dimensions-to-Board" style="stroke:#E7E7E7;stroke-width:1.0;"/><polygon fill="#E7E7E7" points="835.64,26,829.64,22,823.64,26,829.64,30,835.64,26" style="stroke:#E7E7E7;stroke-width:1.0;"/></g><!--MD5=[9fe8c0a0d5136107374d4ed36a61c63c]
reverse link Board to Spaces--><g id="link_Board_Spaces"><path codeLine="37" d="M823.58,43.32 C821.71,43.93 819.84,44.49 818,45 C640.04,94.23 418.06,114.71 337.77,120.85 " fill="none" id="Board-backto-Spaces" style="stroke:#E7E7E7;stroke-width:1.0;"/><polygon fill="#E7E7E7" points="835.83,38.89,828.8283,37.1648,824.5429,42.9644,831.5446,44.6896,835.83,38.89" style="stroke:#E7E7E7;stroke-width:1.0;"/></g><!--MD5=[e906e7f704d271a35049f578a7278914]
reverse link Board to BoardGoals--><g id="link_Board_BoardGoals"><path codeLine="38" d="M842.74,55.89 C832.18,71.74 819.39,90.91 810.2,104.7 " fill="none" id="Board-backto-BoardGoals" style="stroke:#E7E7E7;stroke-width:1.0;"/><polygon fill="none" points="849.96,45.06,843.3028,47.8315,843.3006,55.0426,849.9578,52.2711,849.96,45.06" style="stroke:#E7E7E7;stroke-width:1.0;"/></g><!--MD5=[9e729c18e157d76cb34bebb44b75cb3e]
reverse link BoardGoals to paint--><g id="link_BoardGoals_paint"><path codeLine="39" d="M798,163.43 C798,176.98 798,191.59 798,202.7 " fill="none" id="BoardGoals-backto-paint" style="stroke:#E7E7E7;stroke-width:1.0;"/><polygon fill="none" points="791,163.06,798,143.06,805,163.06,791,163.06" style="stroke:#E7E7E7;stroke-width:1.0;"/></g><!--MD5=[009d07baab6e920045ae86f4d067f619]
reverse link BoardGoals to validateChoice--><g id="link_BoardGoals_validateChoice"><path codeLine="40" d="M834.09,156.22 C851.86,171.59 872.67,189.58 887.84,202.7 " fill="none" id="BoardGoals-backto-validateChoice" style="stroke:#E7E7E7;stroke-width:1.0;"/><polygon fill="none" points="829.43,161.43,818.88,143.06,838.58,150.85,829.43,161.43" style="stroke:#E7E7E7;stroke-width:1.0;"/></g><!--MD5=[79f59f4999f539ee3950c3102111328a]
reverse link BoardGoals to verifyChoiceExistence--><g id="link_BoardGoals_verifyChoiceExistence"><path codeLine="41" d="M734.45,145.97 C682.82,163 610.77,186.77 561.69,202.96 " fill="none" id="BoardGoals-backto-verifyChoiceExistence" style="stroke:#E7E7E7;stroke-width:1.0;"/><polygon fill="none" points="732.3,139.3,753.49,139.68,736.69,152.6,732.3,139.3" style="stroke:#E7E7E7;stroke-width:1.0;"/></g><!--MD5=[8bf671eb047ffa2aabfe72f535108f15]
reverse link BoardGoals to determineWinner--><g id="link_BoardGoals_determineWinner"><path codeLine="42" d="M759.89,155.75 C740.71,171.22 718.11,189.45 701.69,202.7 " fill="none" id="BoardGoals-backto-determineWinner" style="stroke:#E7E7E7;stroke-width:1.0;"/><polygon fill="none" points="755.66,150.17,775.62,143.06,764.45,161.06,755.66,150.17" style="stroke:#E7E7E7;stroke-width:1.0;"/></g><!--MD5=[fac2d40fe0f74a30bfd34ba62ab1db3d]
reverse link Spaces to availability--><g id="link_Spaces_availability"><path codeLine="44" d="M322.22,154.81 C330.21,170.48 339.76,189.18 346.66,202.7 " fill="none" id="Spaces-backto-availability" style="stroke:#E7E7E7;stroke-width:1.0;"/><polygon fill="#E7E7E7" points="316.22,143.06,315.3783,150.2218,321.6655,153.7533,322.5072,146.5915,316.22,143.06" style="stroke:#E7E7E7;stroke-width:1.0;"/></g><!--MD5=[45e18d8fb9d4e1e1446c206f2db63f1b]
reverse link Spaces to Coordinate--><g id="link_Spaces_Coordinate"><path codeLine="45" d="M266.02,150.06 C238.94,166.62 204.08,187.93 179.66,202.86 " fill="none" id="Spaces-backto-Coordinate" style="stroke:#E7E7E7;stroke-width:1.0;"/><polygon fill="#E7E7E7" points="277.47,143.06,270.2643,142.7808,267.2352,149.3249,274.4409,149.604,277.47,143.06" style="stroke:#E7E7E7;stroke-width:1.0;"/></g><!--MD5=[59fa16edeb1e419094435df269cab0ab]
reverse link Spaces to Piece--><g id="link_Spaces_Piece"><path codeLine="46" d="M291.47,154.81 C283.31,170.48 273.57,189.18 266.53,202.7 " fill="none" id="Spaces-backto-Piece" style="stroke:#E7E7E7;stroke-width:1.0;"/><polygon fill="none" points="297.6,143.06,291.2802,146.5327,292.0551,153.7021,298.3749,150.2293,297.6,143.06" style="stroke:#E7E7E7;stroke-width:1.0;"/></g><!--MD5=[6395419ed105fcb3f75d5da94b0f0f94]
reverse link Coordinate to positionX--><g id="link_Coordinate_positionX"><path codeLine="48" d="M150,254.22 C150,269.59 150,287.58 150,300.7 " fill="none" id="Coordinate-backto-positionX" style="stroke:#E7E7E7;stroke-width:1.0;"/><polygon fill="#E7E7E7" points="150,241.06,146,247.06,150,253.06,154,247.06,150,241.06" style="stroke:#E7E7E7;stroke-width:1.0;"/></g><!--MD5=[d12ab7607f80d80ce519d1163b41b3ca]
reverse link Coordinate to positionY--><g id="link_Coordinate_positionY"><path codeLine="49" d="M120.1,249.83 C102.02,266.05 79.44,286.31 63.4,300.7 " fill="none" id="Coordinate-backto-positionY" style="stroke:#E7E7E7;stroke-width:1.0;"/><polygon fill="#E7E7E7" points="129.87,241.06,122.7325,242.0878,120.9361,249.0715,128.0736,248.0438,129.87,241.06" style="stroke:#E7E7E7;stroke-width:1.0;"/></g><!--MD5=[9830c29e3886cbfb5228990c4a8b7f81]
reverse link Rounds to RoundGoals--><g id="link_Rounds_RoundGoals"><path codeLine="51" d="M1029,254.22 C1029,269.59 1029,287.58 1029,300.7 " fill="none" id="Rounds-backto-RoundGoals" style="stroke:#E7E7E7;stroke-width:1.0;"/><polygon fill="none" points="1029,241.06,1025,247.06,1029,253.06,1033,247.06,1029,241.06" style="stroke:#E7E7E7;stroke-width:1.0;"/></g><!--MD5=[6d0d7a2001ebe864eddb980d43bf9625]
link Rounds to Player--><g id="link_Rounds_Player"><path codeLine="52" d="M1060.89,237.79 C1099.8,255.83 1165.18,286.16 1204.09,304.2 " fill="none" id="Rounds-to-Player" style="stroke:#E7E7E7;stroke-width:1.0;"/><polygon fill="#E7E7E7" points="1208.7,306.34,1202.2179,298.925,1204.164,304.2365,1198.8524,306.1826,1208.7,306.34" style="stroke:#E7E7E7;stroke-width:1.0;"/></g><!--MD5=[85f0d2c35e875c8ec82ec2ecd8583536]
link Rounds to Board--><g id="link_Rounds_Board"><path codeLine="53" d="M1013.45,202.94 C982.8,167.33 914.64,88.15 881.22,49.33 " fill="none" id="Rounds-to-Board" style="stroke:#E7E7E7;stroke-width:1.0;"/><polygon fill="#E7E7E7" points="877.71,45.25,880.5477,54.6812,880.971,49.0402,886.612,49.4636,877.71,45.25" style="stroke:#E7E7E7;stroke-width:1.0;"/></g><!--MD5=[e29727971e0bb8507243bff60b1fd8ad]
reverse link RoundGoals to executeRound--><g id="link_RoundGoals_executeRound"><path codeLine="54" d="M1029,359.43 C1029,372.98 1029,387.59 1029,398.7 " fill="none" id="RoundGoals-backto-executeRound" style="stroke:#E7E7E7;stroke-width:1.0;"/><polygon fill="none" points="1022,359.06,1029,339.06,1036,359.06,1022,359.06" style="stroke:#E7E7E7;stroke-width:1.0;"/></g><!--MD5=[8fb86329e7ed417be43d1409d2b78be1]
reverse link Player to id--><g id="link_Player_id"><path codeLine="56" d="M1274.97,338.69 C1307.88,353.91 1356.06,376.86 1397,399 C1402.77,402.12 1409.01,405.81 1414.3,409.04 " fill="none" id="Player-backto-id" style="stroke:#E7E7E7;stroke-width:1.0;"/><polygon fill="#E7E7E7" points="1263.15,333.25,1266.9319,339.3898,1274.054,338.2603,1270.2721,332.1205,1263.15,333.25" style="stroke:#E7E7E7;stroke-width:1.0;"/></g><!--MD5=[bfe9ee763265fa606f51959ec56165b3]
reverse link Player to name--><g id="link_Player_name"><path codeLine="57" d="M1210.66,348.97 C1196.13,364.99 1178.32,384.64 1165.59,398.7 " fill="none" id="Player-backto-name" style="stroke:#E7E7E7;stroke-width:1.0;"/><polygon fill="#E7E7E7" points="1219.64,339.06,1212.6465,340.8182,1211.5797,347.95,1218.5732,346.1918,1219.64,339.06" style="stroke:#E7E7E7;stroke-width:1.0;"/></g><!--MD5=[267a0f84dd19374f69537bbb7a68e92a]
reverse link Player to mark--><g id="link_Player_mark"><path codeLine="58" d="M1234.37,352.22 C1233.57,367.59 1232.64,385.58 1231.95,398.7 " fill="none" id="Player-backto-mark" style="stroke:#E7E7E7;stroke-width:1.0;"/><polygon fill="#E7E7E7" points="1235.06,339.06,1230.7492,344.8407,1234.4272,351.0433,1238.738,345.2626,1235.06,339.06" style="stroke:#E7E7E7;stroke-width:1.0;"/></g><!--MD5=[64d93484d95da910069a389f215a819f]
reverse link Player to PlayerGoals--><g id="link_Player_PlayerGoals"><path codeLine="59" d="M1264.08,348.51 C1280.52,364.61 1300.83,384.51 1315.32,398.7 " fill="none" id="Player-backto-PlayerGoals" style="stroke:#E7E7E7;stroke-width:1.0;"/><polygon fill="none" points="1254.43,339.06,1255.9211,346.1153,1263.0071,347.4524,1261.516,340.3972,1254.43,339.06" style="stroke:#E7E7E7;stroke-width:1.0;"/></g><!--MD5=[9765a6e165086b42600ac659b6ef45b9]
reverse link PlayerGoals to putPiece--><g id="link_PlayerGoals_putPiece"><path codeLine="60" d="M1334,457.43 C1334,470.98 1334,485.59 1334,496.7 " fill="none" id="PlayerGoals-backto-putPiece" style="stroke:#E7E7E7;stroke-width:1.0;"/><polygon fill="none" points="1327,457.06,1334,437.06,1341,457.06,1327,457.06" style="stroke:#E7E7E7;stroke-width:1.0;"/></g><!--MD5=[d756ab913c41dc7d5fa2908150e7cadc]
reverse link Piece to pieceName--><g id="link_Piece_pieceName"><path codeLine="62" d="M258.95,254.22 C259.91,269.59 261.04,287.58 261.86,300.7 " fill="none" id="Piece-backto-pieceName" style="stroke:#E7E7E7;stroke-width:1.0;"/><polygon fill="#E7E7E7" points="258.13,241.06,254.5138,247.2988,258.8818,253.0364,262.4981,246.7976,258.13,241.06" style="stroke:#E7E7E7;stroke-width:1.0;"/></g><!--MD5=[7d5ca53f137af02eab02a39cc350f425]
reverse link Statistic to winnerName--><g id="link_Statistic_winnerName"><path codeLine="64" d="M1122.65,155.75 C1127,171.22 1132.13,189.45 1135.85,202.7 " fill="none" id="Statistic-backto-winnerName" style="stroke:#E7E7E7;stroke-width:1.0;"/><polygon fill="#E7E7E7" points="1119.08,143.06,1116.8511,149.918,1122.3244,154.6131,1124.5532,147.7551,1119.08,143.06" style="stroke:#E7E7E7;stroke-width:1.0;"/></g><!--MD5=[c3997f82263af05eb324c08aa3508931]
link Statistic to Rounds--><g id="link_Statistic_Rounds"><path codeLine="65" d="M1098.01,143.06 C1084.09,158.78 1063.85,181.64 1048.89,198.54 " fill="none" id="Statistic-to-Rounds" style="stroke:#E7E7E7;stroke-width:1.0;"/><polygon fill="#E7E7E7" points="1045.21,202.7,1054.1712,198.6138,1048.5247,198.9567,1048.1818,193.3102,1045.21,202.7" style="stroke:#E7E7E7;stroke-width:1.0;"/></g><!--MD5=[bfe854ad7524671d60fba4bcec7ab7b5]
@startuml domainModel

skinparam monochrome reverse

object TTTGame
    object Board
        object dimensions
        object Spaces
            object availability
            object Coordinate
                object positionX
                object positionY
    object BoardGoals
        object paint
        object validateChoice
        object verifyChoiceExistence
        object determineWinner
    object Player
        object id
        object name
        object mark
        object PlayerGoals
            object putPiece
    object Rounds
        object RoundGoals
            object executeRound
    object Piece
        object pieceName
    object Statistic
        object winnerName

TTTGame *-left- Board
TTTGame *- - Player
TTTGame *- - Rounds
TTTGame *- - Statistic

Board *-left- dimensions
Board *- - Spaces
Board o- - BoardGoals
BoardGoals <|- - paint
BoardGoals <|- - validateChoice
BoardGoals <|- - verifyChoiceExistence
BoardGoals <|- - determineWinner

Spaces *- - availability
Spaces *- - Coordinate
Spaces o- - Piece

Coordinate *- - positionX
Coordinate *- - positionY

Rounds o- - RoundGoals
Rounds - -> Player
Rounds - -> Board
RoundGoals <|- - executeRound

Player *- - id
Player *- - name
Player *- - mark
Player o- - PlayerGoals
PlayerGoals <|- - putPiece

Piece *- - pieceName

Statistic *- - winnerName
Statistic - -> Rounds


@enduml

PlantUML version 1.2022.7(Mon Aug 22 11:01:30 CST 2022)
(GPL source distribution)
Java Runtime: Java(TM) SE Runtime Environment
JVM: Java HotSpot(TM) 64-Bit Server VM
Default Encoding: Cp1252
Language: en
Country: US
--></g></svg>