<?xml version="1.0" encoding="UTF-8" standalone="no"?><svg xmlns="http://www.w3.org/2000/svg" xmlns:xlink="http://www.w3.org/1999/xlink" contentStyleType="text/css" height="540px" preserveAspectRatio="none" style="width:991px;height:540px;background:#000000;" version="1.1" viewBox="0 0 991 540" width="991px" zoomAndPan="magnify"><defs/><g><g id="elem_TTTGame"><rect fill="#0E0E0E" height="37.6094" style="stroke:#E7E7E7;stroke-width:0.5;" width="79" x="738" y="7"/><text fill="#FFFFFF" font-family="sans-serif" font-size="14" lengthAdjust="spacing" textLength="65" x="745" y="23.5332">TTTGame</text><line style="stroke:#E7E7E7;stroke-width:0.5;" x1="739" x2="816" y1="28.6094" y2="28.6094"/></g><g id="elem_Board"><rect fill="#0E0E0E" height="37.6094" style="stroke:#E7E7E7;stroke-width:0.5;" width="52" x="508.5" y="7"/><text fill="#FFFFFF" font-family="sans-serif" font-size="14" lengthAdjust="spacing" textLength="38" x="515.5" y="23.5332">Board</text><line style="stroke:#E7E7E7;stroke-width:0.5;" x1="509.5" x2="559.5" y1="28.6094" y2="28.6094"/></g><g id="elem_dimensions"><rect fill="#0E0E0E" height="37.6094" style="stroke:#E7E7E7;stroke-width:0.5;" width="85" x="388" y="7"/><text fill="#FFFFFF" font-family="sans-serif" font-size="14" lengthAdjust="spacing" textLength="71" x="395" y="23.5332">dimensions</text><line style="stroke:#E7E7E7;stroke-width:0.5;" x1="389" x2="472" y1="28.6094" y2="28.6094"/></g><g id="elem_Spaces"><rect fill="#0E0E0E" height="37.6094" style="stroke:#E7E7E7;stroke-width:0.5;" width="61" x="50" y="105"/><text fill="#FFFFFF" font-family="sans-serif" font-size="14" lengthAdjust="spacing" textLength="47" x="57" y="121.5332">Spaces</text><line style="stroke:#E7E7E7;stroke-width:0.5;" x1="51" x2="110" y1="126.6094" y2="126.6094"/></g><g id="elem_Coordinate"><rect fill="#0E0E0E" height="37.6094" style="stroke:#E7E7E7;stroke-width:0.5;" width="84" x="38.5" y="203"/><text fill="#FFFFFF" font-family="sans-serif" font-size="14" lengthAdjust="spacing" textLength="70" x="45.5" y="219.5332">Coordinate</text><line style="stroke:#E7E7E7;stroke-width:0.5;" x1="39.5" x2="121.5" y1="224.6094" y2="224.6094"/></g><g id="elem_positionX"><rect fill="#0E0E0E" height="37.6094" style="stroke:#E7E7E7;stroke-width:0.5;" width="71" x="42" y="301"/><text fill="#FFFFFF" font-family="sans-serif" font-size="14" lengthAdjust="spacing" textLength="57" x="49" y="317.5332">positionX</text><line style="stroke:#E7E7E7;stroke-width:0.5;" x1="43" x2="112" y1="322.6094" y2="322.6094"/></g><g id="elem_positionY"><rect fill="#0E0E0E" height="37.6094" style="stroke:#E7E7E7;stroke-width:0.5;" width="72" x="148.5" y="301"/><text fill="#FFFFFF" font-family="sans-serif" font-size="14" lengthAdjust="spacing" textLength="58" x="155.5" y="317.5332">positionY</text><line style="stroke:#E7E7E7;stroke-width:0.5;" x1="149.5" x2="219.5" y1="322.6094" y2="322.6094"/></g><g id="elem_BoardGoals"><rect fill="#0E0E0E" height="37.6094" style="stroke:#E7E7E7;stroke-width:0.5;" width="89" x="412" y="105"/><text fill="#FFFFFF" font-family="sans-serif" font-size="14" lengthAdjust="spacing" textLength="75" x="419" y="121.5332">BoardGoals</text><line style="stroke:#E7E7E7;stroke-width:0.5;" x1="413" x2="500" y1="126.6094" y2="126.6094"/></g><g id="elem_paint"><rect fill="#0E0E0E" height="37.6094" style="stroke:#E7E7E7;stroke-width:0.5;" width="45" x="158" y="203"/><text fill="#FFFFFF" font-family="sans-serif" font-size="14" lengthAdjust="spacing" textLength="31" x="165" y="219.5332">paint</text><line style="stroke:#E7E7E7;stroke-width:0.5;" x1="159" x2="202" y1="224.6094" y2="224.6094"/></g><g id="elem_validateChoice"><rect fill="#0E0E0E" height="37.6094" style="stroke:#E7E7E7;stroke-width:0.5;" width="107" x="238" y="203"/><text fill="#FFFFFF" font-family="sans-serif" font-size="14" lengthAdjust="spacing" textLength="93" x="245" y="219.5332">validateChoice</text><line style="stroke:#E7E7E7;stroke-width:0.5;" x1="239" x2="344" y1="224.6094" y2="224.6094"/></g><g id="elem_verifyChoiceExistence"><rect fill="#0E0E0E" height="37.6094" style="stroke:#E7E7E7;stroke-width:0.5;" width="152" x="380.5" y="203"/><text fill="#FFFFFF" font-family="sans-serif" font-size="14" lengthAdjust="spacing" textLength="138" x="387.5" y="219.5332">verifyChoiceExistence</text><line style="stroke:#E7E7E7;stroke-width:0.5;" x1="381.5" x2="531.5" y1="224.6094" y2="224.6094"/></g><g id="elem_determineWinner"><rect fill="#0E0E0E" height="37.6094" style="stroke:#E7E7E7;stroke-width:0.5;" width="122" x="567.5" y="203"/><text fill="#FFFFFF" font-family="sans-serif" font-size="14" lengthAdjust="spacing" textLength="108" x="574.5" y="219.5332">determineWinner</text><line style="stroke:#E7E7E7;stroke-width:0.5;" x1="568.5" x2="688.5" y1="224.6094" y2="224.6094"/></g><g id="elem_Player"><rect fill="#0E0E0E" height="37.6094" style="stroke:#E7E7E7;stroke-width:0.5;" width="54" x="690.5" y="301"/><text fill="#FFFFFF" font-family="sans-serif" font-size="14" lengthAdjust="spacing" textLength="40" x="697.5" y="317.5332">Player</text><line style="stroke:#E7E7E7;stroke-width:0.5;" x1="691.5" x2="743.5" y1="322.6094" y2="322.6094"/></g><g id="elem_id"><rect fill="#0E0E0E" height="37.6094" style="stroke:#E7E7E7;stroke-width:0.5;" width="25" x="580" y="399"/><text fill="#FFFFFF" font-family="sans-serif" font-size="14" lengthAdjust="spacing" textLength="11" x="587" y="415.5332">id</text><line style="stroke:#E7E7E7;stroke-width:0.5;" x1="581" x2="604" y1="420.6094" y2="420.6094"/></g><g id="elem_name"><rect fill="#0E0E0E" height="37.6094" style="stroke:#E7E7E7;stroke-width:0.5;" width="49" x="640" y="399"/><text fill="#FFFFFF" font-family="sans-serif" font-size="14" lengthAdjust="spacing" textLength="35" x="647" y="415.5332">name</text><line style="stroke:#E7E7E7;stroke-width:0.5;" x1="641" x2="688" y1="420.6094" y2="420.6094"/></g><g id="elem_mark"><rect fill="#0E0E0E" height="37.6094" style="stroke:#E7E7E7;stroke-width:0.5;" width="45" x="852" y="7"/><text fill="#FFFFFF" font-family="sans-serif" font-size="14" lengthAdjust="spacing" textLength="31" x="859" y="23.5332">mark</text><line style="stroke:#E7E7E7;stroke-width:0.5;" x1="853" x2="896" y1="28.6094" y2="28.6094"/></g><g id="elem_PlayerGoals"><rect fill="#0E0E0E" height="37.6094" style="stroke:#E7E7E7;stroke-width:0.5;" width="91" x="724" y="399"/><text fill="#FFFFFF" font-family="sans-serif" font-size="14" lengthAdjust="spacing" textLength="77" x="731" y="415.5332">PlayerGoals</text><line style="stroke:#E7E7E7;stroke-width:0.5;" x1="725" x2="814" y1="420.6094" y2="420.6094"/></g><g id="elem_putMark"><rect fill="#0E0E0E" height="37.6094" style="stroke:#E7E7E7;stroke-width:0.5;" width="65" x="737" y="497"/><text fill="#FFFFFF" font-family="sans-serif" font-size="14" lengthAdjust="spacing" textLength="51" x="744" y="513.5332">putMark</text><line style="stroke:#E7E7E7;stroke-width:0.5;" x1="738" x2="801" y1="518.6094" y2="518.6094"/></g><g id="elem_Rounds"><rect fill="#0E0E0E" height="37.6094" style="stroke:#E7E7E7;stroke-width:0.5;" width="63" x="796" y="203"/><text fill="#FFFFFF" font-family="sans-serif" font-size="14" lengthAdjust="spacing" textLength="49" x="803" y="219.5332">Rounds</text><line style="stroke:#E7E7E7;stroke-width:0.5;" x1="797" x2="858" y1="224.6094" y2="224.6094"/></g><g id="elem_RoundGoals"><rect fill="#0E0E0E" height="37.6094" style="stroke:#E7E7E7;stroke-width:0.5;" width="93" x="831" y="301"/><text fill="#FFFFFF" font-family="sans-serif" font-size="14" lengthAdjust="spacing" textLength="79" x="838" y="317.5332">RoundGoals</text><line style="stroke:#E7E7E7;stroke-width:0.5;" x1="832" x2="923" y1="322.6094" y2="322.6094"/></g><g id="elem_executeRound"><rect fill="#0E0E0E" height="37.6094" style="stroke:#E7E7E7;stroke-width:0.5;" width="105" x="850" y="399"/><text fill="#FFFFFF" font-family="sans-serif" font-size="14" lengthAdjust="spacing" textLength="91" x="857" y="415.5332">executeRound</text><line style="stroke:#E7E7E7;stroke-width:0.5;" x1="851" x2="954" y1="420.6094" y2="420.6094"/></g><g id="elem_Mark"><rect fill="#0E0E0E" height="37.6094" style="stroke:#E7E7E7;stroke-width:0.5;" width="45" x="269" y="399"/><text fill="#FFFFFF" font-family="sans-serif" font-size="14" lengthAdjust="spacing" textLength="31" x="276" y="415.5332">Mark</text><line style="stroke:#E7E7E7;stroke-width:0.5;" x1="270" x2="313" y1="420.6094" y2="420.6094"/></g><g id="elem_Zero"><rect fill="#0E0E0E" height="37.6094" style="stroke:#E7E7E7;stroke-width:0.5;" width="43" x="236" y="497"/><text fill="#FFFFFF" font-family="sans-serif" font-size="14" lengthAdjust="spacing" textLength="29" x="243" y="513.5332">Zero</text><line style="stroke:#E7E7E7;stroke-width:0.5;" x1="237" x2="278" y1="518.6094" y2="518.6094"/></g><g id="elem_X"><rect fill="#0E0E0E" height="37.6094" style="stroke:#E7E7E7;stroke-width:0.5;" width="22" x="314.5" y="497"/><text fill="#FFFFFF" font-family="sans-serif" font-size="14" lengthAdjust="spacing" textLength="8" x="321.5" y="513.5332">X</text><line style="stroke:#E7E7E7;stroke-width:0.5;" x1="315.5" x2="335.5" y1="518.6094" y2="518.6094"/></g><g id="elem_Empty"><rect fill="#0E0E0E" height="37.6094" style="stroke:#E7E7E7;stroke-width:0.5;" width="53" x="372" y="497"/><text fill="#FFFFFF" font-family="sans-serif" font-size="14" lengthAdjust="spacing" textLength="39" x="379" y="513.5332">Empty</text><line style="stroke:#E7E7E7;stroke-width:0.5;" x1="373" x2="424" y1="518.6094" y2="518.6094"/></g><g id="elem_availability"><rect fill="#0E0E0E" height="37.6094" style="stroke:#E7E7E7;stroke-width:0.5;" width="79" x="122" y="497"/><text fill="#FFFFFF" font-family="sans-serif" font-size="14" lengthAdjust="spacing" textLength="65" x="129" y="513.5332">availability</text><line style="stroke:#E7E7E7;stroke-width:0.5;" x1="123" x2="200" y1="518.6094" y2="518.6094"/></g><g id="elem_Statistic"><rect fill="#0E0E0E" height="37.6094" style="stroke:#E7E7E7;stroke-width:0.5;" width="63" x="867" y="105"/><text fill="#FFFFFF" font-family="sans-serif" font-size="14" lengthAdjust="spacing" textLength="49" x="874" y="121.5332">Statistic</text><line style="stroke:#E7E7E7;stroke-width:0.5;" x1="868" x2="929" y1="126.6094" y2="126.6094"/></g><g id="elem_winnerName"><rect fill="#0E0E0E" height="37.6094" style="stroke:#E7E7E7;stroke-width:0.5;" width="91" x="894" y="203"/><text fill="#FFFFFF" font-family="sans-serif" font-size="14" lengthAdjust="spacing" textLength="77" x="901" y="219.5332">winnerName</text><line style="stroke:#E7E7E7;stroke-width:0.5;" x1="895" x2="984" y1="224.6094" y2="224.6094"/></g><!--MD5=[cf5572f1e9ebe5a1625b5a168303c174]
link Board to TTTGame--><g id="link_Board_TTTGame"><path codeLine="33" d="M560.61,26 C615.25,26 669.89,26 724.54,26 " fill="none" id="Board-to-TTTGame" style="stroke:#E7E7E7;stroke-width:1.0;"/><polygon fill="#E7E7E7" points="737.68,26,731.68,22,725.68,26,731.68,30,737.68,26" style="stroke:#E7E7E7;stroke-width:1.0;"/></g><!--MD5=[e842eb6168da7c3d23d4a58737904d12]
reverse link TTTGame to Player--><g id="link_TTTGame_Player"><path codeLine="34" d="M771.11,58.1 C758.61,118.96 731.25,252.1 721.25,300.74 " fill="none" id="TTTGame-backto-Player" style="stroke:#E7E7E7;stroke-width:1.0;"/><polygon fill="#E7E7E7" points="773.75,45.27,768.6192,50.337,771.3231,57.022,776.4539,51.955,773.75,45.27" style="stroke:#E7E7E7;stroke-width:1.0;"/></g><!--MD5=[398df02eff112d942b04f89fb59be107]
reverse link TTTGame to Rounds--><g id="link_TTTGame_Rounds"><path codeLine="35" d="M785.46,57.89 C796.02,98.84 814.3,169.78 822.85,202.94 " fill="none" id="TTTGame-backto-Rounds" style="stroke:#E7E7E7;stroke-width:1.0;"/><polygon fill="#E7E7E7" points="782.21,45.25,779.839,52.0602,785.2133,56.8681,787.5844,50.0579,782.21,45.25" style="stroke:#E7E7E7;stroke-width:1.0;"/></g><!--MD5=[cddd1e96249049c7fae7104dde718151]
reverse link TTTGame to Statistic--><g id="link_TTTGame_Statistic"><path codeLine="36" d="M810.46,53.15 C831.05,69.48 857.04,90.11 875.43,104.7 " fill="none" id="TTTGame-backto-Statistic" style="stroke:#E7E7E7;stroke-width:1.0;"/><polygon fill="#E7E7E7" points="800.26,45.06,802.4783,51.9214,809.6651,52.5128,807.4468,45.6514,800.26,45.06" style="stroke:#E7E7E7;stroke-width:1.0;"/></g><!--MD5=[d08d5eb869d4b299c98352146ea1d976]
link dimensions to Board--><g id="link_dimensions_Board"><path codeLine="38" d="M473.16,26 C480.45,26 487.74,26 495.02,26 " fill="none" id="dimensions-to-Board" style="stroke:#E7E7E7;stroke-width:1.0;"/><polygon fill="#E7E7E7" points="508.14,26,502.14,22,496.14,26,502.14,30,508.14,26" style="stroke:#E7E7E7;stroke-width:1.0;"/></g><!--MD5=[9fe8c0a0d5136107374d4ed36a61c63c]
reverse link Board to Spaces--><g id="link_Board_Spaces"><path codeLine="39" d="M496.06,43.24 C494.19,43.87 492.33,44.46 490.5,45 C351.74,86.13 179.9,110.56 111.09,119.31 " fill="none" id="Board-backto-Spaces" style="stroke:#E7E7E7;stroke-width:1.0;"/><polygon fill="#E7E7E7" points="508.28,38.73,501.2665,37.0535,497.0215,42.8827,504.035,44.5592,508.28,38.73" style="stroke:#E7E7E7;stroke-width:1.0;"/></g><!--MD5=[e906e7f704d271a35049f578a7278914]
reverse link Board to BoardGoals--><g id="link_Board_BoardGoals"><path codeLine="40" d="M511.41,55.43 C498.46,71.36 482.68,90.78 471.37,104.7 " fill="none" id="Board-backto-BoardGoals" style="stroke:#E7E7E7;stroke-width:1.0;"/><polygon fill="none" points="519.83,45.06,512.9413,47.1921,512.2599,54.3709,519.1486,52.2388,519.83,45.06" style="stroke:#E7E7E7;stroke-width:1.0;"/></g><!--MD5=[9e729c18e157d76cb34bebb44b75cb3e]
reverse link BoardGoals to paint--><g id="link_BoardGoals_paint"><path codeLine="41" d="M392.39,144.21 C344.56,159.02 277.86,180.69 220.5,203 C214.82,205.21 208.79,207.79 203.17,210.31 " fill="none" id="BoardGoals-backto-paint" style="stroke:#E7E7E7;stroke-width:1.0;"/><polygon fill="none" points="390.47,137.48,411.65,138.31,394.58,150.86,390.47,137.48" style="stroke:#E7E7E7;stroke-width:1.0;"/></g><!--MD5=[009d07baab6e920045ae86f4d067f619]
reverse link BoardGoals to validateChoice--><g id="link_BoardGoals_validateChoice"><path codeLine="42" d="M407.98,153.23 C380.42,169.27 346.72,188.87 322.68,202.86 " fill="none" id="BoardGoals-backto-validateChoice" style="stroke:#E7E7E7;stroke-width:1.0;"/><polygon fill="none" points="404.66,147.06,425.47,143.06,411.7,159.17,404.66,147.06" style="stroke:#E7E7E7;stroke-width:1.0;"/></g><!--MD5=[79f59f4999f539ee3950c3102111328a]
reverse link BoardGoals to verifyChoiceExistence--><g id="link_BoardGoals_verifyChoiceExistence"><path codeLine="43" d="M456.5,163.43 C456.5,176.98 456.5,191.59 456.5,202.7 " fill="none" id="BoardGoals-backto-verifyChoiceExistence" style="stroke:#E7E7E7;stroke-width:1.0;"/><polygon fill="none" points="449.5,163.06,456.5,143.06,463.5,163.06,449.5,163.06" style="stroke:#E7E7E7;stroke-width:1.0;"/></g><!--MD5=[8bf671eb047ffa2aabfe72f535108f15]
reverse link BoardGoals to determineWinner--><g id="link_BoardGoals_determineWinner"><path codeLine="44" d="M506.67,153 C535.48,169.08 570.82,188.8 596,202.86 " fill="none" id="BoardGoals-backto-determineWinner" style="stroke:#E7E7E7;stroke-width:1.0;"/><polygon fill="none" points="502.91,158.92,488.85,143.06,509.73,146.69,502.91,158.92" style="stroke:#E7E7E7;stroke-width:1.0;"/></g><!--MD5=[45e18d8fb9d4e1e1446c206f2db63f1b]
reverse link Spaces to Coordinate--><g id="link_Spaces_Coordinate"><path codeLine="46" d="M80.5,156.22 C80.5,171.59 80.5,189.58 80.5,202.7 " fill="none" id="Spaces-backto-Coordinate" style="stroke:#E7E7E7;stroke-width:1.0;"/><polygon fill="#E7E7E7" points="80.5,143.06,76.5,149.06,80.5,155.06,84.5,149.06,80.5,143.06" style="stroke:#E7E7E7;stroke-width:1.0;"/></g><!--MD5=[76b5ddcd7eac725c02cba770cd4a2094]
reverse link Spaces to Mark--><g id="link_Spaces_Mark"><path codeLine="47" d="M51.88,152.8 C39.7,166.6 26.86,184.31 20.5,203 C11,230.93 6,315.35 24.5,339 C55.22,378.28 210.11,404.94 268.86,413.78 " fill="none" id="Spaces-backto-Mark" style="stroke:#E7E7E7;stroke-width:1.0;"/><polygon fill="none" points="60.94,143.05,53.924,144.7161,52.7635,151.8332,59.7795,150.1671,60.94,143.05" style="stroke:#E7E7E7;stroke-width:1.0;"/></g><!--MD5=[6395419ed105fcb3f75d5da94b0f0f94]
reverse link Coordinate to positionX--><g id="link_Coordinate_positionX"><path codeLine="49" d="M79.53,254.22 C79.05,269.59 78.48,287.58 78.07,300.7 " fill="none" id="Coordinate-backto-positionX" style="stroke:#E7E7E7;stroke-width:1.0;"/><polygon fill="#E7E7E7" points="79.94,241.06,75.7574,246.9341,79.5709,253.0543,83.7536,247.1802,79.94,241.06" style="stroke:#E7E7E7;stroke-width:1.0;"/></g><!--MD5=[d12ab7607f80d80ce519d1163b41b3ca]
reverse link Coordinate to positionY--><g id="link_Coordinate_positionY"><path codeLine="50" d="M109.81,250.06 C127.34,266.24 149.16,286.37 164.67,300.7 " fill="none" id="Coordinate-backto-positionY" style="stroke:#E7E7E7;stroke-width:1.0;"/><polygon fill="#E7E7E7" points="100.06,241.06,101.7587,248.0682,108.8812,249.1955,107.1824,242.1874,100.06,241.06" style="stroke:#E7E7E7;stroke-width:1.0;"/></g><!--MD5=[9830c29e3886cbfb5228990c4a8b7f81]
reverse link Rounds to RoundGoals--><g id="link_Rounds_RoundGoals"><path codeLine="52" d="M843.03,252.81 C851.19,268.48 860.93,287.18 867.97,300.7 " fill="none" id="Rounds-backto-RoundGoals" style="stroke:#E7E7E7;stroke-width:1.0;"/><polygon fill="none" points="836.91,241.06,836.1388,248.2297,842.4603,251.6993,843.2316,244.5295,836.91,241.06" style="stroke:#E7E7E7;stroke-width:1.0;"/></g><!--MD5=[6d0d7a2001ebe864eddb980d43bf9625]
link Rounds to Player--><g id="link_Rounds_Player"><path codeLine="53" d="M806.81,241.06 C788.49,257.05 761.71,280.41 742.26,297.39 " fill="none" id="Rounds-to-Player" style="stroke:#E7E7E7;stroke-width:1.0;"/><polygon fill="#E7E7E7" points="738.47,300.7,747.8835,297.804,742.24,297.4156,742.6284,291.7721,738.47,300.7" style="stroke:#E7E7E7;stroke-width:1.0;"/></g><!--MD5=[85f0d2c35e875c8ec82ec2ecd8583536]
link Rounds to Board--><g id="link_Rounds_Board"><path codeLine="54" d="M800.29,202.98 C745.48,166.69 622.16,85.04 564.85,47.09 " fill="none" id="Rounds-to-Board" style="stroke:#E7E7E7;stroke-width:1.0;"/><polygon fill="#E7E7E7" points="560.5,44.22,565.8026,52.5196,564.6712,46.977,570.2138,45.8456,560.5,44.22" style="stroke:#E7E7E7;stroke-width:1.0;"/></g><!--MD5=[e29727971e0bb8507243bff60b1fd8ad]
reverse link RoundGoals to executeRound--><g id="link_RoundGoals_executeRound"><path codeLine="55" d="M887.26,358.45 C890.85,372.27 894.77,387.32 897.74,398.7 " fill="none" id="RoundGoals-backto-executeRound" style="stroke:#E7E7E7;stroke-width:1.0;"/><polygon fill="none" points="880.47,360.18,882.2,339.06,894.02,356.65,880.47,360.18" style="stroke:#E7E7E7;stroke-width:1.0;"/></g><!--MD5=[8fb86329e7ed417be43d1409d2b78be1]
reverse link Player to id--><g id="link_Player_id"><path codeLine="57" d="M683.48,347.13 C657.59,367.01 623.43,393.25 605.22,407.24 " fill="none" id="Player-backto-id" style="stroke:#E7E7E7;stroke-width:1.0;"/><polygon fill="#E7E7E7" points="693.99,339.06,686.7952,339.5439,684.4746,346.3714,691.6694,345.8875,693.99,339.06" style="stroke:#E7E7E7;stroke-width:1.0;"/></g><!--MD5=[bfe9ee763265fa606f51959ec56165b3]
reverse link Player to name--><g id="link_Player_name"><path codeLine="58" d="M701.04,350.81 C692.39,366.48 682.07,385.18 674.61,398.7 " fill="none" id="Player-backto-name" style="stroke:#E7E7E7;stroke-width:1.0;"/><polygon fill="#E7E7E7" points="707.53,339.06,701.1266,342.3761,701.7247,349.5623,708.1281,346.2463,707.53,339.06" style="stroke:#E7E7E7;stroke-width:1.0;"/></g><!--MD5=[dbb9fcdb33f0e99af03032b583529590]
reverse link Player to Mark--><g id="link_Player_Mark"><path codeLine="59" d="M677.42,330.03 C589.63,349.82 382.73,396.44 314.08,411.91 " fill="none" id="Player-backto-Mark" style="stroke:#E7E7E7;stroke-width:1.0;"/><polygon fill="#E7E7E7" points="690.21,327.15,683.4777,324.5661,678.5032,329.7867,685.2355,332.3706,690.21,327.15" style="stroke:#E7E7E7;stroke-width:1.0;"/></g><!--MD5=[64d93484d95da910069a389f215a819f]
reverse link Player to PlayerGoals--><g id="link_Player_PlayerGoals"><path codeLine="60" d="M733.65,350.81 C742.14,366.48 752.26,385.18 759.59,398.7 " fill="none" id="Player-backto-PlayerGoals" style="stroke:#E7E7E7;stroke-width:1.0;"/><polygon fill="none" points="727.28,339.06,726.6145,346.2403,732.9865,349.6163,733.652,342.436,727.28,339.06" style="stroke:#E7E7E7;stroke-width:1.0;"/></g><!--MD5=[d2d3a1b2036259fbaa6bdc1180c1d18a]
reverse link PlayerGoals to putMark--><g id="link_PlayerGoals_putMark"><path codeLine="61" d="M769.5,457.43 C769.5,470.98 769.5,485.59 769.5,496.7 " fill="none" id="PlayerGoals-backto-putMark" style="stroke:#E7E7E7;stroke-width:1.0;"/><polygon fill="none" points="762.5,457.06,769.5,437.06,776.5,457.06,762.5,457.06" style="stroke:#E7E7E7;stroke-width:1.0;"/></g><!--MD5=[bab9fc9b7f4c405143461a7596eaaf98]
reverse link Mark to Zero--><g id="link_Mark_Zero"><path codeLine="63" d="M278.41,455.97 C273.47,469.92 268.06,485.19 263.98,496.7 " fill="none" id="Mark-backto-Zero" style="stroke:#E7E7E7;stroke-width:1.0;"/><polygon fill="none" points="271.83,453.57,285.11,437.06,285.03,458.25,271.83,453.57" style="stroke:#E7E7E7;stroke-width:1.0;"/></g><!--MD5=[d693c4ac39d56f1391531190c9432ab5]
reverse link Mark to X--><g id="link_Mark_X"><path codeLine="64" d="M304.59,455.97 C309.54,469.92 314.94,485.19 319.02,496.7 " fill="none" id="Mark-backto-X" style="stroke:#E7E7E7;stroke-width:1.0;"/><polygon fill="none" points="297.98,458.25,297.9,437.06,311.17,453.57,297.98,458.25" style="stroke:#E7E7E7;stroke-width:1.0;"/></g><!--MD5=[d1ea7a81c783ae8d1f6afa33a41a6a5b]
reverse link Mark to Empty--><g id="link_Mark_Empty"><path codeLine="65" d="M326.56,450.45 C343.63,465.77 363.56,483.65 378.1,496.7 " fill="none" id="Mark-backto-Empty" style="stroke:#E7E7E7;stroke-width:1.0;"/><polygon fill="none" points="321.84,455.62,311.63,437.06,331.19,445.2,321.84,455.62" style="stroke:#E7E7E7;stroke-width:1.0;"/></g><!--MD5=[3189ef48455b1d0b2d5b3f633a09747e]
reverse link Mark to availability--><g id="link_Mark_availability"><path codeLine="66" d="M258.11,443.66 C235.62,460.26 206.47,481.79 186.1,496.84 " fill="none" id="Mark-backto-availability" style="stroke:#E7E7E7;stroke-width:1.0;"/><polygon fill="#E7E7E7" points="268.86,435.72,261.6571,436.063,259.2033,442.8438,266.4063,442.5008,268.86,435.72" style="stroke:#E7E7E7;stroke-width:1.0;"/></g><!--MD5=[7d5ca53f137af02eab02a39cc350f425]
reverse link Statistic to winnerName--><g id="link_Statistic_winnerName"><path codeLine="68" d="M911.43,155.28 C918.08,170.85 925.97,189.31 931.69,202.7 " fill="none" id="Statistic-backto-winnerName" style="stroke:#E7E7E7;stroke-width:1.0;"/><polygon fill="#E7E7E7" points="906.21,143.06,904.8877,150.1488,910.9227,154.0959,912.245,147.007,906.21,143.06" style="stroke:#E7E7E7;stroke-width:1.0;"/></g><!--MD5=[f3d2a110c7bd6403c9e465a68e9caf34]
reverse link Statistic to Rounds--><g id="link_Statistic_Rounds"><path codeLine="69" d="M882.08,147.2 C869.63,164.04 852.72,186.9 841.04,202.7 " fill="none" id="Statistic-backto-Rounds" style="stroke:#E7E7E7;stroke-width:1.0;"/><polygon fill="#E7E7E7" points="885.15,143.06,876.5804,147.914,882.1752,147.0788,883.0105,152.6737,885.15,143.06" style="stroke:#E7E7E7;stroke-width:1.0;"/></g><!--MD5=[9a0cd3acbda5fc6df1388193c11ad0c1]
@startuml DomainModel

skinparam monochrome reverse

object TTTGame
    object Board
        object dimensions
        object Spaces
            object Coordinate
                object positionX
                object positionY
    object BoardGoals
        object paint
        object validateChoice
        object verifyChoiceExistence
        object determineWinner
    object Player
        object id
        object name
        object mark
        object PlayerGoals
            object putMark
    object Rounds
        object RoundGoals
            object executeRound
    object Mark
        object Zero
        object X
        object Empty
        object availability
    object Statistic
        object winnerName

TTTGame *-left- Board
TTTGame *- - Player
TTTGame *- - Rounds
TTTGame *- - Statistic

Board *-left- dimensions
Board *- - Spaces
Board o- - BoardGoals
BoardGoals <|- - paint
BoardGoals <|- - validateChoice
BoardGoals <|- - verifyChoiceExistence
BoardGoals <|- - determineWinner

Spaces *- - Coordinate
Spaces o- - Mark

Coordinate *- - positionX
Coordinate *- - positionY

Rounds o- - RoundGoals
Rounds - -> Player
Rounds - -> Board
RoundGoals <|- - executeRound

Player *- - id
Player *- - name
Player *- - Mark
Player o- - PlayerGoals
PlayerGoals <|- - putMark

Mark <|- - Zero
Mark <|- - X
Mark <|- - Empty
Mark *- - availability

Statistic *- - winnerName
Statistic <- - Rounds


@enduml

PlantUML version 1.2022.7(Mon Aug 22 11:01:30 CST 2022)
(GPL source distribution)
Java Runtime: Java(TM) SE Runtime Environment
JVM: Java HotSpot(TM) 64-Bit Server VM
Default Encoding: Cp1252
Language: en
Country: US
--></g></svg>